<svg width="121" height="34" viewBox="0 0 121 34" fill="none" xmlns="http://www.w3.org/2000/svg">
<path d="M63.5101 1.29351V15.6079C63.5101 16.7835 62.553 17.7363 61.3721 17.7363V3.42191C61.3744 2.24628 62.3315 1.29351 63.5101 1.29351Z" fill="white"/>
<path d="M69.7182 4.97272V5.99144H73.1467V7.74237H69.7639V15.6079C69.7639 16.7835 68.8069 17.734 67.6283 17.734V7.74237H65.6251V5.99144H67.6283V4.94999C67.6283 3.78346 67.9686 2.86025 68.6516 2.18034C69.3345 1.50044 70.2915 1.16162 71.5227 1.16162C71.9978 1.16162 72.4432 1.22074 72.8589 1.33899C73.2746 1.45723 73.6309 1.62778 73.9278 1.84835L73.2837 3.46511C72.7949 3.09673 72.2444 2.91027 71.6369 2.91027C70.3555 2.91255 69.7182 3.59927 69.7182 4.97272Z" fill="white"/>
<path d="M84.1834 6.34845C85.1108 7.20117 85.5744 8.47003 85.5744 10.1596V15.5806C85.5744 16.7699 84.606 17.734 83.4114 17.734V16.0763C83.0299 16.6607 82.4886 17.1064 81.7828 17.4134C81.077 17.7204 80.2411 17.875 79.2749 17.875C77.8633 17.875 76.735 17.5362 75.8876 16.8563C75.0402 16.1786 74.6153 15.2873 74.6153 14.1821C74.6153 13.077 75.0196 12.1902 75.8282 11.5194C76.6368 10.8486 77.9204 10.5143 79.6792 10.5143H83.2926V10.064C83.2926 9.08626 83.0071 8.33586 82.4361 7.81513C81.8651 7.2944 81.0245 7.03518 79.9167 7.03518C79.1721 7.03518 78.4435 7.15797 77.7286 7.40128C77.0159 7.64686 76.4129 7.97431 75.9218 8.38362C75.3257 7.31714 75.8487 5.98007 77.0068 5.57986C77.1027 5.54575 77.2009 5.51392 77.2991 5.48436C78.2036 5.20921 79.1607 5.0705 80.1771 5.0705C81.9199 5.0705 83.2561 5.49573 84.1834 6.34845ZM81.913 15.5442C82.5457 15.1576 83.0071 14.6096 83.2926 13.9002V12.1492H79.7728C77.8382 12.1492 76.872 12.7973 76.872 14.0912C76.872 14.7233 77.1187 15.219 77.6098 15.5829C78.1009 15.9467 78.7815 16.1286 79.654 16.1286C80.5266 16.1241 81.2803 15.9308 81.913 15.5442Z" fill="white"/>
<path d="M104.16 10.5984C104.715 11.3011 104.992 12.1879 104.992 13.2612C104.992 14.6983 104.448 15.8012 103.363 16.5743C102.278 17.3474 100.695 17.734 98.6189 17.734H90.6771V2.93983C90.6771 1.95977 91.4742 1.16617 92.4587 1.16617H98.1415C100.044 1.16617 101.513 1.54591 102.552 2.30313C103.589 3.06035 104.11 4.11091 104.11 5.45252C104.11 6.32116 103.909 7.06929 103.505 7.70144C103.1 8.33359 102.557 8.81339 101.876 9.14538C102.844 9.40916 103.605 9.89578 104.16 10.5984ZM93.0571 3.08309V8.38589H97.9314C99.1511 8.38589 100.09 8.16077 100.75 7.71053C101.408 7.2603 101.737 6.60313 101.737 5.73449C101.737 4.86585 101.408 4.20641 100.75 3.75845C100.092 3.30821 99.1534 3.08309 97.9314 3.08309H93.0571ZM101.568 15.1554C102.248 14.7142 102.591 14.0184 102.591 13.0725C102.591 11.226 101.236 10.3028 98.5252 10.3028H93.0571V15.8194H98.5252C99.8729 15.8171 100.887 15.5965 101.568 15.1554Z" fill="white"/>
<path d="M107.648 3.51059C107.376 3.24681 107.241 2.92846 107.241 2.54872C107.241 2.16897 107.376 1.84607 107.648 1.57548C107.92 1.30488 108.26 1.17072 108.671 1.17072C109.08 1.17072 109.423 1.29806 109.692 1.55274C109.964 1.80742 110.099 2.12577 110.099 2.50551C110.099 2.8989 109.964 3.2309 109.692 3.50149C109.42 3.77209 109.08 3.90625 108.671 3.90625C108.258 3.90625 107.917 3.77436 107.648 3.51059ZM109.724 6.13698V15.6329C109.724 16.7926 108.779 17.734 107.614 17.734V8.23809C107.614 7.07838 108.559 6.13698 109.724 6.13698Z" fill="white"/>
<path d="M119.018 15.9103C118.838 15.9422 118.646 15.9603 118.449 15.9603C117.817 15.9603 117.33 15.7784 116.988 15.4146C116.65 15.053 116.476 14.53 116.476 13.8524V7.05792H119.164L118.079 5.18875H116.478V2.44412C115.22 2.44412 114.196 3.45829 114.196 4.71577V5.18875H112.059V7.05792H114.196V13.9456C114.196 15.2077 114.548 16.1809 115.245 16.8585C115.699 17.302 116.277 17.5976 116.974 17.7454C117.346 17.8318 117.75 17.8727 118.191 17.8727C118.717 17.8727 119.224 17.7977 119.715 17.6499C120.206 17.4975 120.619 17.2792 120.948 16.9973C120.619 16.2514 119.827 15.7716 119.018 15.9103Z" fill="white"/>
<path d="M56.6258 17.734H59.0584L50.2646 1.1639H49.6639C48.5332 1.1639 47.4917 1.76421 46.9252 2.73745L38.2297 17.734H40.6645L43.0674 13.5909H54.4582L56.6258 17.734ZM44.1683 11.6922L49.0563 3.265L53.4669 11.6922H44.1683Z" fill="white"/>
<path d="M26.9775 27.5552L0 27.562L14.6525 2.27591C15.2441 1.25946 16.3222 0.602295 17.5053 0.602295H17.5236C17.9347 0.602295 18.3413 0.613665 18.7456 0.643226L4.69839 24.881H25.4288L26.9775 27.5552Z" fill="white"/>
<path d="M33.0303 31.0522L3.69795 31.059C2.48281 31.059 1.36817 30.3996 0.765166 29.3467C0.575586 29.0193 0.39971 28.6873 0.232971 28.3485L28.3456 28.3417L17.9804 10.4686L19.5313 7.79443L33.0303 31.0522Z" fill="white"/>
<path d="M34.1929 29.4994C34.0011 29.8223 33.8023 30.1429 33.5922 30.4544L19.529 6.22116L9.16607 24.0942H6.06427L19.5473 0.834229L34.218 26.1112C34.8279 27.1618 34.8096 28.4511 34.1929 29.4994Z" fill="white"/>
<path d="M67.4796 29.6409C67.3022 29.4629 67.2357 29.2627 67.2357 29.018C67.2357 28.7733 67.3244 28.5731 67.4796 28.4173C67.657 28.2616 67.8566 28.1726 68.0783 28.1726C68.3222 28.1726 68.5218 28.2616 68.677 28.4173C68.8543 28.5731 68.9209 28.7955 68.9209 29.018C68.9209 29.2627 68.8322 29.4629 68.677 29.6409C68.4996 29.8189 68.3 29.9079 68.0783 29.9079C67.8344 29.8856 67.6348 29.8189 67.4796 29.6409Z" fill="#FCB755"/>
<path d="M78.4704 31.4312V30.0039L78.4066 29.7363V27.3023C78.4066 26.7841 78.2537 26.3848 77.9479 26.1045C77.6505 25.8156 77.2003 25.6712 76.5971 25.6712C76.1978 25.6712 75.807 25.7392 75.4247 25.8751C75.0424 26.0025 74.7196 26.1767 74.4562 26.3976L73.9465 25.4801C74.2948 25.1997 74.7111 24.9873 75.1953 24.8429C75.6881 24.69 76.2021 24.6135 76.7373 24.6135C77.6633 24.6135 78.3769 24.8387 78.8781 25.2889C79.3794 25.7392 79.63 26.4273 79.63 27.3533V31.4312H78.4704ZM76.253 31.5076C75.7518 31.5076 75.31 31.4227 74.9277 31.2527C74.5539 31.0828 74.2651 30.8492 74.0612 30.5519C73.8573 30.246 73.7554 29.902 73.7554 29.5197C73.7554 29.1544 73.8403 28.823 74.0102 28.5257C74.1886 28.2284 74.4732 27.9905 74.864 27.8121C75.2633 27.6337 75.7985 27.5445 76.4697 27.5445H78.6105V28.4238H76.5206C75.909 28.4238 75.4969 28.5257 75.2845 28.7296C75.0722 28.9335 74.966 29.1798 74.966 29.4687C74.966 29.8 75.0976 30.0676 75.361 30.2715C75.6244 30.4669 75.9897 30.5646 76.4569 30.5646C76.9157 30.5646 77.315 30.4627 77.6548 30.2588C78.0031 30.0549 78.2537 29.7575 78.4066 29.3667L78.6488 30.2078C78.4873 30.6071 78.2027 30.9257 77.795 31.1635C77.3872 31.3929 76.8732 31.5076 76.253 31.5076ZM83.8054 31.4312V24.6772H85.0287V31.4312H83.8054ZM84.4171 23.3774C84.1792 23.3774 83.9795 23.301 83.8181 23.1481C83.6652 22.9951 83.5887 22.8082 83.5887 22.5874C83.5887 22.358 83.6652 22.1668 83.8181 22.0139C83.9795 21.861 84.1792 21.7845 84.4171 21.7845C84.6549 21.7845 84.8503 21.861 85.0032 22.0139C85.1647 22.1583 85.2454 22.341 85.2454 22.5619C85.2454 22.7912 85.1689 22.9866 85.016 23.1481C84.8631 23.301 84.6634 23.3774 84.4171 23.3774Z" fill="#FCB755"/>
<path d="M90.6462 29.6409C90.4688 29.4629 90.4023 29.2627 90.4023 29.018C90.4023 28.7733 90.491 28.5731 90.6462 28.4173C90.8236 28.2616 91.0232 28.1726 91.2449 28.1726C91.4888 28.1726 91.6883 28.2616 91.8436 28.4173C92.0209 28.5731 92.0875 28.7955 92.0875 29.018C92.0875 29.2627 91.9988 29.4629 91.8436 29.6409C91.6662 29.8189 91.4666 29.9079 91.2449 29.9079C91.001 29.8856 90.8014 29.8189 90.6462 29.6409Z" fill="#FCB755"/>
</svg>
