<svg width="48" height="49" viewBox="0 0 48 49" fill="none" xmlns="http://www.w3.org/2000/svg">
<rect y="0.115234" width="48" height="48" rx="16" fill="url(#paint0_linear_1401_899)"/>
<path d="M32.0126 33.8505L9.59961 33.8562L21.7727 12.8596C22.2642 12.0148 23.161 11.4707 24.1439 11.4707H24.1592C24.5015 11.4707 24.838 11.4802 25.1746 11.503L13.5024 31.6302H30.7257L32.0126 33.8505Z" fill="white"/>
<path d="M37.042 36.7543L12.6728 36.76C11.6631 36.76 10.7376 36.2121 10.2347 35.3369C10.0779 35.0648 9.93065 34.7889 9.79297 34.5074L33.1506 34.5017L24.538 19.6617L25.8268 17.4414L37.042 36.7543Z" fill="white"/>
<path d="M38.0097 35.4631C37.851 35.7314 37.6865 35.9977 37.5106 36.2565L25.8251 16.135L17.2144 30.9769H14.6387L25.8404 11.6621L38.0288 32.6511C38.5356 33.5225 38.5203 34.5937 38.0097 35.4631Z" fill="white"/>
<defs>
<linearGradient id="paint0_linear_1401_899" x1="24.0021" y1="47.8166" x2="24.0021" y2="-1.36979" gradientUnits="userSpaceOnUse">
<stop stop-color="#3C0038"/>
<stop offset="1" stop-color="#A96CFF"/>
</linearGradient>
</defs>
</svg>
