<svg width="114" height="32" viewBox="0 0 114 32" fill="none" xmlns="http://www.w3.org/2000/svg">
<path d="M35.5596 27.8281C35.3941 27.6625 35.332 27.4763 35.332 27.2486C35.332 27.0209 35.4148 26.8346 35.5596 26.6897C35.7251 26.5448 35.9113 26.462 36.1181 26.462C36.3457 26.462 36.5319 26.5448 36.6767 26.6897C36.8422 26.8346 36.9042 27.0416 36.9042 27.2486C36.9042 27.4763 36.8215 27.6625 36.6767 27.8281C36.5112 27.9937 36.325 28.0765 36.1181 28.0765C35.8906 28.0558 35.7044 27.9937 35.5596 27.8281Z" fill="#A96CFF"/>
<path d="M42.8391 29.2036C42.1653 29.2036 41.5709 29.0653 41.0557 28.7886C40.5484 28.512 40.1521 28.1325 39.8668 27.6504C39.5894 27.1682 39.4507 26.6149 39.4507 25.9904C39.4507 25.366 39.5854 24.8126 39.8549 24.3305C40.1323 23.8483 40.5088 23.4728 40.9844 23.2041C41.4679 22.9274 42.0108 22.7891 42.6132 22.7891C43.2235 22.7891 43.7624 22.9235 44.2301 23.1922C44.6977 23.461 45.0623 23.8404 45.3239 24.3305C45.5934 24.8126 45.7281 25.3778 45.7281 26.026C45.7281 26.0734 45.7241 26.1287 45.7162 26.192C45.7162 26.2552 45.7122 26.3145 45.7043 26.3698H40.3424V25.5517H45.1099L44.6462 25.8363C44.6541 25.4331 44.5709 25.0735 44.3965 24.7573C44.2221 24.4411 43.9804 24.1961 43.6713 24.0222C43.3701 23.8404 43.0174 23.7495 42.6132 23.7495C42.2169 23.7495 41.8642 23.8404 41.555 24.0222C41.2459 24.1961 41.0042 24.4451 40.8298 24.7692C40.6554 25.0853 40.5683 25.449 40.5683 25.86V26.0497C40.5683 26.4686 40.6634 26.8441 40.8536 27.1761C41.0517 27.5002 41.3252 27.7531 41.6739 27.9349C42.0227 28.1167 42.4229 28.2076 42.8747 28.2076C43.2472 28.2076 43.5841 28.1444 43.8853 28.0179C44.1944 27.8915 44.4639 27.7017 44.6937 27.4488L45.3239 28.1839C45.0385 28.5159 44.6819 28.7689 44.2539 28.9428C43.8338 29.1167 43.3622 29.2036 42.8391 29.2036Z" fill="#A96CFF"/>
<path d="M48.0067 29.1325L50.7174 25.6229L50.7055 26.2038L48.1256 22.8484H49.3977L51.3713 25.4331H50.8838L52.8574 22.8484H54.1058L51.4902 26.2276L51.5021 25.6229L54.2365 29.1325H52.9406L50.8601 26.3817L51.3237 26.4528L49.2788 29.1325H48.0067Z" fill="#A96CFF"/>
<path d="M59.8027 29.2036C59.1607 29.2036 58.5861 29.0653 58.0788 28.7886C57.5795 28.512 57.1872 28.1325 56.9018 27.6504C56.6165 27.1682 56.4738 26.6149 56.4738 25.9904C56.4738 25.366 56.6165 24.8126 56.9018 24.3305C57.1872 23.8483 57.5795 23.4728 58.0788 23.2041C58.5861 22.9274 59.1607 22.7891 59.8027 22.7891C60.3734 22.7891 60.8807 22.9037 61.3245 23.1329C61.7763 23.3543 62.1251 23.6862 62.3708 24.1289L61.5029 24.6862C61.2968 24.3779 61.0432 24.1526 60.742 24.0103C60.4487 23.8601 60.1317 23.785 59.7909 23.785C59.3787 23.785 59.0101 23.876 58.6852 24.0578C58.3602 24.2396 58.1026 24.4965 57.9124 24.8284C57.7222 25.1525 57.6271 25.5399 57.6271 25.9904C57.6271 26.441 57.7222 26.8322 57.9124 27.1642C58.1026 27.4962 58.3602 27.7531 58.6852 27.9349C59.0101 28.1167 59.3787 28.2076 59.7909 28.2076C60.1317 28.2076 60.4487 28.1365 60.742 27.9942C61.0432 27.844 61.2968 27.6148 61.5029 27.3065L62.3708 27.8519C62.1251 28.2867 61.7763 28.6226 61.3245 28.8598C60.8807 29.089 60.3734 29.2036 59.8027 29.2036Z" fill="#A96CFF"/>
<path d="M68.9151 22.7891C69.4303 22.7891 69.8821 22.8879 70.2705 23.0855C70.6668 23.2831 70.9759 23.5835 71.1978 23.9866C71.4198 24.3897 71.5307 24.8996 71.5307 25.5161V29.1325H70.3894V25.6466C70.3894 25.0379 70.2388 24.5795 69.9376 24.2712C69.6443 23.9629 69.2282 23.8088 68.6892 23.8088C68.285 23.8088 67.9323 23.8878 67.6311 24.0459C67.3299 24.204 67.0961 24.4372 66.9297 24.7455C66.7711 25.0537 66.6919 25.4371 66.6919 25.8956V29.1325H65.5505V20.3347H66.6919V24.5439L66.466 24.0933C66.6721 23.6823 66.9891 23.3622 67.4171 23.1329C67.8451 22.9037 68.3445 22.7891 68.9151 22.7891Z" fill="#A96CFF"/>
<path d="M79.3378 29.1325V27.8045L79.2784 27.5555V25.2909C79.2784 24.8087 79.1357 24.4372 78.8504 24.1763C78.573 23.9076 78.1529 23.7732 77.5901 23.7732C77.2176 23.7732 76.853 23.8364 76.4963 23.9629C76.1397 24.0815 75.8385 24.2435 75.5928 24.449L75.1172 23.5953C75.4422 23.3345 75.8305 23.1369 76.2823 23.0025C76.742 22.8602 77.2216 22.7891 77.7209 22.7891C78.5848 22.7891 79.2506 22.9985 79.7183 23.4175C80.1859 23.8364 80.4197 24.4767 80.4197 25.3383V29.1325H79.3378ZM77.2691 29.2036C76.8015 29.2036 76.3893 29.1246 76.0327 28.9665C75.6839 28.8084 75.4144 28.591 75.2242 28.3144C75.034 28.0298 74.9389 27.7097 74.9389 27.3539C74.9389 27.0141 75.0181 26.7058 75.1767 26.4291C75.3431 26.1525 75.6086 25.9311 75.9732 25.7651C76.3457 25.5991 76.8451 25.5161 77.4712 25.5161H79.4686V26.3343H77.5188C76.9481 26.3343 76.5637 26.4291 76.3656 26.6188C76.1674 26.8085 76.0683 27.0378 76.0683 27.3065C76.0683 27.6148 76.1912 27.8638 76.4369 28.0535C76.6826 28.2353 77.0234 28.3262 77.4593 28.3262C77.8874 28.3262 78.2599 28.2314 78.5769 28.0416C78.9019 27.8519 79.1357 27.5753 79.2784 27.2117L79.5043 27.9942C79.3537 28.3657 79.0881 28.6622 78.7077 28.8835C78.3272 29.0969 77.8477 29.2036 77.2691 29.2036Z" fill="#A96CFF"/>
<path d="M87.6798 22.7891C88.195 22.7891 88.6468 22.8879 89.0352 23.0855C89.4315 23.2831 89.7406 23.5835 89.9625 23.9866C90.1844 24.3897 90.2954 24.8996 90.2954 25.5161V29.1325H89.1541V25.6466C89.1541 25.0379 89.0035 24.5795 88.7023 24.2712C88.409 23.9629 87.9929 23.8088 87.4539 23.8088C87.0497 23.8088 86.697 23.8878 86.3958 24.0459C86.0946 24.204 85.8608 24.4372 85.6944 24.7455C85.5358 25.0537 85.4566 25.4371 85.4566 25.8956V29.1325H84.3152V22.8484H85.409V24.5439L85.2307 24.0933C85.4368 23.6823 85.7538 23.3622 86.1818 23.1329C86.6098 22.9037 87.1091 22.7891 87.6798 22.7891Z" fill="#A96CFF"/>
<path d="M96.9493 31.5038C96.3707 31.5038 95.8079 31.4208 95.261 31.2548C94.722 31.0967 94.2822 30.8675 93.9413 30.5671L94.4882 29.6897C94.7815 29.9427 95.1421 30.1403 95.5701 30.2826C95.9981 30.4328 96.446 30.5079 96.9136 30.5079C97.6586 30.5079 98.2055 30.334 98.5543 29.9862C98.903 29.6384 99.0774 29.1088 99.0774 28.3973V27.0694L99.1963 25.8244L99.1368 24.5676V22.8484H100.219V28.2788C100.219 29.3854 99.9413 30.1996 99.3865 30.7213C98.8317 31.243 98.0193 31.5038 96.9493 31.5038ZM96.8066 28.8716C96.1963 28.8716 95.6494 28.7451 95.1659 28.4922C94.6903 28.2314 94.3099 27.8717 94.0246 27.4132C93.7472 26.9548 93.6084 26.4252 93.6084 25.8244C93.6084 25.2158 93.7472 24.6862 94.0246 24.2356C94.3099 23.7771 94.6903 23.4214 95.1659 23.1685C95.6494 22.9155 96.1963 22.7891 96.8066 22.7891C97.3456 22.7891 97.837 22.8997 98.2808 23.1211C98.7247 23.3345 99.0774 23.6665 99.339 24.117C99.6084 24.5676 99.7432 25.1367 99.7432 25.8244C99.7432 26.5042 99.6084 27.0694 99.339 27.5199C99.0774 27.9705 98.7247 28.3104 98.2808 28.5396C97.837 28.761 97.3456 28.8716 96.8066 28.8716ZM96.9374 27.8756C97.3575 27.8756 97.73 27.7887 98.0549 27.6148C98.3799 27.4409 98.6335 27.1998 98.8158 26.8915C99.0061 26.5833 99.1012 26.2276 99.1012 25.8244C99.1012 25.4213 99.0061 25.0656 98.8158 24.7573C98.6335 24.449 98.3799 24.2119 98.0549 24.0459C97.73 23.872 97.3575 23.785 96.9374 23.785C96.5173 23.785 96.1408 23.872 95.8079 24.0459C95.483 24.2119 95.2254 24.449 95.0351 24.7573C94.8528 25.0656 94.7617 25.4213 94.7617 25.8244C94.7617 26.2276 94.8528 26.5833 95.0351 26.8915C95.2254 27.1998 95.483 27.4409 95.8079 27.6148C96.1408 27.7887 96.5173 27.8756 96.9374 27.8756Z" fill="#A96CFF"/>
<path d="M106.989 29.2036C106.315 29.2036 105.721 29.0653 105.205 28.7886C104.698 28.512 104.302 28.1325 104.016 27.6504C103.739 27.1682 103.6 26.6149 103.6 25.9904C103.6 25.366 103.735 24.8126 104.005 24.3305C104.282 23.8483 104.658 23.4728 105.134 23.2041C105.618 22.9274 106.16 22.7891 106.763 22.7891C107.373 22.7891 107.912 22.9235 108.38 23.1922C108.847 23.461 109.212 23.8404 109.474 24.3305C109.743 24.8126 109.878 25.3778 109.878 26.026C109.878 26.0734 109.874 26.1287 109.866 26.192C109.866 26.2552 109.862 26.3145 109.854 26.3698H104.492V25.5517H109.26L108.796 25.8363C108.804 25.4331 108.721 25.0735 108.546 24.7573C108.372 24.4411 108.13 24.1961 107.821 24.0222C107.52 23.8404 107.167 23.7495 106.763 23.7495C106.367 23.7495 106.014 23.8404 105.705 24.0222C105.396 24.1961 105.154 24.4451 104.979 24.7692C104.805 25.0853 104.718 25.449 104.718 25.86V26.0497C104.718 26.4686 104.813 26.8441 105.003 27.1761C105.201 27.5002 105.475 27.7531 105.824 27.9349C106.172 28.1167 106.573 28.2076 107.024 28.2076C107.397 28.2076 107.734 28.1444 108.035 28.0179C108.344 27.8915 108.614 27.7017 108.843 27.4488L109.474 28.1839C109.188 28.5159 108.832 28.7689 108.404 28.9428C107.983 29.1167 107.512 29.2036 106.989 29.2036Z" fill="#A96CFF"/>
<path d="M112.655 27.8281C112.49 27.6625 112.428 27.4763 112.428 27.2486C112.428 27.0209 112.511 26.8346 112.655 26.6897C112.821 26.5448 113.007 26.462 113.214 26.462C113.441 26.462 113.628 26.5448 113.772 26.6897C113.938 26.8346 114 27.0416 114 27.2486C114 27.4763 113.917 27.6625 113.772 27.8281C113.607 27.9937 113.421 28.0765 113.214 28.0765C112.986 28.0558 112.8 27.9937 112.655 27.8281Z" fill="#A96CFF"/>
<path d="M59.8508 1.19784V14.6682C59.8508 15.7745 58.9486 16.6711 57.8354 16.6711V3.20075C57.8375 2.09444 58.7397 1.19784 59.8508 1.19784Z" fill="white"/>
<path d="M65.7035 4.66013V5.61878H68.9356V7.26647H65.7466V14.6682C65.7466 15.7745 64.8444 16.669 63.7333 16.669V7.26647H61.8448V5.61878H63.7333V4.63873C63.7333 3.54098 64.0541 2.6722 64.6979 2.03239C65.3418 1.39257 66.244 1.07373 67.4046 1.07373C67.8525 1.07373 68.2724 1.12937 68.6643 1.24064C69.0562 1.35191 69.3921 1.5124 69.6721 1.71997L69.0648 3.2414C68.604 2.89475 68.0851 2.71928 67.5123 2.71928C66.3043 2.72142 65.7035 3.36766 65.7035 4.66013Z" fill="white"/>
<path d="M79.3404 5.95474C80.2147 6.75719 80.6518 7.95123 80.6518 9.54114V14.6426C80.6518 15.7617 79.7388 16.669 78.6126 16.669V15.109C78.253 15.659 77.7427 16.0784 77.0773 16.3673C76.4119 16.6562 75.6238 16.8017 74.713 16.8017C73.3822 16.8017 72.3185 16.4828 71.5196 15.843C70.7207 15.2053 70.3202 14.3665 70.3202 13.3265C70.3202 12.2866 70.7014 11.452 71.4636 10.8208C72.2259 10.1895 73.4361 9.87496 75.0941 9.87496H78.5006V9.45127C78.5006 8.53113 78.2315 7.82498 77.6931 7.33495C77.1548 6.84492 76.3624 6.60098 75.318 6.60098C74.6161 6.60098 73.9292 6.71653 73.2552 6.94549C72.5833 7.1766 72.0149 7.48474 71.5519 7.86991C70.9899 6.86632 71.483 5.60808 72.5747 5.23147C72.6652 5.19937 72.7578 5.16941 72.8503 5.1416C73.7031 4.88267 74.6053 4.75214 75.5635 4.75214C77.2065 4.75214 78.4662 5.1523 79.3404 5.95474ZM77.2 14.6083C77.7965 14.2445 78.2315 13.7288 78.5006 13.0612V11.4135H75.1824C73.3585 11.4135 72.4477 12.0234 72.4477 13.241C72.4477 13.8358 72.6802 14.3023 73.1432 14.6447C73.6062 14.9871 74.2478 15.1583 75.0704 15.1583C75.893 15.154 76.6036 14.9721 77.2 14.6083Z" fill="white"/>
<path d="M98.1732 9.95413C98.6965 10.6153 98.957 11.4499 98.957 12.4599C98.957 13.8123 98.4445 14.8501 97.4217 15.5777C96.3989 16.3052 94.9067 16.669 92.9493 16.669H85.4623V2.7471C85.4623 1.82482 86.2138 1.07801 87.1418 1.07801H92.4993C94.293 1.07801 95.6775 1.43537 96.6573 2.14794C97.6349 2.86051 98.1258 3.84912 98.1258 5.11164C98.1258 5.92906 97.9364 6.63308 97.5552 7.22796C97.1741 7.82284 96.6616 8.27435 96.0199 8.58676C96.9329 8.83499 97.65 9.29292 98.1732 9.95413ZM87.706 2.88191V7.87205H92.3012C93.451 7.87205 94.336 7.66021 94.9583 7.23652C95.5785 6.81282 95.8886 6.19441 95.8886 5.37698C95.8886 4.55956 95.5785 3.939 94.9583 3.51745C94.3382 3.09375 93.4532 2.88191 92.3012 2.88191H87.706ZM95.7292 14.2424C96.3709 13.8273 96.6939 13.1725 96.6939 12.2823C96.6939 10.5447 95.417 9.67595 92.861 9.67595H87.706V14.8672H92.861C94.1315 14.8651 95.0875 14.6575 95.7292 14.2424Z" fill="white"/>
<path d="M101.461 3.2842C101.205 3.03598 101.078 2.7364 101.078 2.37904C101.078 2.02169 101.205 1.71783 101.461 1.46318C101.718 1.20854 102.038 1.08229 102.426 1.08229C102.811 1.08229 103.134 1.20212 103.389 1.44179C103.645 1.68145 103.772 1.98103 103.772 2.33839C103.772 2.70858 103.645 3.021 103.389 3.27564C103.132 3.53029 102.811 3.65654 102.426 3.65654C102.036 3.65654 101.715 3.53242 101.461 3.2842ZM103.419 5.75574V14.6918C103.419 15.7831 102.527 16.669 101.429 16.669V7.73296C101.429 6.64164 102.32 5.75574 103.419 5.75574Z" fill="white"/>
<path d="M112.18 14.9528C112.01 14.9828 111.829 14.9999 111.644 14.9999C111.048 14.9999 110.589 14.8287 110.266 14.4863C109.947 14.1461 109.784 13.6539 109.784 13.0163V6.62238H112.318L111.295 4.86342H109.786V2.28061C108.6 2.28061 107.635 3.23498 107.635 4.41833V4.86342H105.619V6.62238H107.635V13.104C107.635 14.2916 107.966 15.2075 108.623 15.8452C109.052 16.2624 109.597 16.5406 110.253 16.6797C110.604 16.761 110.985 16.7995 111.401 16.7995C111.896 16.7995 112.374 16.7289 112.837 16.5898C113.3 16.4465 113.69 16.241 114 15.9757C113.69 15.2738 112.943 14.8223 112.18 14.9528Z" fill="white"/>
<path d="M53.3608 16.669H55.6541L47.3638 1.07587H46.7975C45.7316 1.07587 44.7497 1.64079 44.2157 2.55665L36.0181 16.669H38.3135L40.5788 12.7702H51.3173L53.3608 16.669ZM41.6167 10.9834L46.2247 3.0531L50.3828 10.9834H41.6167Z" fill="white"/>
<path d="M25.3564 25.8312H0L13.7741 2.0799C14.334 1.12475 15.3418 0.503906 16.4617 0.503906H16.4777C16.8616 0.503906 17.2456 0.519825 17.6295 0.535744L4.41538 23.316H23.9006L25.3564 25.8312Z" fill="white"/>
<path d="M31.0516 29.1105H3.4715C2.33566 29.1105 1.27981 28.4897 0.719886 27.5027C0.543911 27.2002 0.383933 26.8818 0.223956 26.5635H26.6522L16.8936 9.76882L18.3494 7.2536L31.0516 29.1105Z" fill="white"/>
<path d="M32.1395 27.6619C31.9635 27.9644 31.7715 28.2668 31.5796 28.5534L18.3654 5.78905L8.62282 22.5837H5.69523L18.3814 0.726773L32.1715 24.4781C32.7474 25.4651 32.7154 26.6749 32.1395 27.6619Z" fill="white"/>
</svg>
