<svg width="114" height="32" viewBox="0 0 114 32" fill="none" xmlns="http://www.w3.org/2000/svg">
<path d="M59.8508 1.18808V14.6585C59.8508 15.7648 58.9486 16.6614 57.8354 16.6614V3.19098C57.8375 2.08468 58.7397 1.18808 59.8508 1.18808Z" fill="white"/>
<path d="M65.7035 4.65036V5.60902H68.9356V7.25671H65.7466V14.6585C65.7466 15.7648 64.8444 16.6592 63.7333 16.6592V7.25671H61.8448V5.60902H63.7333V4.62896C63.7333 3.53122 64.0541 2.66244 64.6979 2.02262C65.3418 1.3828 66.244 1.06396 67.4046 1.06396C67.8525 1.06396 68.2724 1.1196 68.6643 1.23087C69.0562 1.34215 69.3921 1.50264 69.6721 1.7102L69.0648 3.23164C68.604 2.88498 68.0851 2.70951 67.5123 2.70951C66.3043 2.71165 65.7035 3.35789 65.7035 4.65036Z" fill="white"/>
<path d="M79.3404 5.94498C80.2147 6.74742 80.6518 7.94146 80.6518 9.53137V14.6328C80.6518 15.7519 79.7388 16.6592 78.6126 16.6592V15.0993C78.253 15.6492 77.7427 16.0686 77.0773 16.3575C76.4119 16.6464 75.6238 16.7919 74.713 16.7919C73.3822 16.7919 72.3185 16.4731 71.5196 15.8333C70.7207 15.1956 70.3202 14.3567 70.3202 13.3168C70.3202 12.2768 70.7014 11.4423 71.4636 10.811C72.2259 10.1798 73.4361 9.86519 75.0941 9.86519H78.5006V9.4415C78.5006 8.52136 78.2315 7.81521 77.6931 7.32518C77.1548 6.83516 76.3624 6.59121 75.318 6.59121C74.6161 6.59121 73.9292 6.70676 73.2552 6.93573C72.5833 7.16683 72.0149 7.47497 71.5519 7.86015C70.9899 6.85655 71.483 5.59832 72.5747 5.2217C72.6652 5.18961 72.7578 5.15965 72.8503 5.13183C73.7031 4.87291 74.6053 4.74238 75.5635 4.74238C77.2065 4.74238 78.4662 5.14253 79.3404 5.94498ZM77.2 14.5986C77.7965 14.2348 78.2315 13.7191 78.5006 13.0514V11.4037H75.1824C73.3585 11.4037 72.4477 12.0136 72.4477 13.2312C72.4477 13.8261 72.6802 14.2926 73.1432 14.6349C73.6062 14.9773 74.2478 15.1485 75.0704 15.1485C75.893 15.1442 76.6036 14.9623 77.2 14.5986Z" fill="white"/>
<path d="M98.1732 9.94437C98.6965 10.6056 98.957 11.4401 98.957 12.4501C98.957 13.8025 98.4445 14.8404 97.4217 15.5679C96.3989 16.2955 94.9067 16.6592 92.9493 16.6592H85.4623V2.73733C85.4623 1.81505 86.2138 1.06824 87.1418 1.06824H92.4993C94.293 1.06824 95.6775 1.4256 96.6573 2.13817C97.6349 2.85074 98.1258 3.83936 98.1258 5.10187C98.1258 5.9193 97.9364 6.62331 97.5552 7.21819C97.1741 7.81307 96.6616 8.26458 96.0199 8.577C96.9329 8.82522 97.65 9.28315 98.1732 9.94437ZM87.706 2.87214V7.86229H92.3012C93.451 7.86229 94.336 7.65044 94.9583 7.22675C95.5785 6.80306 95.8886 6.18464 95.8886 5.36722C95.8886 4.54979 95.5785 3.92923 94.9583 3.50768C94.3382 3.08399 93.4532 2.87214 92.3012 2.87214H87.706ZM95.7292 14.2326C96.3709 13.8175 96.6939 13.1627 96.6939 12.2725C96.6939 10.535 95.417 9.66619 92.861 9.66619H87.706V14.8575H92.861C94.1315 14.8553 95.0875 14.6478 95.7292 14.2326Z" fill="white"/>
<path d="M101.461 3.27444C101.205 3.02621 101.078 2.72663 101.078 2.36928C101.078 2.01192 101.205 1.70806 101.461 1.45342C101.718 1.19878 102.038 1.07252 102.426 1.07252C102.811 1.07252 103.134 1.19236 103.389 1.43202C103.645 1.67168 103.772 1.97126 103.772 2.32862C103.772 2.69881 103.645 3.01123 103.389 3.26588C103.132 3.52052 102.811 3.64677 102.426 3.64677C102.036 3.64677 101.715 3.52266 101.461 3.27444ZM103.419 5.74597V14.682C103.419 15.7733 102.527 16.6592 101.429 16.6592V7.7232C101.429 6.63187 102.32 5.74597 103.419 5.74597Z" fill="white"/>
<path d="M112.18 14.9431C112.01 14.973 111.829 14.9901 111.644 14.9901C111.048 14.9901 110.589 14.819 110.266 14.4766C109.947 14.1363 109.784 13.6442 109.784 13.0065V6.61261H112.318L111.295 4.85365H109.786V2.27084C108.6 2.27084 107.635 3.22522 107.635 4.40856V4.85365H105.619V6.61261H107.635V13.0942C107.635 14.2819 107.966 15.1977 108.623 15.8354C109.052 16.2527 109.597 16.5308 110.253 16.6699C110.604 16.7512 110.985 16.7898 111.401 16.7898C111.896 16.7898 112.374 16.7192 112.837 16.5801C113.3 16.4367 113.69 16.2313 114 15.9659C113.69 15.264 112.943 14.8125 112.18 14.9431Z" fill="white"/>
<path d="M53.3608 16.6592H55.6541L47.3638 1.0661H46.7975C45.7316 1.0661 44.7497 1.63103 44.2157 2.54689L36.0181 16.6592H38.3135L40.5788 12.7604H51.3173L53.3608 16.6592ZM41.6167 10.9736L46.2247 3.04333L50.3828 10.9736H41.6167Z" fill="white"/>
<path d="M48.2533 27.7987C48.0865 27.6319 48.0239 27.4443 48.0239 27.2151C48.0239 26.9858 48.1074 26.7982 48.2533 26.6523C48.4202 26.5063 48.6079 26.423 48.8165 26.423C49.0459 26.423 49.2336 26.5063 49.3796 26.6523C49.5464 26.7982 49.609 27.0066 49.609 27.2151C49.609 27.4443 49.5256 27.6319 49.3796 27.7987C49.2127 27.9654 49.025 28.0488 48.8165 28.0488C48.587 28.028 48.3993 27.9654 48.2533 27.7987Z" fill="#15ADBC"/>
<path d="M56.8132 31.5001C56.2299 31.5001 55.6625 31.4165 55.1112 31.2494C54.5678 31.0902 54.1243 30.8593 53.7807 30.5569L54.332 29.6733C54.6277 29.928 54.9913 30.127 55.4228 30.2703C55.8543 30.4215 56.3058 30.4972 56.7773 30.4972C57.5284 30.4972 58.0798 30.322 58.4314 29.9718C58.783 29.6216 58.9588 29.0883 58.9588 28.3719V27.0346L59.0787 25.7809L59.0188 24.5153V22.7841H60.1095V28.2525C60.1095 29.3669 59.8298 30.1867 59.2705 30.7121C58.7111 31.2374 57.892 31.5001 56.8132 31.5001ZM56.6694 28.8495C56.0541 28.8495 55.5027 28.7221 55.0153 28.4674C54.5358 28.2047 54.1522 27.8425 53.8646 27.3809C53.5849 26.9192 53.445 26.3859 53.445 25.7809C53.445 25.168 53.5849 24.6347 53.8646 24.181C54.1522 23.7193 54.5358 23.3612 55.0153 23.1064C55.5027 22.8517 56.0541 22.7244 56.6694 22.7244C57.2128 22.7244 57.7082 22.8358 58.1557 23.0587C58.6032 23.2736 58.9588 23.6079 59.2225 24.0616C59.4942 24.5153 59.6301 25.0884 59.6301 25.7809C59.6301 26.4655 59.4942 27.0346 59.2225 27.4883C58.9588 27.942 58.6032 28.2843 58.1557 28.5152C57.7082 28.738 57.2128 28.8495 56.6694 28.8495ZM56.8013 27.8465C57.2248 27.8465 57.6004 27.759 57.928 27.5839C58.2556 27.4087 58.5113 27.166 58.6951 26.8555C58.8869 26.5451 58.9828 26.1869 58.9828 25.7809C58.9828 25.375 58.8869 25.0168 58.6951 24.7064C58.5113 24.3959 58.2556 24.1571 57.928 23.99C57.6004 23.8149 57.2248 23.7273 56.8013 23.7273C56.3777 23.7273 55.9982 23.8149 55.6625 23.99C55.3349 24.1571 55.0752 24.3959 54.8834 24.7064C54.6996 25.0168 54.6077 25.375 54.6077 25.7809C54.6077 26.1869 54.6996 26.5451 54.8834 26.8555C55.0752 27.166 55.3349 27.4087 55.6625 27.5839C55.9982 27.759 56.3777 27.8465 56.8013 27.8465Z" fill="#15ADBC"/>
<path d="M64.1062 29.1121V22.7841H65.2089V24.5034L65.101 24.0736C65.2768 23.6358 65.5725 23.3015 65.988 23.0706C66.4036 22.8398 66.915 22.7244 67.5223 22.7244V23.8348C67.4744 23.8268 67.4264 23.8228 67.3785 23.8228C67.3385 23.8228 67.2986 23.8228 67.2586 23.8228C66.6433 23.8228 66.1558 24.0059 65.7963 24.3721C65.4367 24.7382 65.2569 25.2675 65.2569 25.96V29.1121H64.1062Z" fill="#15ADBC"/>
<path d="M73.4009 29.1838C72.7616 29.1838 72.1943 29.0445 71.6988 28.7659C71.2034 28.4873 70.8118 28.1052 70.5242 27.6197C70.2365 27.1262 70.0927 26.569 70.0927 25.9481C70.0927 25.3193 70.2365 24.7621 70.5242 24.2765C70.8118 23.791 71.2034 23.4129 71.6988 23.1423C72.1943 22.8637 72.7616 22.7244 73.4009 22.7244C74.0322 22.7244 74.5956 22.8637 75.091 23.1423C75.5944 23.4129 75.986 23.791 76.2657 24.2765C76.5534 24.7541 76.6972 25.3113 76.6972 25.9481C76.6972 26.5769 76.5534 27.1341 76.2657 27.6197C75.986 28.1052 75.5944 28.4873 75.091 28.7659C74.5956 29.0445 74.0322 29.1838 73.4009 29.1838ZM73.4009 28.1808C73.8085 28.1808 74.172 28.0893 74.4917 27.9062C74.8193 27.7232 75.075 27.4645 75.2588 27.1301C75.4426 26.7879 75.5345 26.3939 75.5345 25.9481C75.5345 25.4944 75.4426 25.1044 75.2588 24.778C75.075 24.4437 74.8193 24.185 74.4917 24.0019C74.172 23.8188 73.8085 23.7273 73.4009 23.7273C72.9934 23.7273 72.6298 23.8188 72.3101 24.0019C71.9905 24.185 71.7348 24.4437 71.543 24.778C71.3512 25.1044 71.2553 25.4944 71.2553 25.9481C71.2553 26.3939 71.3512 26.7879 71.543 27.1301C71.7348 27.4645 71.9905 27.7232 72.3101 27.9062C72.6298 28.0893 72.9934 28.1808 73.4009 28.1808Z" fill="#15ADBC"/>
<path d="M82.7595 29.1838C82.2161 29.1838 81.7367 29.0843 81.3212 28.8853C80.9136 28.6863 80.594 28.3838 80.3622 27.9779C80.1385 27.564 80.0266 27.0466 80.0266 26.4257V22.7841H81.1773V26.2944C81.1773 26.9152 81.3251 27.3809 81.6208 27.6913C81.9245 28.0017 82.348 28.157 82.8914 28.157C83.2909 28.157 83.6385 28.0774 83.9342 27.9182C84.2299 27.751 84.4576 27.5122 84.6174 27.2018C84.7773 26.8834 84.8572 26.5013 84.8572 26.0556V22.7841H86.0079V29.1121H84.9171V27.4048L85.0969 27.8585C84.8891 28.2803 84.5775 28.6067 84.1619 28.8375C83.7464 29.0684 83.2789 29.1838 82.7595 29.1838Z" fill="#15ADBC"/>
<path d="M93.3646 29.1838C92.8372 29.1838 92.3538 29.0644 91.9143 28.8256C91.4828 28.5788 91.1352 28.2167 90.8715 27.7391C90.6158 27.2615 90.4879 26.6645 90.4879 25.9481C90.4879 25.2317 90.6118 24.6347 90.8595 24.1571C91.1152 23.6795 91.4588 23.3214 91.8903 23.0826C92.3298 22.8438 92.8213 22.7244 93.3646 22.7244C93.9879 22.7244 94.5393 22.8597 95.0188 23.1303C95.4982 23.401 95.8778 23.779 96.1575 24.2646C96.4372 24.7422 96.577 25.3034 96.577 25.9481C96.577 26.5929 96.4372 27.158 96.1575 27.6436C95.8778 28.1291 95.4982 28.5072 95.0188 28.7778C94.5393 29.0485 93.9879 29.1838 93.3646 29.1838ZM89.9965 31.4285V22.7841H91.0992V24.4915L91.0273 25.96L91.1472 27.4286V31.4285H89.9965ZM93.2688 28.1808C93.6763 28.1808 94.0399 28.0893 94.3595 27.9062C94.6872 27.7232 94.9429 27.4645 95.1267 27.1301C95.3184 26.7879 95.4143 26.3939 95.4143 25.9481C95.4143 25.4944 95.3184 25.1044 95.1267 24.778C94.9429 24.4437 94.6872 24.185 94.3595 24.0019C94.0399 23.8188 93.6763 23.7273 93.2688 23.7273C92.8692 23.7273 92.5056 23.8188 92.178 24.0019C91.8583 24.185 91.6026 24.4437 91.4109 24.778C91.2271 25.1044 91.1352 25.4944 91.1352 25.9481C91.1352 26.3939 91.2271 26.7879 91.4109 27.1301C91.6026 27.4645 91.8583 27.7232 92.178 27.9062C92.5056 28.0893 92.8692 28.1808 93.2688 28.1808Z" fill="#15ADBC"/>
<path d="M100.638 27.7987C100.471 27.6319 100.409 27.4443 100.409 27.2151C100.409 26.9858 100.492 26.7982 100.638 26.6523C100.805 26.5063 100.993 26.423 101.201 26.423C101.431 26.423 101.618 26.5063 101.764 26.6523C101.931 26.7982 101.994 27.0066 101.994 27.2151C101.994 27.4443 101.91 27.6319 101.764 27.7987C101.598 27.9654 101.41 28.0488 101.201 28.0488C100.972 28.028 100.784 27.9654 100.638 27.7987Z" fill="#15ADBC"/>
<path d="M25.3564 25.8214H0L13.7741 2.07013C14.334 1.11499 15.3418 0.494141 16.4617 0.494141H16.4777C16.8616 0.494141 17.2456 0.51006 17.6295 0.525979L4.41538 23.3062H23.9006L25.3564 25.8214Z" fill="white"/>
<path d="M31.0516 29.1008H3.4715C2.33566 29.1008 1.27981 28.4799 0.719886 27.4929C0.543911 27.1905 0.383933 26.8721 0.223956 26.5537H26.6522L16.8936 9.75906L18.3494 7.24384L31.0516 29.1008Z" fill="white"/>
<path d="M32.1395 27.6521C31.9635 27.9546 31.7715 28.257 31.5796 28.5436L18.3654 5.77928L8.62282 22.5739H5.69523L18.3814 0.717007L32.1715 24.4683C32.7474 25.4553 32.7154 26.6651 32.1395 27.6521Z" fill="white"/>
</svg>
