<svg width="48" height="48" viewBox="0 0 48 48" fill="none" xmlns="http://www.w3.org/2000/svg">
<rect width="48" height="48" rx="16" fill="url(#paint0_linear_2090_4509)"/>
<path d="M32.0126 33.7353L9.59961 33.741L21.7727 12.7443C22.2642 11.8996 23.161 11.3555 24.1439 11.3555H24.1592C24.5015 11.3555 24.838 11.365 25.1746 11.3878L13.5024 31.515H30.7257L32.0126 33.7353Z" fill="white"/>
<path d="M37.042 36.6391L12.6728 36.6448C11.6631 36.6448 10.7376 36.0968 10.2347 35.2217C10.0779 34.9496 9.93065 34.6737 9.79297 34.3921L33.1506 34.3864L24.538 19.5465L25.8268 17.3262L37.042 36.6391Z" fill="white"/>
<path d="M38.0097 35.3479C37.851 35.6162 37.6865 35.8825 37.5106 36.1413L25.8251 16.0198L17.2144 30.8617H14.6387L25.8404 11.5469L38.0288 32.5359C38.5356 33.4073 38.5203 34.4784 38.0097 35.3479Z" fill="white"/>
<defs>
<linearGradient id="paint0_linear_2090_4509" x1="24.0081" y1="46.8123" x2="24.0081" y2="-15.2133" gradientUnits="userSpaceOnUse">
<stop stop-color="#00272B"/>
<stop offset="1" stop-color="#15ADBC"/>
</linearGradient>
</defs>
</svg>
