<svg width="114" height="32" viewBox="0 0 114 32" fill="none" xmlns="http://www.w3.org/2000/svg">
<path d="M57.0584 27.7995C56.8913 27.6328 56.8286 27.4452 56.8286 27.2159C56.8286 26.9866 56.9122 26.799 57.0584 26.6531C57.2255 26.5072 57.4135 26.4238 57.6224 26.4238C57.8522 26.4238 58.0402 26.5072 58.1865 26.6531C58.3536 26.799 58.4163 27.0075 58.4163 27.2159C58.4163 27.4452 58.3327 27.6328 58.1865 27.7995C58.0194 27.9663 57.8313 28.0497 57.6224 28.0497C57.3926 28.0288 57.2046 27.9663 57.0584 27.7995Z" fill="#E5397B"/>
<path d="M66.7164 29.1846C66.1881 29.1846 65.7039 29.0652 65.2637 28.8264C64.8315 28.5797 64.4833 28.2175 64.2192 27.7399C63.963 27.2623 63.835 26.6653 63.835 25.949C63.835 25.2326 63.959 24.6356 64.2072 24.158C64.4633 23.6804 64.8075 23.3222 65.2397 23.0834C65.6799 22.8446 66.1721 22.7252 66.7164 22.7252C67.3407 22.7252 67.893 22.8605 68.3732 23.1312C68.8535 23.4018 69.2337 23.7799 69.5138 24.2655C69.794 24.743 69.934 25.3042 69.934 25.949C69.934 26.5937 69.794 27.1589 69.5138 27.6444C69.2337 28.13 68.8535 28.5081 68.3732 28.7787C67.893 29.0493 67.3407 29.1846 66.7164 29.1846ZM63.3427 31.4293V22.7849H64.4473V24.4923L64.3752 25.9609L64.4953 27.4295V31.4293H63.3427ZM66.6204 28.1817C67.0286 28.1817 67.3927 28.0902 67.7129 27.9071C68.0411 27.724 68.2972 27.4653 68.4813 27.131C68.6734 26.7887 68.7694 26.3947 68.7694 25.949C68.7694 25.4952 68.6734 25.1052 68.4813 24.7789C68.2972 24.4445 68.0411 24.1859 67.7129 24.0028C67.3927 23.8197 67.0286 23.7282 66.6204 23.7282C66.2202 23.7282 65.856 23.8197 65.5278 24.0028C65.2077 24.1859 64.9515 24.4445 64.7594 24.7789C64.5753 25.1052 64.4833 25.4952 64.4833 25.949C64.4833 26.3947 64.5753 26.7887 64.7594 27.131C64.9515 27.4653 65.2077 27.724 65.5278 27.9071C65.856 28.0902 66.2202 28.1817 66.6204 28.1817Z" fill="#E5397B"/>
<path d="M77.2188 29.113V27.7757L77.1587 27.525V25.2445C77.1587 24.759 77.0147 24.3848 76.7265 24.1222C76.4464 23.8515 76.0222 23.7162 75.4539 23.7162C75.0777 23.7162 74.7095 23.7799 74.3493 23.9073C73.9891 24.0267 73.685 24.1898 73.4369 24.3968L72.9566 23.5371C73.2848 23.2744 73.677 23.0755 74.1332 22.9401C74.5975 22.7969 75.0817 22.7252 75.5859 22.7252C76.4584 22.7252 77.1307 22.9362 77.603 23.358C78.0752 23.7799 78.3113 24.4246 78.3113 25.2923V29.113H77.2188ZM75.1297 29.1846C74.6575 29.1846 74.2413 29.105 73.8811 28.9458C73.5289 28.7866 73.2568 28.5678 73.0647 28.2892C72.8726 28.0026 72.7765 27.6802 72.7765 27.322C72.7765 26.9798 72.8566 26.6693 73.0167 26.3907C73.1847 26.1121 73.4529 25.8893 73.8211 25.7221C74.1973 25.5549 74.7015 25.4714 75.3338 25.4714H77.3508V26.2952H75.3818C74.8056 26.2952 74.4174 26.3907 74.2173 26.5818C74.0172 26.7728 73.9171 27.0036 73.9171 27.2743C73.9171 27.5847 74.0412 27.8354 74.2893 28.0265C74.5374 28.2096 74.8816 28.3011 75.3218 28.3011C75.754 28.3011 76.1302 28.2056 76.4504 28.0145C76.7785 27.8235 77.0147 27.5449 77.1587 27.1788L77.3869 27.9668C77.2348 28.3409 76.9666 28.6394 76.5824 28.8623C76.1983 29.0772 75.714 29.1846 75.1297 29.1846Z" fill="#E5397B"/>
<path d="M82.4041 31.501C82.0999 31.501 81.8038 31.4492 81.5156 31.3457C81.2275 31.2502 80.9793 31.1069 80.7712 30.9159L81.2635 30.0562C81.4236 30.2075 81.5997 30.3229 81.7917 30.4025C81.9838 30.4821 82.1879 30.5219 82.4041 30.5219C82.6842 30.5219 82.9163 30.4503 83.1004 30.307C83.2845 30.1637 83.4566 29.909 83.6167 29.5428L84.0129 28.6712L84.1329 28.528L86.6302 22.7849H87.7587L84.6732 29.7458C84.4891 30.1916 84.281 30.5418 84.0489 30.7965C83.8248 31.0512 83.5766 31.2303 83.3045 31.3338C83.0324 31.4452 82.7322 31.501 82.4041 31.501ZM83.9168 29.316L81.0114 22.7849H82.212L84.6852 28.4205L83.9168 29.316Z" fill="#E5397B"/>
<path d="M91.8055 27.7995C91.6384 27.6328 91.5758 27.4452 91.5758 27.2159C91.5758 26.9866 91.6593 26.799 91.8055 26.6531C91.9727 26.5072 92.1607 26.4238 92.3696 26.4238C92.5994 26.4238 92.7874 26.5072 92.9336 26.6531C93.1007 26.799 93.1634 27.0075 93.1634 27.2159C93.1634 27.4452 93.0798 27.6328 92.9336 27.7995C92.7665 27.9663 92.5785 28.0497 92.3696 28.0497C92.1398 28.0288 91.9518 27.9663 91.8055 27.7995Z" fill="#E5397B"/>
<path d="M59.8508 1.19491V14.6653C59.8508 15.7716 58.9486 16.6682 57.8354 16.6682V3.19782C57.8375 2.09151 58.7397 1.19491 59.8508 1.19491Z" fill="white"/>
<path d="M65.7035 4.6572V5.61586H68.9356V7.26354H65.7466V14.6653C65.7466 15.7716 64.8444 16.6661 63.7333 16.6661V7.26354H61.8448V5.61586H63.7333V4.6358C63.7333 3.53805 64.0541 2.66927 64.6979 2.02946C65.3418 1.38964 66.244 1.0708 67.4046 1.0708C67.8525 1.0708 68.2724 1.12644 68.6643 1.23771C69.0562 1.34898 69.3921 1.50947 69.6721 1.71704L69.0648 3.23847C68.604 2.89182 68.0851 2.71635 67.5123 2.71635C66.3043 2.71849 65.7035 3.36473 65.7035 4.6572Z" fill="white"/>
<path d="M79.3404 5.95181C80.2147 6.75426 80.6518 7.9483 80.6518 9.53821V14.6396C80.6518 15.7588 79.7388 16.6661 78.6126 16.6661V15.1061C78.253 15.6561 77.7427 16.0755 77.0773 16.3644C76.4119 16.6532 75.6238 16.7987 74.713 16.7987C73.3822 16.7987 72.3185 16.4799 71.5196 15.8401C70.7207 15.2024 70.3202 14.3636 70.3202 13.3236C70.3202 12.2836 70.7014 11.4491 71.4636 10.8178C72.2259 10.1866 73.4361 9.87203 75.0941 9.87203H78.5006V9.44834C78.5006 8.5282 78.2315 7.82205 77.6931 7.33202C77.1548 6.84199 76.3624 6.59805 75.318 6.59805C74.6161 6.59805 73.9292 6.7136 73.2552 6.94256C72.5833 7.17367 72.0149 7.48181 71.5519 7.86698C70.9899 6.86339 71.483 5.60515 72.5747 5.22854C72.6652 5.19644 72.7578 5.16648 72.8503 5.13867C73.7031 4.87974 74.6053 4.74921 75.5635 4.74921C77.2065 4.74921 78.4662 5.14937 79.3404 5.95181ZM77.2 14.6054C77.7965 14.2416 78.2315 13.7259 78.5006 13.0583V11.4106H75.1824C73.3585 11.4106 72.4477 12.0204 72.4477 13.238C72.4477 13.8329 72.6802 14.2994 73.1432 14.6418C73.6062 14.9841 74.2478 15.1553 75.0704 15.1553C75.893 15.1511 76.6036 14.9692 77.2 14.6054Z" fill="white"/>
<path d="M98.1732 9.9512C98.6965 10.6124 98.957 11.447 98.957 12.457C98.957 13.8094 98.4445 14.8472 97.4217 15.5747C96.3989 16.3023 94.9067 16.6661 92.9493 16.6661H85.4623V2.74417C85.4623 1.82189 86.2138 1.07508 87.1418 1.07508H92.4993C94.293 1.07508 95.6775 1.43244 96.6573 2.14501C97.6349 2.85758 98.1258 3.84619 98.1258 5.10871C98.1258 5.92613 97.9364 6.63015 97.5552 7.22503C97.1741 7.81991 96.6616 8.27142 96.0199 8.58384C96.9329 8.83206 97.65 9.28999 98.1732 9.9512ZM87.706 2.87898V7.86912H92.3012C93.451 7.86912 94.336 7.65728 94.9583 7.23359C95.5785 6.80989 95.8886 6.19148 95.8886 5.37405C95.8886 4.55663 95.5785 3.93607 94.9583 3.51452C94.3382 3.09082 93.4532 2.87898 92.3012 2.87898H87.706ZM95.7292 14.2395C96.3709 13.8243 96.6939 13.1695 96.6939 12.2794C96.6939 10.5418 95.417 9.67302 92.861 9.67302H87.706V14.8643H92.861C94.1315 14.8622 95.0875 14.6546 95.7292 14.2395Z" fill="white"/>
<path d="M101.461 3.28127C101.205 3.03305 101.078 2.73347 101.078 2.37611C101.078 2.01876 101.205 1.7149 101.461 1.46025C101.718 1.20561 102.038 1.07936 102.426 1.07936C102.811 1.07936 103.134 1.19919 103.389 1.43886C103.645 1.67852 103.772 1.9781 103.772 2.33546C103.772 2.70565 103.645 3.01807 103.389 3.27271C103.132 3.52736 102.811 3.65361 102.426 3.65361C102.036 3.65361 101.715 3.5295 101.461 3.28127ZM103.419 5.75281V14.6888C103.419 15.7802 102.527 16.6661 101.429 16.6661V7.73003C101.429 6.63871 102.32 5.75281 103.419 5.75281Z" fill="white"/>
<path d="M112.18 14.9499C112.01 14.9799 111.829 14.997 111.644 14.997C111.048 14.997 110.589 14.8258 110.266 14.4834C109.947 14.1432 109.784 13.651 109.784 13.0133V6.61945H112.318L111.295 4.86049H109.786V2.27768C108.6 2.27768 107.635 3.23205 107.635 4.4154V4.86049H105.619V6.61945H107.635V13.1011C107.635 14.2887 107.966 15.2045 108.623 15.8422C109.052 16.2595 109.597 16.5377 110.253 16.6768C110.604 16.7581 110.985 16.7966 111.401 16.7966C111.896 16.7966 112.374 16.726 112.837 16.5869C113.3 16.4435 113.69 16.2381 114 15.9728C113.69 15.2709 112.943 14.8194 112.18 14.9499Z" fill="white"/>
<path d="M53.3608 16.6661H55.6541L47.3638 1.07294H46.7975C45.7316 1.07294 44.7497 1.63786 44.2157 2.55372L36.0181 16.6661H38.3135L40.5788 12.7673H51.3173L53.3608 16.6661ZM41.6167 10.9805L46.2247 3.05017L50.3828 10.9805H41.6167Z" fill="white"/>
<path d="M25.3564 25.8283H0L13.7741 2.07697C14.334 1.12182 15.3418 0.500977 16.4617 0.500977H16.4777C16.8616 0.500977 17.2456 0.516896 17.6295 0.532815L4.41538 23.313H23.9006L25.3564 25.8283Z" fill="white"/>
<path d="M31.0516 29.1076H3.4715C2.33566 29.1076 1.27981 28.4868 0.719886 27.4998C0.543911 27.1973 0.383933 26.8789 0.223956 26.5605H26.6522L16.8936 9.76589L18.3494 7.25067L31.0516 29.1076Z" fill="white"/>
<path d="M32.1395 27.659C31.9635 27.9614 31.7715 28.2639 31.5796 28.5504L18.3654 5.78612L8.62282 22.5808H5.69523L18.3814 0.723843L32.1715 24.4751C32.7474 25.4621 32.7154 26.672 32.1395 27.659Z" fill="white"/>
</svg>
