<svg width="114" height="32" viewBox="0 0 114 32" fill="none" xmlns="http://www.w3.org/2000/svg">
<path d="M47.4534 28.2378C47.2863 28.0706 47.2236 27.8826 47.2236 27.6528C47.2236 27.423 47.3072 27.235 47.4534 27.0887C47.6205 26.9425 47.8086 26.8589 48.0175 26.8589C48.2473 26.8589 48.4353 26.9425 48.5815 27.0887C48.7486 27.235 48.8113 27.4439 48.8113 27.6528C48.8113 27.8826 48.7277 28.0706 48.5815 28.2378C48.4144 28.4049 48.2264 28.4885 48.0175 28.4885C47.7877 28.4676 47.5997 28.4049 47.4534 28.2378Z" fill="#C23DE2"/>
<path d="M54.7005 31.3777L52.3353 25.0353H53.4279L55.5289 30.7794H55.0127L57.1978 25.0353H58.1703L60.3073 30.7794H59.8031L61.9522 25.0353H62.9847L60.6075 31.3777H59.5029L57.4979 26.1362H57.8341L55.8051 31.3777H54.7005Z" fill="#C23DE2"/>
<path d="M69.7058 31.3777V30.0374L69.6458 29.7861V27.5005C69.6458 27.0138 69.5017 26.6388 69.2135 26.3756C68.9334 26.1043 68.5092 25.9687 67.9409 25.9687C67.5647 25.9687 67.1965 26.0325 66.8364 26.1602C66.4762 26.2798 66.172 26.4434 65.9239 26.6508L65.4437 25.7892C65.7718 25.5259 66.164 25.3265 66.6202 25.1908C67.0845 25.0472 67.5687 24.9754 68.073 24.9754C68.9454 24.9754 69.6177 25.1869 70.09 25.6097C70.5622 26.0325 70.7983 26.6787 70.7983 27.5483V31.3777H69.7058ZM67.6167 31.4495C67.1445 31.4495 66.7283 31.3698 66.3681 31.2102C66.0159 31.0506 65.7438 30.8313 65.5517 30.552C65.3596 30.2648 65.2636 29.9417 65.2636 29.5827C65.2636 29.2397 65.3436 28.9285 65.5037 28.6493C65.6718 28.3701 65.9399 28.1467 66.3081 27.9791C66.6843 27.8116 67.1885 27.7278 67.8208 27.7278H69.8379V28.5535H67.8689C67.2926 28.5535 66.9044 28.6493 66.7043 28.8408C66.5042 29.0322 66.4041 29.2636 66.4041 29.5348C66.4041 29.846 66.5282 30.0973 66.7763 30.2888C67.0244 30.4722 67.3686 30.564 67.8088 30.564C68.2411 30.564 68.6172 30.4683 68.9374 30.2768C69.2656 30.0853 69.5017 29.8061 69.6458 29.4391L69.8739 30.2289C69.7218 30.6039 69.4537 30.9031 69.0695 31.1264C68.6853 31.3418 68.201 31.4495 67.6167 31.4495Z" fill="#C23DE2"/>
<path d="M74.7322 31.3777V22.4983H75.8848V31.3777H74.7322Z" fill="#C23DE2"/>
<path d="M79.8863 31.3777V22.4983H81.0389V31.3777H79.8863Z" fill="#C23DE2"/>
<path d="M87.8739 31.4495C87.1936 31.4495 86.5933 31.3099 86.073 31.0307C85.5607 30.7515 85.1605 30.3685 84.8724 29.8819C84.5923 29.3952 84.4522 28.8368 84.4522 28.2065C84.4522 27.5763 84.5883 27.0178 84.8604 26.5311C85.1405 26.0445 85.5207 25.6655 86.001 25.3943C86.4892 25.1151 87.0375 24.9754 87.6458 24.9754C88.2621 24.9754 88.8064 25.1111 89.2786 25.3823C89.7508 25.6536 90.119 26.0365 90.3832 26.5311C90.6553 27.0178 90.7914 27.5882 90.7914 28.2424C90.7914 28.2903 90.7874 28.3461 90.7794 28.4099C90.7794 28.4738 90.7754 28.5336 90.7673 28.5894H85.3526V27.7637H90.167L89.6988 28.0509C89.7068 27.6441 89.6228 27.2811 89.4467 26.9619C89.2706 26.6428 89.0265 26.3955 88.7143 26.22C88.4102 26.0365 88.054 25.9448 87.6458 25.9448C87.2456 25.9448 86.8894 26.0365 86.5772 26.22C86.2651 26.3955 86.021 26.6468 85.8449 26.9739C85.6688 27.293 85.5807 27.66 85.5807 28.0749V28.2663C85.5807 28.6892 85.6768 29.0681 85.8689 29.4032C86.069 29.7303 86.3451 29.9856 86.6973 30.1691C87.0495 30.3526 87.4537 30.4443 87.9099 30.4443C88.2861 30.4443 88.6263 30.3805 88.9304 30.2528C89.2426 30.1252 89.5147 29.9337 89.7468 29.6784L90.3832 30.4204C90.095 30.7555 89.7348 31.0108 89.3026 31.1863C88.8784 31.3618 88.4022 31.4495 87.8739 31.4495Z" fill="#C23DE2"/>
<path d="M96.3778 31.4495C95.7375 31.4495 95.2412 31.278 94.8891 30.935C94.5369 30.5919 94.3608 30.1013 94.3608 29.463V23.6471H95.5134V29.4152C95.5134 29.7582 95.5974 30.0215 95.7655 30.205C95.9416 30.3885 96.1897 30.4802 96.5099 30.4802C96.8701 30.4802 97.1702 30.3805 97.4103 30.181L97.7705 31.0068C97.5944 31.1583 97.3823 31.27 97.1342 31.3418C96.8941 31.4136 96.6419 31.4495 96.3778 31.4495ZM93.2803 25.9807V25.0353H97.3383V25.9807H93.2803Z" fill="#C23DE2"/>
<path d="M100.838 28.2378C100.671 28.0706 100.609 27.8826 100.609 27.6528C100.609 27.423 100.692 27.235 100.838 27.0887C101.006 26.9425 101.194 26.8589 101.403 26.8589C101.632 26.8589 101.82 26.9425 101.967 27.0887C102.134 27.235 102.196 27.4439 102.196 27.6528C102.196 27.8826 102.113 28.0706 101.967 28.2378C101.799 28.4049 101.611 28.4885 101.403 28.4885C101.173 28.4676 100.985 28.4049 100.838 28.2378Z" fill="#C23DE2"/>
<path d="M59.8508 1.19589V14.6663C59.8508 15.7726 58.9486 16.6692 57.8354 16.6692V3.19879C57.8375 2.09249 58.7397 1.19589 59.8508 1.19589Z" fill="white"/>
<path d="M65.7035 4.65818V5.61683H68.9356V7.26452H65.7466V14.6663C65.7466 15.7726 64.8444 16.667 63.7333 16.667V7.26452H61.8448V5.61683H63.7333V4.63678C63.7333 3.53903 64.0541 2.67025 64.6979 2.03043C65.3418 1.39062 66.244 1.07178 67.4046 1.07178C67.8525 1.07178 68.2724 1.12741 68.6643 1.23869C69.0562 1.34996 69.3921 1.51045 69.6721 1.71801L69.0648 3.23945C68.604 2.89279 68.0851 2.71733 67.5123 2.71733C66.3043 2.71947 65.7035 3.3657 65.7035 4.65818Z" fill="white"/>
<path d="M79.3404 5.95279C80.2147 6.75523 80.6518 7.94927 80.6518 9.53919V14.6406C80.6518 15.7597 79.7388 16.667 78.6126 16.667V15.1071C78.253 15.657 77.7427 16.0764 77.0773 16.3653C76.4119 16.6542 75.6238 16.7997 74.713 16.7997C73.3822 16.7997 72.3185 16.4809 71.5196 15.8411C70.7207 15.2034 70.3202 14.3646 70.3202 13.3246C70.3202 12.2846 70.7014 11.4501 71.4636 10.8188C72.2259 10.1876 73.4361 9.873 75.0941 9.873H78.5006V9.44931C78.5006 8.52918 78.2315 7.82302 77.6931 7.333C77.1548 6.84297 76.3624 6.59903 75.318 6.59903C74.6161 6.59903 73.9292 6.71458 73.2552 6.94354C72.5833 7.17465 72.0149 7.48279 71.5519 7.86796C70.9899 6.86437 71.483 5.60613 72.5747 5.22952C72.6652 5.19742 72.7578 5.16746 72.8503 5.13964C73.7031 4.88072 74.6053 4.75019 75.5635 4.75019C77.2065 4.75019 78.4662 5.15034 79.3404 5.95279ZM77.2 14.6064C77.7965 14.2426 78.2315 13.7269 78.5006 13.0593V11.4116H75.1824C73.3585 11.4116 72.4477 12.0214 72.4477 13.239C72.4477 13.8339 72.6802 14.3004 73.1432 14.6427C73.6062 14.9851 74.2478 15.1563 75.0704 15.1563C75.893 15.152 76.6036 14.9701 77.2 14.6064Z" fill="white"/>
<path d="M98.1732 9.95218C98.6965 10.6134 98.957 11.4479 98.957 12.458C98.957 13.8103 98.4445 14.8482 97.4217 15.5757C96.3989 16.3033 94.9067 16.667 92.9493 16.667H85.4623V2.74514C85.4623 1.82287 86.2138 1.07606 87.1418 1.07606H92.4993C94.293 1.07606 95.6775 1.43341 96.6573 2.14599C97.6349 2.85856 98.1258 3.84717 98.1258 5.10969C98.1258 5.92711 97.9364 6.63112 97.5552 7.226C97.1741 7.82088 96.6616 8.27239 96.0199 8.58481C96.9329 8.83304 97.65 9.29097 98.1732 9.95218ZM87.706 2.87996V7.8701H92.3012C93.451 7.8701 94.336 7.65825 94.9583 7.23456C95.5785 6.81087 95.8886 6.19245 95.8886 5.37503C95.8886 4.5576 95.5785 3.93704 94.9583 3.51549C94.3382 3.0918 93.4532 2.87996 92.3012 2.87996H87.706ZM95.7292 14.2405C96.3709 13.8253 96.6939 13.1705 96.6939 12.2803C96.6939 10.5428 95.417 9.674 92.861 9.674H87.706V14.8653H92.861C94.1315 14.8631 95.0875 14.6556 95.7292 14.2405Z" fill="white"/>
<path d="M101.461 3.28225C101.205 3.03403 101.078 2.73445 101.078 2.37709C101.078 2.01973 101.205 1.71587 101.461 1.46123C101.718 1.20659 102.038 1.08034 102.426 1.08034C102.811 1.08034 103.134 1.20017 103.389 1.43983C103.645 1.6795 103.772 1.97908 103.772 2.33643C103.772 2.70663 103.645 3.01905 103.389 3.27369C103.132 3.52833 102.811 3.65458 102.426 3.65458C102.036 3.65458 101.715 3.53047 101.461 3.28225ZM103.419 5.75378V14.6898C103.419 15.7811 102.527 16.667 101.429 16.667V7.73101C101.429 6.63968 102.32 5.75378 103.419 5.75378Z" fill="white"/>
<path d="M112.18 14.9509C112.01 14.9808 111.829 14.998 111.644 14.998C111.048 14.998 110.589 14.8268 110.266 14.4844C109.947 14.1442 109.784 13.652 109.784 13.0143V6.62042H112.318L111.295 4.86146H109.786V2.27866C108.6 2.27866 107.635 3.23303 107.635 4.41637V4.86146H105.619V6.62042H107.635V13.102C107.635 14.2897 107.966 15.2055 108.623 15.8432C109.052 16.2605 109.596 16.5387 110.253 16.6777C110.604 16.7591 110.985 16.7976 111.401 16.7976C111.896 16.7976 112.374 16.727 112.837 16.5879C113.3 16.4445 113.69 16.2391 114 15.9737C113.69 15.2719 112.943 14.8204 112.18 14.9509Z" fill="white"/>
<path d="M53.3608 16.667H55.6541L47.3638 1.07392H46.7975C45.7316 1.07392 44.7497 1.63884 44.2157 2.5547L36.0181 16.667H38.3135L40.5788 12.7682H51.3173L53.3608 16.667ZM41.6167 10.9815L46.2247 3.05114L50.3828 10.9815H41.6167Z" fill="white"/>
<path d="M25.3564 25.8292H0L13.7741 2.07794C14.334 1.1228 15.3418 0.501953 16.4617 0.501953H16.4777C16.8616 0.501953 17.2456 0.517872 17.6295 0.533791L4.41538 23.314H23.9006L25.3564 25.8292Z" fill="white"/>
<path d="M31.0516 29.1086H3.4715C2.33566 29.1086 1.27981 28.4877 0.719886 27.5007C0.543911 27.1983 0.383933 26.8799 0.223956 26.5615H26.6522L16.8936 9.76687L18.3494 7.25165L31.0516 29.1086Z" fill="white"/>
<path d="M32.1395 27.6599C31.9635 27.9624 31.7715 28.2649 31.5796 28.5514L18.3654 5.78709L8.62282 22.5817H5.69523L18.3814 0.724819L32.1715 24.4761C32.7474 25.4631 32.7154 26.673 32.1395 27.6599Z" fill="white"/>
</svg>
