<svg width="40" height="40" viewBox="0 0 40 40" fill="none" xmlns="http://www.w3.org/2000/svg">
<rect width="40" height="40" rx="16" fill="url(#paint0_linear_7285_25582)"/>
<path d="M26.6775 28.1127L8 28.1175L18.1443 10.6203C18.5538 9.91633 19.3012 9.46289 20.1202 9.46289H20.133C20.4182 9.46289 20.6987 9.47082 20.9791 9.48984L11.2523 26.2625H25.6051L26.6775 28.1127Z" fill="white"/>
<path d="M30.8686 30.5325L10.561 30.5373C9.71958 30.5373 8.94833 30.0807 8.52923 29.3514C8.39857 29.1247 8.27587 28.8948 8.16113 28.6601L27.6258 28.6554L20.4487 16.2887L21.5227 14.4385L30.8686 30.5325Z" fill="white"/>
<path d="M31.6751 29.4563C31.5428 29.6798 31.4058 29.9018 31.2592 30.1174L21.5212 13.3495L14.3457 25.7177H12.1992L21.534 9.62207L31.691 27.1129C32.1133 27.8391 32.1005 28.7317 31.6751 29.4563Z" fill="white"/>
<defs>
<linearGradient id="paint0_linear_7285_25582" x1="20.0006" y1="40.4524" x2="20.0006" y2="0.132898" gradientUnits="userSpaceOnUse">
<stop stop-color="#3C0038"/>
<stop offset="1" stop-color="#B26EED"/>
</linearGradient>
</defs>
</svg>
