<svg width="169" height="44" viewBox="0 0 169 44" fill="none" xmlns="http://www.w3.org/2000/svg">
<g clip-path="url(#clip0_1347_94107)">
<path d="M7.7 17.3499L3.9 21.2499L0 17.3499L3.9 13.4499L7.7 17.3499ZM17 7.9499L23.6 14.6499L27.5 10.7499L17 0.149902L6.6 10.7499L10.5 14.6499L17 7.9499ZM30.1 13.4499L26.3 17.3499L30.2 21.2499L34 17.3499L30.1 13.4499ZM17 26.8499L10.4 20.1499L6.5 24.0499L17 34.5499L27.4 23.9499L23.6 20.1499L17 26.8499ZM17 21.2499L20.9 17.3499L17 13.4499L13.1 17.3499L17 21.2499ZM57.5 21.6499C57.5 19.0499 56.2 17.7499 54 16.9499C55.3 16.2499 56.5 14.9499 56.5 12.8499V12.7499C56.5 9.7499 54.1 7.8499 50.4 7.8499H41.7V26.7499H50.6C54.7 26.8499 57.5 25.0499 57.5 21.6499ZM52.4 13.5499C52.4 14.9499 51.3 15.5499 49.4 15.5499H45.6V11.5499H49.6C51.4 11.5499 52.4 12.2499 52.4 13.5499ZM53.4 21.1499C53.4 22.5499 52.3 23.2499 50.5 23.2499H45.6V19.1499H50.3C52.5 19.0499 53.4 19.7499 53.4 21.1499ZM66.1 26.8499V7.9499H62V26.8499H66.1ZM88.1 26.8499V7.9499H84V19.5499L75.3 7.9499H71.5V26.8499H75.5V14.8499L84.5 26.8499H88.1ZM110.8 26.8499L102.8 7.8499H99L91 26.8499H95.2L96.9 22.6499H104.8L106.5 26.8499H110.8ZM103.4 18.9499H98.5L101 12.8499L103.4 18.9499ZM130.4 26.8499V7.9499H126.4V19.5499L117.7 7.9499H113.9V26.8499H118V14.8499L127 26.8499H130.4ZM151.5 23.7499L148.9 21.0499C147.4 22.3499 146.1 23.2499 144 23.2499C140.8 23.2499 138.6 20.5499 138.6 17.3499V17.2499C138.6 14.0499 140.9 11.3499 144 11.3499C145.9 11.3499 147.3 12.1499 148.8 13.4499L151.4 10.3499C149.7 8.6499 147.6 7.4499 144.1 7.4499C138.4 7.4499 134.4 11.8499 134.4 17.2499V17.3499C134.4 22.7499 138.5 27.0499 144 27.0499C147.5 27.1499 149.6 25.8499 151.5 23.7499ZM169 26.8499V23.1499H158.9V19.1499H167.7V15.4499H158.9V11.6499H168.9V7.9499H154.9V26.8499H169Z" fill="#797979"/>
<path d="M41.7998 43.75V31.95H47.2998C48.6998 31.95 49.7998 32.25 50.4998 32.75C51.1998 33.25 51.5998 34.05 51.5998 34.95C51.5998 35.55 51.4998 36.15 51.1998 36.55C50.8998 36.95 50.4998 37.35 49.9998 37.55C49.4998 37.75 48.9998 37.95 48.3998 37.95L48.6998 37.35C49.3998 37.35 49.9998 37.45 50.4998 37.75C50.9998 37.95 51.3998 38.35 51.6998 38.85C51.9998 39.35 52.1998 39.85 52.1998 40.55C52.1998 41.55 51.7998 42.35 50.9998 42.95C50.1998 43.55 49.0998 43.75 47.5998 43.75H41.7998ZM43.9998 42.05H47.5998C48.3998 42.05 48.9998 41.95 49.4998 41.65C49.8998 41.35 50.1998 40.95 50.1998 40.35C50.1998 39.75 49.9998 39.35 49.4998 39.05C49.0998 38.75 48.3998 38.65 47.5998 38.65H43.8998V36.95H47.1998C47.9998 36.95 48.4998 36.85 48.9998 36.55C49.3998 36.25 49.5998 35.85 49.5998 35.35C49.5998 34.75 49.3998 34.35 48.9998 34.15C48.5998 33.95 47.9998 33.75 47.1998 33.75H43.9998V42.05Z" fill="#797979"/>
<path d="M54.5 43.7499V34.7499H56.5V37.2499L56.3 36.5499C56.6 35.9499 57 35.4499 57.6 35.1499C58.2 34.8499 58.9 34.6499 59.7 34.6499V36.6499C59.6 36.6499 59.5 36.6499 59.5 36.6499C59.4 36.6499 59.3 36.6499 59.3 36.6499C58.5 36.6499 57.8 36.8499 57.4 37.3499C56.9 37.8499 56.7 38.5499 56.7 39.4499V43.8499H54.5V43.7499Z" fill="#797979"/>
<path d="M65.3996 43.8499C64.4996 43.8499 63.6996 43.6499 62.8996 43.2499C62.0996 42.8499 61.5996 42.3499 61.1996 41.6499C60.7996 40.9499 60.5996 40.1499 60.5996 39.2499C60.5996 38.3499 60.7996 37.5499 61.1996 36.8499C61.5996 36.1499 62.1996 35.6499 62.8996 35.2499C63.5996 34.8499 64.3996 34.6499 65.3996 34.6499C66.2996 34.6499 67.1996 34.8499 67.8996 35.2499C68.5996 35.6499 69.1996 36.1499 69.5996 36.8499C69.9996 37.5499 70.1996 38.3499 70.1996 39.2499C70.1996 40.1499 69.9996 40.9499 69.5996 41.6499C69.1996 42.3499 68.5996 42.8499 67.8996 43.2499C67.1996 43.6499 66.2996 43.8499 65.3996 43.8499ZM65.3996 42.1499C65.8996 42.1499 66.3996 42.0499 66.7996 41.8499C67.1996 41.6499 67.4996 41.2499 67.7996 40.8499C67.9996 40.4499 68.0996 39.9499 68.0996 39.3499C68.0996 38.7499 67.9996 38.2499 67.7996 37.8499C67.5996 37.4499 67.2996 37.1499 66.7996 36.8499C66.3996 36.6499 65.8996 36.5499 65.3996 36.5499C64.8996 36.5499 64.3996 36.6499 63.9996 36.8499C63.5996 37.0499 63.2996 37.4499 62.9996 37.8499C62.7996 38.2499 62.5996 38.7499 62.5996 39.3499C62.5996 39.9499 62.6996 40.4499 62.9996 40.8499C63.2996 41.2499 63.5996 41.6499 63.9996 41.8499C64.4996 41.9499 64.8996 42.1499 65.3996 42.1499Z" fill="#797979"/>
<path d="M72.2998 43.75V31.25H74.3998V43.75H72.2998ZM73.9998 41.75V39.15L78.6998 34.75H81.1998L77.1998 38.75L76.0998 39.65L73.9998 41.75ZM79.0998 43.75L75.7998 39.65L77.0998 37.95L81.5998 43.75H79.0998Z" fill="#797979"/>
<path d="M86.7999 43.8499C85.7999 43.8499 84.8999 43.6499 84.1999 43.2499C83.4999 42.8499 82.8999 42.3499 82.4999 41.6499C82.0999 40.9499 81.8999 40.1499 81.8999 39.2499C81.8999 38.3499 82.0999 37.5499 82.4999 36.8499C82.8999 36.1499 83.4999 35.6499 84.1999 35.2499C84.8999 34.8499 85.6999 34.6499 86.5999 34.6499C87.4999 34.6499 88.2999 34.8499 88.8999 35.2499C89.5999 35.6499 90.0999 36.1499 90.4999 36.8499C90.8999 37.5499 91.0999 38.3499 91.0999 39.3499C91.0999 39.4499 91.0999 39.5499 91.0999 39.6499C91.0999 39.7499 91.0999 39.8499 91.0999 39.9499H83.5999V38.5499H89.9999L89.1999 38.9499C89.1999 38.4499 89.0999 37.9499 88.8999 37.5499C88.6999 37.1499 88.3999 36.8499 87.9999 36.6499C87.5999 36.4499 87.1999 36.3499 86.6999 36.3499C86.1999 36.3499 85.6999 36.4499 85.2999 36.6499C84.8999 36.8499 84.5999 37.1499 84.3999 37.5499C84.1999 37.9499 84.0999 38.4499 84.0999 38.9499V39.2499C84.0999 39.7499 84.1999 40.2499 84.4999 40.6499C84.6999 41.0499 85.0999 41.3499 85.4999 41.6499C85.8999 41.8499 86.4999 41.9499 87.0999 41.9499C87.5999 41.9499 88.0999 41.8499 88.4999 41.6499C88.8999 41.4499 89.2999 41.2499 89.5999 40.9499L90.6999 42.2499C90.2999 42.7499 89.7999 43.0499 89.1999 43.3499C88.2999 43.7499 87.5999 43.8499 86.7999 43.8499Z" fill="#797979"/>
<path d="M93.0996 43.7499V34.7499H95.0996V37.2499L94.8996 36.5499C95.1996 35.9499 95.5996 35.4499 96.1996 35.1499C96.7996 34.8499 97.4996 34.6499 98.2996 34.6499V36.6499C98.1996 36.6499 98.0996 36.6499 98.0996 36.6499C97.9996 36.6499 97.8996 36.6499 97.8996 36.6499C97.0996 36.6499 96.3996 36.8499 95.9996 37.3499C95.4996 37.8499 95.2996 38.5499 95.2996 39.4499V43.8499H93.0996V43.7499Z" fill="#797979"/>
</g>
<defs>
<clipPath id="clip0_1347_94107">
<rect width="169" height="43.7" fill="white" transform="translate(0 0.149902)"/>
</clipPath>
</defs>
</svg>
