<svg width="169" height="42" viewBox="0 0 169 42" fill="none" xmlns="http://www.w3.org/2000/svg">
<path d="M48 41.5V29.7H53.5C55 29.7 56 30 56.8 30.5C57.6 31 57.9 31.8 57.9 32.7C57.9 33.3 57.8 33.8999 57.5 34.2999C57.2 34.6999 56.8 35.0999 56.3 35.2999C55.8 35.4999 55.3 35.7 54.7 35.7L55 35.0999C55.7 35.0999 56.3 35.2 56.8 35.5C57.3 35.7 57.7 36.0999 58 36.5999C58.3 37.0999 58.5 37.5999 58.5 38.2999C58.5 39.2999 58.1 40.1 57.3 40.7C56.5 41.3 55.4 41.5 53.9 41.5H48ZM50.2 39.7999H53.8C54.6 39.7999 55.2 39.7 55.7 39.4C56.1 39.1 56.4 38.6999 56.4 38.0999C56.4 37.4999 56.2 37.0999 55.7 36.7999C55.3 36.4999 54.6 36.4 53.8 36.4H50V34.7H53.3C54.1 34.7 54.6 34.5999 55.1 34.2999C55.5 33.9999 55.7 33.6 55.7 33C55.7 32.4 55.5 31.9999 55.1 31.7999C54.7 31.5999 54.1 31.4 53.3 31.4H50.2V39.7999Z" fill="#797979"/>
<path d="M60.7002 41.4999V32.4999H62.7002V34.9999L62.5002 34.2999C62.8002 33.6999 63.2002 33.1999 63.8002 32.8999C64.4002 32.5999 65.1002 32.3999 65.9002 32.3999V34.3999C65.8002 34.3999 65.7002 34.3999 65.7002 34.3999C65.6002 34.3999 65.5002 34.3999 65.5002 34.3999C64.7002 34.3999 64.0002 34.5999 63.6002 35.0999C63.1002 35.5999 62.9002 36.2999 62.9002 37.1999V41.5999H60.7002V41.4999Z" fill="#797979"/>
<path d="M71.5998 41.5999C70.6998 41.5999 69.8998 41.3999 69.0998 40.9999C68.2998 40.5999 67.7998 40.0999 67.3998 39.3999C66.9998 38.6999 66.7998 37.8999 66.7998 36.9999C66.7998 36.0999 66.9998 35.2999 67.3998 34.5999C67.7998 33.8999 68.3998 33.3999 69.0998 32.9999C69.7998 32.5999 70.5998 32.3999 71.5998 32.3999C72.4998 32.3999 73.3998 32.5999 74.0998 32.9999C74.7998 33.3999 75.3998 33.8999 75.7998 34.5999C76.1998 35.2999 76.3998 36.0999 76.3998 36.9999C76.3998 37.8999 76.1998 38.6999 75.7998 39.3999C75.3998 40.0999 74.7998 40.5999 74.0998 40.9999C73.2998 41.3999 72.4998 41.5999 71.5998 41.5999ZM71.5998 39.7999C72.0998 39.7999 72.5998 39.6999 72.9998 39.4999C73.3998 39.2999 73.6998 38.8999 73.9998 38.4999C74.1998 38.0999 74.2998 37.5999 74.2998 36.9999C74.2998 36.3999 74.1998 35.8999 73.9998 35.4999C73.7998 35.0999 73.4998 34.7999 72.9998 34.4999C72.5998 34.2999 72.0998 34.1999 71.5998 34.1999C71.0998 34.1999 70.5998 34.2999 70.1998 34.4999C69.7998 34.6999 69.4998 35.0999 69.1998 35.4999C68.9998 35.8999 68.7998 36.3999 68.7998 36.9999C68.7998 37.5999 68.8998 38.0999 69.1998 38.4999C69.4998 38.8999 69.7998 39.2999 70.1998 39.4999C70.6998 39.6999 71.0998 39.7999 71.5998 39.7999Z" fill="#797979"/>
<path d="M78.3999 41.5V29H80.4999V41.5H78.3999ZM80.1999 39.5V36.9L84.8999 32.5H87.3999L83.3999 36.5L82.2999 37.4L80.1999 39.5ZM85.1999 41.5L81.8999 37.4L83.1999 35.7L87.6999 41.5H85.1999Z" fill="#797979"/>
<path d="M93 41.5999C92 41.5999 91.1 41.3999 90.4 40.9999C89.7 40.5999 89.1 40.0999 88.7 39.3999C88.3 38.6999 88 37.8999 88 36.9999C88 36.0999 88.2 35.2999 88.6 34.5999C89 33.8999 89.6 33.3999 90.3 32.9999C91 32.5999 91.8 32.3999 92.7 32.3999C93.6 32.3999 94.4 32.5999 95 32.9999C95.7 33.3999 96.2 33.8999 96.6 34.5999C97 35.2999 97.2 36.0999 97.2 37.0999C97.2 37.1999 97.2 37.2999 97.2 37.3999C97.2 37.4999 97.2 37.5999 97.2 37.6999H89.7V36.2999H96.1L95.3 36.6999C95.3 36.1999 95.2 35.6999 95 35.2999C94.8 34.8999 94.5 34.5999 94.1 34.3999C93.7 34.1999 93.3 34.0999 92.8 34.0999C92.3 34.0999 91.8 34.1999 91.4 34.3999C91 34.5999 90.7 34.8999 90.5 35.2999C90.3 35.6999 90.2 36.1999 90.2 36.6999V36.9999C90.2 37.4999 90.3 37.9999 90.6 38.3999C90.8 38.7999 91.2 39.0999 91.6 39.3999C92 39.5999 92.6 39.6999 93.2 39.6999C93.7 39.6999 94.2 39.5999 94.6 39.3999C95 39.1999 95.4 38.9999 95.7 38.6999L96.8 39.9999C96.4 40.4999 95.9 40.7999 95.3 41.0999C94.5 41.4999 93.8 41.5999 93 41.5999Z" fill="#797979"/>
<path d="M99.2998 41.4999V32.4999H101.3V34.9999L101.1 34.2999C101.4 33.6999 101.8 33.1999 102.4 32.8999C103 32.5999 103.7 32.3999 104.5 32.3999V34.3999C104.4 34.3999 104.3 34.3999 104.3 34.3999C104.2 34.3999 104.1 34.3999 104.1 34.3999C103.3 34.3999 102.6 34.5999 102.2 35.0999C101.7 35.5999 101.5 36.2999 101.5 37.1999V41.5999H99.2998V41.4999Z" fill="#797979"/>
<path d="M100.3 19V0H104V19H100.3Z" fill="#F7A600"/>
<path d="M56 24.5H48V5.5H55.7C59.5 5.5 61.6 7.5 61.6 10.8C61.6 12.9 60.2 14.3 59.3 14.7C60.5 15.2 62 16.4 62 18.9C61.9 22.6 59.4 24.5 56 24.5ZM55.4 8.9H51.8V13.2H55.5C57.1 13.2 58 12.4 58 11C57.9 9.8 57 8.9 55.4 8.9ZM55.7 16.6H51.8V21.3H55.7C57.4 21.3 58.2 20.2 58.2 18.9C58.2 17.6 57.3 16.6 55.7 16.6Z" fill="#797979"/>
<path d="M73.7002 16.7001V24.5001H70.0002V16.7001L64.2002 5.6001H68.3002L71.9002 13.2001L75.4002 5.6001H79.5002L73.7002 16.7001Z" fill="#797979"/>
<path d="M90.2998 24.5H82.2998V5.5H89.9998C93.7998 5.5 95.8998 7.5 95.8998 10.8C95.8998 12.9 94.4998 14.3 93.5998 14.7C94.7998 15.2 96.2998 16.4 96.2998 18.9C96.1998 22.6 93.7998 24.5 90.2998 24.5ZM89.6998 8.9H85.9998V13.2H89.6998C91.2998 13.2 92.1998 12.4 92.1998 11C92.1998 9.8 91.2998 8.9 89.6998 8.9ZM89.8998 16.6H85.9998V21.3H89.8998C91.5998 21.3 92.3998 20.2 92.3998 18.9C92.3998 17.6 91.5998 16.6 89.8998 16.6Z" fill="#797979"/>
<path d="M116.1 8.9001V24.6001H112.3V8.9001H107.3V5.6001H121.1V8.9001H116.1Z" fill="#797979"/>
</svg>
