<svg width="21" height="21" viewBox="0 0 21 21" fill="none" xmlns="http://www.w3.org/2000/svg">
<g clip-path="url(#clip0_1103_107059)">
<path d="M19.4091 6.87554H10.1428C8.07187 6.87351 6.39136 8.5507 6.38929 10.6217C6.38866 11.2649 6.5535 11.8975 6.86798 12.4586L2.23486 4.50897C5.60944 0.141392 11.8857 -0.663572 16.2533 2.711C17.6559 3.79474 18.7451 5.23206 19.4091 6.87554Z" fill="#F44336"/>
<path d="M20.1426 10.6253C20.138 16.146 15.6637 20.6203 10.143 20.6249C9.7249 20.6264 9.30723 20.5986 8.89307 20.5416L13.3929 12.5002C14.4242 10.7049 13.8094 8.41351 12.0179 7.37547C11.4507 7.04709 10.8067 6.87455 10.1513 6.87549H19.4092C19.8959 8.06567 20.145 9.33952 20.1426 10.6253Z" fill="#FFC107"/>
<path d="M13.3928 12.5004L8.89298 20.5417H8.88466C3.40881 19.8498 -0.469374 14.8499 0.22247 9.37405C0.446405 7.60167 1.14133 5.9217 2.23496 4.50903L6.86807 12.4587L6.89307 12.5004C7.92626 14.2952 10.2188 14.9126 12.0137 13.8795C12.587 13.5494 13.0628 13.0736 13.3928 12.5004Z" fill="#4CAF50"/>
<path d="M13.3927 12.5003C12.3595 14.2951 10.067 14.9126 8.27214 13.8794C7.69885 13.5494 7.22305 13.0736 6.89303 12.5003L6.86803 12.4586C5.85553 10.652 6.49933 8.36667 8.30593 7.35418C8.86708 7.0397 9.49967 6.87487 10.1429 6.87549H10.1512C10.8066 6.87455 11.4506 7.04709 12.0178 7.37547C13.8093 8.41355 14.4241 10.7049 13.3927 12.5003Z" fill="#F44336"/>
<path d="M13.3927 12.5003C12.3595 14.2951 10.067 14.9126 8.27214 13.8794C7.69885 13.5494 7.22305 13.0736 6.89303 12.5003L6.86803 12.4586C5.85553 10.652 6.49933 8.36667 8.30593 7.35418C8.86708 7.0397 9.49967 6.87487 10.1429 6.87549H10.1512C10.8066 6.87455 11.4506 7.04709 12.0178 7.37547C13.8093 8.41355 14.4241 10.7049 13.3927 12.5003Z" fill="#2196F3"/>
<path d="M10.1286 14.7919C9.4021 14.7919 8.68846 14.6004 8.05947 14.237C7.42524 13.8701 6.89851 13.3431 6.53204 12.7087C5.3815 10.7159 6.06429 8.16774 8.05709 7.0172C8.69116 6.65113 9.41054 6.4586 10.1427 6.45899C12.4438 6.45719 14.3107 8.32117 14.3124 10.6222C14.313 11.3547 14.1204 12.0744 13.7542 12.7087C13.0033 13.9997 11.622 14.7933 10.1286 14.7919ZM10.1502 7.29227C8.95443 7.2859 7.84737 7.92232 7.25115 8.95887C6.33072 10.5549 6.87839 12.5949 8.47441 13.5153C10.0704 14.4358 12.1105 13.8881 13.0309 12.2921C13.9513 10.6979 13.4051 8.65932 11.8109 7.73885C11.3061 7.44746 10.7338 7.29348 10.151 7.29231H10.1502V7.29227Z" fill="#FAFAFA"/>
</g>
<defs>
<clipPath id="clip0_1103_107059">
<rect width="20" height="20" fill="white" transform="translate(0.142578 0.625)"/>
</clipPath>
</defs>
</svg>
