<svg width="20" height="32" viewBox="0 0 20 32" fill="none" xmlns="http://www.w3.org/2000/svg">
<path d="M13.4261 3.68646C14.2563 2.70105 14.8243 1.36044 14.6666 0C13.4651 0.0504877 11.9626 0.78886 11.0973 1.75262C10.3317 2.60188 9.64789 3.99392 9.82449 5.30295C11.1742 5.39851 12.5599 4.65652 13.4261 3.68646Z" fill="white"/>
<path d="M16.4659 12.2314C16.4386 9.3479 18.9338 7.9338 19.0852 7.84799L19.0883 7.84625C17.6532 5.86014 15.4287 5.58874 14.6471 5.56716C13.5041 5.45295 12.382 5.87567 11.4652 6.22104C10.8835 6.44022 10.3843 6.62824 10.0148 6.62824C9.59416 6.62824 9.08059 6.43242 8.50517 6.21288C7.75265 5.92588 6.89403 5.59842 5.99904 5.61583C3.96647 5.64558 2.06491 6.76261 1.02209 8.49713C-1.13018 12.0339 0.474986 17.2314 2.53699 20.0902C3.5685 21.4904 4.77382 23.0536 6.35141 22.9986C7.06709 22.9706 7.57486 22.7678 8.09935 22.5583C8.70598 22.3159 9.33504 22.0646 10.3339 22.0646C11.2762 22.0646 11.8785 22.3081 12.4565 22.5418C13.0105 22.7657 13.5423 22.9806 14.3298 22.9634C15.9863 22.9382 17.0291 21.557 18.0246 20.1443C19.2165 18.5395 19.6952 16.9592 19.7143 16.878C19.6753 16.8654 16.4972 15.7141 16.4659 12.2314Z" fill="white"/>
<path d="M3.11515 25.9086C2.92026 25.6629 2.97957 25.2739 3.24155 25.0792C3.30277 25.0337 3.44739 25 3.5814 25C3.78289 25 3.83678 25.0235 3.97725 25.1725C4.11049 25.3139 4.13985 25.3835 4.13985 25.558C4.13985 26.1381 3.47695 26.3649 3.11515 25.9086Z" fill="white"/>
<path d="M14.3022 25.304C13.7229 25.3889 13.1816 25.6824 12.8951 26.0671C12.623 26.4323 12.5417 26.7378 12.5667 27.3013C12.591 27.8518 12.6797 28.0698 13.0109 28.3938C13.3089 28.6854 13.6073 28.8166 14.5302 29.0623C15.7586 29.3893 16.0483 29.597 16.0483 30.1505C16.0483 30.4784 15.9204 30.6979 15.6108 30.901C14.9597 31.3281 13.8158 31.1331 13.4573 30.5339C13.383 30.4098 13.3223 30.2671 13.3223 30.2167C13.3223 30.1345 13.2729 30.1251 12.8398 30.1251H12.3574L12.3897 30.3408C12.5041 31.1023 13.0768 31.6959 13.9182 31.9251C14.2823 32.0244 15.0704 32.0246 15.4661 31.9256C16.4295 31.6846 16.9524 31.0668 16.9959 30.118C17.0209 29.5736 16.9334 29.262 16.6644 28.9378C16.3903 28.6074 15.9382 28.391 14.9642 28.1237C14.0607 27.8759 13.8269 27.7721 13.6392 27.5354C13.5123 27.3755 13.4895 27.2809 13.511 27.005C13.5527 26.4683 14.0983 26.131 14.8504 26.1772C15.4343 26.2131 15.8729 26.5296 15.9789 26.9915L16.0109 27.1311H16.9222L16.893 26.9048C16.8017 26.1981 16.1679 25.5333 15.4211 25.3607C15.0829 25.2826 14.6112 25.2587 14.3022 25.304Z" fill="white"/>
<path d="M3.13477 31.8502V27.0293H4.04345V31.8502H3.13477Z" fill="white"/>
<path fill-rule="evenodd" clip-rule="evenodd" d="M5.93424 27.2211C6.27447 26.1488 7.06482 25.4536 8.10918 25.3082C9.63677 25.0956 10.852 25.9294 11.2471 27.4613C11.3674 27.9279 11.391 29.0508 11.2915 29.5718C11.0465 30.8549 10.3653 31.6586 9.2964 31.926C8.90375 32.0242 8.15911 32.0242 7.79641 31.9259C6.80576 31.6576 6.13109 30.9146 5.86116 29.7947C5.66359 28.975 5.69167 27.9857 5.93424 27.2211ZM9.38301 26.4232C10.0683 26.7949 10.4058 27.5386 10.404 28.6735C10.4027 29.5373 10.1861 30.1565 9.72787 30.6067C9.36966 30.9587 9.08941 31.0644 8.51469 31.0644C8.1243 31.0644 8.05308 31.0486 7.76656 30.8989C7.21476 30.6107 6.87869 30.0721 6.73933 29.2524C6.54678 28.1202 6.90542 26.9511 7.58488 26.496C7.91253 26.2765 8.15012 26.216 8.62024 26.2324C9.01169 26.2461 9.09481 26.2669 9.38301 26.4232Z" fill="white"/>
</svg>
