<svg width="52" height="52" viewBox="0 0 52 52" fill="none" xmlns="http://www.w3.org/2000/svg">
<path d="M18.7382 26.9353L37.2032 15.3398C37.535 15.132 37.8764 15.5895 37.5915 15.859L22.3525 30.3021C21.8169 30.8105 21.4714 31.4908 21.3735 32.2293L20.8544 36.1517C20.7857 36.6754 20.0641 36.7274 19.9224 36.2205L17.9259 29.068C17.6973 28.2521 18.0305 27.3807 18.7382 26.9353Z" fill="#8A55E9" fill-opacity="0.6"/>
<path d="M6.22225 25.2538L15.6703 28.8492L19.3273 40.8406C19.5613 41.6086 20.4823 41.8925 21.0937 41.3829L26.3601 37.0054C26.9122 36.5467 27.6985 36.5238 28.2754 36.9509L37.7743 43.9825C38.4283 44.4672 39.3549 44.1018 39.5189 43.296L46.4773 9.16847C46.6564 8.28831 45.8081 7.55399 44.9861 7.87816L6.2112 23.1295C5.25435 23.5058 5.26268 24.8871 6.22225 25.2538ZM18.7379 26.9352L37.2028 15.3397C37.5347 15.1319 37.8761 15.5894 37.5912 15.859L22.3522 30.302C21.8166 30.8104 21.471 31.4908 21.3732 32.2293L20.8541 36.1517C20.7854 36.6754 20.0638 36.7273 19.922 36.2205L17.9256 29.0679C17.697 28.252 18.0302 27.3807 18.7379 26.9352Z" fill="#B184FF"/>
</svg>
