<svg width="52" height="52" viewBox="0 0 52 52" fill="none" xmlns="http://www.w3.org/2000/svg">
<path opacity="0.6" fill-rule="evenodd" clip-rule="evenodd" d="M25.9997 8.66671C16.4267 8.66671 8.66634 16.4271 8.66634 26C8.66634 35.573 16.4267 43.3334 25.9997 43.3334C28.7708 43.3334 31.3843 42.6847 33.7021 41.5328C34.7737 41.0003 36.0741 41.4373 36.6066 42.5088C37.1392 43.5804 36.7022 44.8808 35.6306 45.4134C32.7269 46.8563 29.4548 47.6667 25.9997 47.6667C14.0335 47.6667 4.33301 37.9662 4.33301 26C4.33301 14.0339 14.0335 4.33337 25.9997 4.33337C37.9658 4.33337 47.6663 14.0339 47.6663 26V26.0194C47.6665 26.6094 47.6669 29.0583 46.8781 31.4248C46.4755 32.6325 45.8186 33.9734 44.7114 35.0314C43.5526 36.1387 42.0031 36.8334 40.083 36.8334C38.8864 36.8334 37.9163 35.8633 37.9163 34.6667C37.9163 33.4701 38.8864 32.5 40.083 32.5C40.8713 32.5 41.353 32.2468 41.7177 31.8984C42.1339 31.5007 42.4926 30.878 42.7671 30.0545C43.3235 28.3853 43.333 26.5295 43.333 26C43.333 16.4271 35.5726 8.66671 25.9997 8.66671Z" fill="#8A55E9"/>
<path fill-rule="evenodd" clip-rule="evenodd" d="M32.5003 26C32.5003 29.5898 29.5902 32.5 26.0003 32.5C22.4105 32.5 19.5003 29.5898 19.5003 26C19.5003 22.4101 22.4105 19.5 26.0003 19.5C29.5902 19.5 32.5003 22.4101 32.5003 26ZM34.1265 33.1644C32.1414 35.4142 29.2366 36.8333 26.0003 36.8333C20.0172 36.8333 15.167 31.983 15.167 26C15.167 20.0169 20.0172 15.1666 26.0003 15.1666C28.4391 15.1666 30.6897 15.9725 32.5003 17.3325C32.5008 16.1362 33.4706 15.1666 34.667 15.1666C35.8636 15.1666 36.8337 16.1367 36.8337 17.3333C36.8337 22.865 36.8471 26.8992 37.4569 29.5823C37.7552 30.8947 38.1405 31.5981 38.501 31.9666C38.7879 32.2599 39.2089 32.5 40.0837 32.5C41.2803 32.5 42.2503 33.47 42.2503 34.6666C42.2503 35.8632 41.2803 36.8333 40.0837 36.8333C38.2502 36.8333 36.6398 36.2608 35.4034 34.9969C34.8775 34.4593 34.4605 33.8379 34.1265 33.1644Z" fill="#B184FF"/>
</svg>
