<svg width="52" height="52" viewBox="0 0 52 52" fill="none" xmlns="http://www.w3.org/2000/svg">
<path d="M44.9008 20.9055C45.6911 15.4364 41.6661 12.5006 36.1677 10.5441L37.9509 3.14312L33.5923 2.02014L31.8469 9.222C30.7071 8.93253 29.5276 8.65332 28.364 8.37206L30.1094 1.12298L25.7508 0L23.9736 7.39484L15.185 5.14888L14.0214 9.96107C14.0214 9.96107 17.2561 10.7227 17.1866 10.772C18.9558 11.2298 19.2735 12.4411 19.2179 13.3937L14.3232 33.6669C14.1147 34.2273 13.5627 35.0547 12.3296 34.7406C12.3753 34.8042 9.1644 33.9153 9.1644 33.9153L7 39.0806L15.7728 41.3738L13.9737 48.863L18.3244 49.9778L20.1075 42.5768C21.3029 42.9053 22.4506 43.2194 23.5825 43.5068L21.7993 50.877L26.1579 52L27.9649 44.5251C35.3953 45.9848 40.981 45.3997 43.3301 38.4544C45.2304 32.8559 43.2368 29.6328 39.327 27.5243C42.1744 26.8427 44.323 24.9109 44.8889 20.9076L44.9008 20.9055ZM34.9366 35.3421C33.5864 40.9324 24.4721 37.9083 21.5174 37.1549L23.9141 27.2349C26.8688 27.9965 36.3405 29.5034 34.9366 35.3421ZM36.2869 20.8275C35.0617 25.9189 27.4744 23.3301 25.0161 22.6957L27.1805 13.6975C29.6388 14.3319 37.5657 15.5185 36.2869 20.8275Z" fill="#533493"/>
<path fill-rule="evenodd" clip-rule="evenodd" d="M51.3335 31.8346C52.2219 32.6807 52.2219 34.0525 51.3335 34.8987L42.2335 43.5653C41.345 44.4115 39.9046 44.4115 39.0161 43.5653L34.4661 39.232C33.5777 38.3859 33.5777 37.014 34.4661 36.1679C35.3546 35.3218 36.795 35.3218 37.6835 36.1679L40.6248 38.9692L48.1161 31.8346C49.0046 30.9884 50.445 30.9884 51.3335 31.8346Z" fill="#B184FF"/>
</svg>
