<svg width="52" height="52" viewBox="0 0 52 52" fill="none" xmlns="http://www.w3.org/2000/svg">
<path d="M49.8333 18.4167C49.8333 24.9981 44.4981 30.3333 37.9167 30.3333C31.3353 30.3333 26 24.9981 26 18.4167C26 11.8353 31.3353 6.5 37.9167 6.5C44.4981 6.5 49.8333 11.8353 49.8333 18.4167Z" fill="#B184FF"/>
<path opacity="0.6" d="M17.3332 18.4167C17.3332 22.6049 13.938 26 9.74984 26C5.56168 26 2.1665 22.6049 2.1665 18.4167C2.1665 14.2285 5.56168 10.8334 9.74984 10.8334C13.938 10.8334 17.3332 14.2285 17.3332 18.4167Z" fill="#8A55E9"/>
<path opacity="0.6" d="M28.1668 36.8333C28.1668 41.6198 24.2866 45.5 19.5002 45.5C14.7137 45.5 10.8335 41.6198 10.8335 36.8333C10.8335 32.0468 14.7137 28.1666 19.5002 28.1666C24.2866 28.1666 28.1668 32.0468 28.1668 36.8333Z" fill="#8A55E9"/>
</svg>
