<svg width="52" height="52" viewBox="0 0 52 52" fill="none" xmlns="http://www.w3.org/2000/svg">
<g opacity="0.6">
<path d="M4.3335 32.5C4.3335 36.0899 7.24365 39 10.8335 39L41.1668 39C44.7567 39 47.6668 36.0899 47.6668 32.5V10.8334C47.6668 7.24352 44.7567 4.33337 41.1668 4.33337H10.8335C7.24365 4.33337 4.3335 7.24353 4.3335 10.8334V32.5Z" fill="#8A55E9"/>
<path d="M17.3335 43.3334C16.1369 43.3334 15.1668 44.3034 15.1668 45.5C15.1668 46.6967 16.1369 47.6667 17.3335 47.6667H34.6668C35.8634 47.6667 36.8335 46.6967 36.8335 45.5C36.8335 44.3034 35.8634 43.3334 34.6668 43.3334H17.3335Z" fill="#8A55E9"/>
</g>
<path d="M15.1667 13C13.97 13 13 13.97 13 15.1667C13 16.3633 13.97 17.3333 15.1667 17.3333H30.3333C31.53 17.3333 32.5 16.3633 32.5 15.1667C32.5 13.97 31.53 13 30.3333 13H15.1667Z" fill="#B184FF"/>
<path d="M15.1667 21.6667C13.97 21.6667 13 22.6367 13 23.8333C13 25.03 13.97 26 15.1667 26H19.5C20.6966 26 21.6667 25.03 21.6667 23.8333C21.6667 22.6367 20.6966 21.6667 19.5 21.6667H15.1667Z" fill="#B184FF"/>
</svg>
