<svg width="150" height="32" viewBox="0 0 150 32" fill="none" xmlns="http://www.w3.org/2000/svg">
<path d="M95 25V0H100V25H95Z" fill="#675C70"/>
<path d="M37.3957 32H27V7H36.9776C41.8268 7 44.6523 9.7387 44.6523 14.0227C44.6523 16.7957 42.8377 18.5878 41.5817 19.1844C43.0809 19.8863 45 21.466 45 24.8033C45 29.4717 41.8268 32 37.3957 32ZM36.5938 11.3547H31.8492V17.1132H36.5938C38.6517 17.1132 39.8032 15.9543 39.8032 14.233C39.8032 12.5137 38.6517 11.3547 36.5938 11.3547ZM36.9073 21.5024H31.8492V27.6471H36.9073C39.1058 27.6471 40.1508 26.2435 40.1508 24.5566C40.1508 22.8717 39.1038 21.5024 36.9073 21.5024Z" fill="#675C70"/>
<path d="M60.4396 21.7471V32H55.5623V21.7471L48 7H53.3354L58.0356 17.0768L62.6646 7H68L60.4396 21.7471Z" fill="#675C70"/>
<path d="M82.3956 32H72V7H81.9776C86.8267 7 89.6522 9.7387 89.6522 14.0227C89.6522 16.7957 87.8376 18.5878 86.5816 19.1844C88.0808 19.8863 90 21.466 90 24.8033C90 29.4717 86.8267 32 82.3956 32ZM81.5938 11.3547H76.8491V17.1132H81.5938C83.6517 17.1132 84.8031 15.9543 84.8031 14.233C84.8031 12.5137 83.6517 11.3547 81.5938 11.3547ZM81.9073 21.5024H76.8491V27.6471H81.9073C84.1057 27.6471 85.1508 26.2435 85.1508 24.5566C85.1508 22.8717 84.1057 21.5024 81.9073 21.5024Z" fill="#675C70"/>
<path d="M116.448 11.3544V32H111.552V11.3544H105V7H123V11.3544H116.448Z" fill="#675C70"/>
</svg>
