<svg width="495" height="357" viewBox="0 0 495 357" fill="none" xmlns="http://www.w3.org/2000/svg">
<g opacity="0.9">
<rect x="1.11608" y="0.710752" width="61.1222" height="61.0634" rx="21.5094" transform="matrix(0.97636 -0.21615 0.217062 0.976158 -0.127893 138.769)" fill="url(#paint0_linear_4470_103256)" fill-opacity="0.2"/>
<path d="M37.3734 169.649L37.5868 163.565L40.827 161.461L40.9542 157.885L40.9055 157.808L37.716 159.879L38.0744 149.664L30.9659 151.237L30.4913 164.57L27.9821 166.199L27.8529 169.885L30.3602 168.257L30.0805 176.115L48.9989 171.927L49.1835 167.034L37.3734 169.649Z" fill="#16AABE"/>
<rect x="1.11608" y="0.710752" width="61.1222" height="61.0634" rx="21.5094" transform="matrix(0.97636 -0.21615 0.217062 0.976158 -0.127893 138.769)" stroke="url(#paint1_linear_4470_103256)" stroke-width="1.87038"/>
</g>
<g opacity="0.9">
<rect x="1.16901" y="0.796354" width="102.383" height="102.283" rx="36.1918" transform="matrix(0.98253 -0.186106 0.186477 0.982459 74.7323 242.451)" fill="url(#paint2_linear_4470_103256)" fill-opacity="0.2"/>
<path d="M119.221 284.782L119.225 284.784L119.222 284.786L138.031 291.787L152.97 278.394L152.965 278.393L152.968 278.39L130.662 252.964L119.221 284.782Z" fill="#A8B3FF"/>
<path d="M141.329 309.161L153.595 281.653L138.649 295.046L119.841 288.047L141.329 309.161Z" fill="#A8B3FF"/>
<rect x="1.16901" y="0.796354" width="102.383" height="102.283" rx="36.1918" transform="matrix(0.98253 -0.186106 0.186477 0.982459 74.7323 242.451)" stroke="url(#paint3_linear_4470_103256)" stroke-width="2"/>
</g>
<g opacity="0.9">
<rect x="347.506" y="19.8418" width="61.1252" height="61.0603" rx="21.5094" transform="rotate(13 347.506 19.8418)" fill="url(#paint4_linear_4470_103256)" fill-opacity="0.2"/>
<g opacity="0.7">
<path d="M372.267 47.9539L365.295 52.3173L362.757 48.2557L373.788 41.3542L380.688 52.3981L376.629 54.9364L372.267 47.9539Z" fill="#F3BA2F"/>
<path d="M359.892 50.0478L355.835 52.5873L358.371 56.6475L362.43 54.109L359.892 50.0478Z" fill="#F3BA2F"/>
<path d="M368.579 63.9564L364.221 56.9778L360.162 59.516L367.058 70.5561L378.094 63.6514L375.556 59.5919L368.579 63.9564Z" fill="#F3BA2F"/>
<path d="M382.475 55.2634L378.418 57.8025L380.954 61.8631L385.013 59.3247L382.475 55.2634Z" fill="#F3BA2F"/>
<path d="M371.161 52.7619L367.044 55.3381L369.618 59.4593L373.735 56.883L371.161 52.7619Z" fill="#F3BA2F"/>
</g>
<rect x="347.506" y="19.8418" width="61.1252" height="61.0603" rx="21.5094" transform="rotate(13 347.506 19.8418)" stroke="url(#paint5_linear_4470_103256)" stroke-width="1.87038"/>
</g>
<g opacity="0.9">
<rect x="1.11536" y="0.710297" width="61.2019" height="61.249" rx="21.5094" transform="matrix(0.976221 -0.216776 0.216436 0.976297 264.38 322.636)" fill="url(#paint6_linear_4470_103256)" fill-opacity="0.2"/>
<path fill-rule="evenodd" clip-rule="evenodd" d="M308.004 343.941L307.702 343.941C307.102 343.941 305.297 344.239 305.297 346.019C305.297 348.39 308.004 348.39 308.004 348.39C311.009 348.39 313.414 351.055 313.414 354.019C313.414 356.986 311.009 359.651 307.702 359.651C304.697 359.651 301.99 356.986 301.99 354.019C301.99 352.835 302.59 351.647 303.194 350.762C303.194 350.166 303.491 348.982 302.589 347.794C301.691 346.909 299.887 347.794 299.286 348.684C298.984 348.684 298.984 348.981 298.984 349.28L298.682 349.28C297.784 350.762 295.98 351.647 294.174 351.647C290.867 351.647 288.462 349.28 288.462 346.312C288.462 343.051 290.867 340.684 294.174 340.684C295.979 340.684 298.082 341.868 298.984 343.349C298.984 343.349 299.887 344.831 301.087 344.831C301.99 344.831 303.195 344.239 303.195 342.459C303.195 342.166 303.195 341.57 302.893 341.275C302.893 340.978 302.893 340.978 302.591 340.683C302.294 339.793 301.991 339.197 301.991 338.312C301.991 335.051 304.698 332.679 307.703 332.679C311.01 332.679 313.415 335.051 313.415 338.312C313.415 341.275 311.01 343.647 308.005 343.94L308.004 343.941Z" fill="#16AABE"/>
<rect x="1.11536" y="0.710297" width="61.2019" height="61.249" rx="21.5094" transform="matrix(0.976221 -0.216776 0.216436 0.976297 264.38 322.636)" stroke="url(#paint7_linear_4470_103256)" stroke-width="1.87038"/>
</g>
<g opacity="0.9">
<rect x="1.06088" y="1.8375" width="118.586" height="118.673" rx="41.7661" transform="matrix(0.965872 0.259018 -0.25862 0.965979 199.666 70.7389)" fill="url(#paint8_linear_4470_103256)" fill-opacity="0.2"/>
<path opacity="0.8" fill-rule="evenodd" clip-rule="evenodd" d="M227.44 115.755L269.5 127.035L266.883 136.81L250.93 132.532L249.198 139C261.501 142.84 270.281 147.72 269.523 150.551C268.765 153.383 258.722 153.215 246.148 150.383L240.628 171.002L230.475 168.279L235.997 147.652C223.792 143.822 215.105 138.977 215.86 136.16C216.614 133.344 226.559 133.495 239.042 136.285L240.776 129.809L224.822 125.531L227.44 115.755ZM238.895 136.834C228.065 134.406 219.57 134.052 218.996 136.199C218.332 138.68 228.493 143.56 241.69 147.099C254.887 150.638 266.124 151.496 266.788 149.015C267.366 146.856 259.741 142.878 249.051 139.55L247.083 146.901L236.929 144.178L238.895 136.834Z" fill="#269876"/>
<rect x="1.06088" y="1.8375" width="118.586" height="118.673" rx="41.7661" transform="matrix(0.965872 0.259018 -0.25862 0.965979 199.666 70.7389)" stroke="url(#paint9_linear_4470_103256)" stroke-width="3"/>
</g>
<g opacity="0.9">
<rect x="1.91175" y="0.512253" width="117.001" height="117.051" rx="41.2247" transform="matrix(0.865847 -0.500309 0.499691 0.866204 331.382 196.846)" fill="url(#paint10_linear_4470_103256)"/>
<path d="M428.777 201.011C426.407 195.009 420.523 194.453 413.682 195.768L411.215 187.219L406.042 188.694L408.432 197.02C407.082 197.41 405.696 197.834 404.326 198.247L401.908 189.874L396.735 191.349L399.205 199.889L388.785 202.883L390.385 208.444C390.385 208.444 394.182 207.277 394.139 207.368C396.24 206.771 397.276 207.805 397.773 208.801L404.522 232.227C404.632 232.918 404.543 234.085 403.081 234.506C403.166 234.543 399.319 235.568 399.319 235.568L400.087 242.085L410.518 239.149L413.021 247.797L418.181 246.318L415.713 237.769C417.144 237.385 418.517 237.015 419.858 236.627L422.307 245.146L427.48 243.67L424.994 235.032C433.548 232.056 438.997 228.119 437.382 219.692C436.087 212.894 432.141 210.83 426.859 211.041C429.413 208.646 430.514 205.406 428.766 201.021L428.777 201.011ZM426.866 221.573C428.727 228.033 417.515 230.435 414.013 231.443L410.713 219.98C414.22 218.98 424.917 214.83 426.866 221.573ZM419.802 206.092C421.501 211.973 412.126 213.9 409.208 214.731L406.205 204.339C409.123 203.508 418.032 199.959 419.802 206.092Z" fill="#B08525"/>
<rect x="1.91175" y="0.512253" width="117.001" height="117.051" rx="41.2247" transform="matrix(0.865847 -0.500309 0.499691 0.866204 331.382 196.846)" stroke="url(#paint11_linear_4470_103256)" stroke-width="2.8"/>
</g>
<g opacity="0.9">
<rect x="145.193" y="18.9335" width="60.0494" height="60.1004" rx="21.1052" transform="rotate(13 145.193 18.9335)" fill="url(#paint12_linear_4470_103256)" fill-opacity="0.2"/>
<g opacity="0.8">
<path d="M154.282 51.8361C156.016 44.3116 163.521 39.6164 171.039 41.3521C178.558 43.0878 183.249 50.5988 181.515 58.1233C181.169 59.6271 180.59 61.0185 179.829 62.2666L175.758 61.3267L178.4 49.8604L167.508 56.675L160.699 45.7737L158.056 57.24L153.985 56.3C153.844 54.8436 153.936 53.3399 154.282 51.8361Z" fill="#F37101"/>
<path d="M162.03 53.4849L165.004 58.2418L166.568 60.7501L173.825 56.2078L172.162 63.4237L177.901 64.7487C174.606 68.1194 169.685 69.7448 164.758 68.6071C159.83 67.4695 156.117 63.8517 154.631 59.3763L160.367 60.7007L162.03 53.4849Z" fill="#F37101"/>
</g>
<rect x="145.193" y="18.9335" width="60.0494" height="60.1004" rx="21.1052" transform="rotate(13 145.193 18.9335)" stroke="url(#paint13_linear_4470_103256)" stroke-width="1.83523"/>
</g>
<defs>
<linearGradient id="paint0_linear_4470_103256" x1="31.4963" y1="0" x2="31.4963" y2="62.9338" gradientUnits="userSpaceOnUse">
<stop stop-color="#00C2FF"/>
<stop offset="1"/>
</linearGradient>
<linearGradient id="paint1_linear_4470_103256" x1="0" y1="0" x2="63.8336" y2="62.9934" gradientUnits="userSpaceOnUse">
<stop stop-color="white" stop-opacity="0.24"/>
<stop offset="1" stop-color="white" stop-opacity="0"/>
</linearGradient>
<linearGradient id="paint2_linear_4470_103256" x1="52.1916" y1="0" x2="52.1916" y2="104.283" gradientUnits="userSpaceOnUse">
<stop stop-color="#AD00FF"/>
<stop offset="1" stop-color="#162323"/>
</linearGradient>
<linearGradient id="paint3_linear_4470_103256" x1="0" y1="0" x2="105.774" y2="104.385" gradientUnits="userSpaceOnUse">
<stop stop-color="white" stop-opacity="0.24"/>
<stop offset="1" stop-color="white" stop-opacity="0"/>
</linearGradient>
<linearGradient id="paint4_linear_4470_103256" x1="378.302" y1="18.7202" x2="378.302" y2="81.6509" gradientUnits="userSpaceOnUse">
<stop stop-color="#FF8A00"/>
<stop offset="1"/>
</linearGradient>
<linearGradient id="paint5_linear_4470_103256" x1="346.805" y1="18.7202" x2="410.635" y2="81.7167" gradientUnits="userSpaceOnUse">
<stop stop-color="white" stop-opacity="0.24"/>
<stop offset="1" stop-color="white" stop-opacity="0"/>
</linearGradient>
<linearGradient id="paint6_linear_4470_103256" x1="31.5362" y1="0" x2="31.5362" y2="63.1194" gradientUnits="userSpaceOnUse">
<stop stop-color="#00C2FF"/>
<stop offset="1"/>
</linearGradient>
<linearGradient id="paint7_linear_4470_103256" x1="0" y1="0" x2="64.0204" y2="63.0716" gradientUnits="userSpaceOnUse">
<stop stop-color="white" stop-opacity="0.24"/>
<stop offset="1" stop-color="white" stop-opacity="0"/>
</linearGradient>
<linearGradient id="paint8_linear_4470_103256" x1="60.7929" y1="0" x2="60.7929" y2="121.673" gradientUnits="userSpaceOnUse">
<stop stop-color="#05FF00" stop-opacity="0.67"/>
<stop offset="1" stop-color="#162323"/>
</linearGradient>
<linearGradient id="paint9_linear_4470_103256" x1="0" y1="0" x2="123.409" y2="121.585" gradientUnits="userSpaceOnUse">
<stop stop-color="white" stop-opacity="0.24"/>
<stop offset="1" stop-color="white" stop-opacity="0"/>
</linearGradient>
<linearGradient id="paint10_linear_4470_103256" x1="59.9007" y1="0" x2="59.9007" y2="119.851" gradientUnits="userSpaceOnUse">
<stop stop-color="#382418"/>
<stop offset="1" stop-color="#0E0B0F"/>
</linearGradient>
<linearGradient id="paint11_linear_4470_103256" x1="0" y1="0" x2="121.562" y2="119.801" gradientUnits="userSpaceOnUse">
<stop stop-color="white" stop-opacity="0.24"/>
<stop offset="1" stop-color="white" stop-opacity="0"/>
</linearGradient>
<linearGradient id="paint12_linear_4470_103256" x1="175.447" y1="17.833" x2="175.447" y2="79.7686" gradientUnits="userSpaceOnUse">
<stop stop-color="#FF3D00"/>
<stop offset="1"/>
</linearGradient>
<linearGradient id="paint13_linear_4470_103256" x1="144.505" y1="17.833" x2="207.325" y2="79.7169" gradientUnits="userSpaceOnUse">
<stop stop-color="white" stop-opacity="0.24"/>
<stop offset="1" stop-color="white" stop-opacity="0"/>
</linearGradient>
</defs>
</svg>
