<svg width="459" height="319" viewBox="0 0 459 319" fill="none" xmlns="http://www.w3.org/2000/svg">
<g filter="url(#filter0_d_4071_99740)">
<rect width="338.734" height="178.954" rx="28.4111" transform="matrix(0.980774 0.195148 -0.195845 0.980635 110.756 25.5176)" fill="url(#paint0_linear_4071_99740)" fill-opacity="0.1" shape-rendering="crispEdges"/>
<rect width="338.734" height="178.954" rx="28.4111" transform="matrix(0.980774 0.195148 -0.195845 0.980635 110.756 25.5176)" fill="url(#paint1_radial_4071_99740)" fill-opacity="0.15" shape-rendering="crispEdges"/>
<path d="M130.819 70.4155L132.893 60.1223L137.51 61.0492C138.697 61.2873 139.56 61.7105 140.101 62.3188C140.643 62.9173 140.832 63.6282 140.666 64.4517C140.553 65.0104 140.331 65.4554 139.999 65.7866C139.677 66.1197 139.284 66.3469 138.821 66.4681C138.358 66.5893 137.881 66.6008 137.391 66.5024L137.745 66.1144C138.333 66.2324 138.832 66.4397 139.241 66.7361C139.651 67.0325 139.948 67.4082 140.131 67.8632C140.317 68.3085 140.351 68.8252 140.232 69.4134C140.054 70.2957 139.583 70.915 138.817 71.2713C138.064 71.6198 137.035 71.6632 135.731 71.4014L130.819 70.4155ZM132.529 69.5196L135.912 70.1986C136.726 70.3619 137.376 70.3496 137.863 70.1617C138.349 69.9738 138.652 69.5858 138.77 68.9976C138.891 68.3996 138.763 67.9201 138.387 67.559C138.011 67.198 137.416 66.9357 136.602 66.7724L133.087 66.0669L133.327 64.8758L136.475 65.5075C137.22 65.6571 137.826 65.636 138.293 65.4441C138.76 65.2523 139.049 64.8819 139.159 64.3329C139.27 63.784 139.147 63.3309 138.791 62.9738C138.434 62.6166 137.883 62.3633 137.138 62.2137L134.123 61.6086L132.529 69.5196ZM141.743 72.6083L143.314 64.8149L144.725 65.0983L143.155 72.8917L141.743 72.6083ZM144.322 63.4567C144.047 63.4016 143.834 63.2671 143.684 63.0533C143.543 62.8414 143.498 62.608 143.549 62.3531C143.603 62.0885 143.735 61.8856 143.947 61.7446C144.169 61.6055 144.417 61.5635 144.692 61.6186C144.966 61.6737 145.174 61.8072 145.315 62.0191C145.468 62.2232 145.519 62.4526 145.467 62.7075C145.414 62.9722 145.28 63.1799 145.066 63.3308C144.854 63.4718 144.606 63.5138 144.322 63.4567ZM148.51 74.0583C147.725 73.9008 147.16 73.568 146.814 73.0599C146.467 72.5518 146.373 71.9056 146.531 71.1214L147.971 63.975L149.382 64.2583L147.955 71.3459C147.87 71.7675 147.907 72.1116 148.068 72.3784C148.238 72.6472 148.519 72.8209 148.912 72.8997C149.353 72.9882 149.745 72.9395 150.089 72.7534L150.325 73.8566C150.072 73.9996 149.785 74.0847 149.463 74.1119C149.151 74.1411 148.833 74.1232 148.51 74.0583ZM146.069 66.5767L146.303 65.415L151.274 66.4128L151.04 67.5744L146.069 66.5767ZM155.061 75.3733C154.267 75.2139 153.591 74.8997 153.033 74.4306C152.484 73.9635 152.094 73.3956 151.861 72.7267C151.629 72.0579 151.59 71.3363 151.746 70.5618C151.902 69.7874 152.217 69.1366 152.691 68.6095C153.164 68.0823 153.743 67.7141 154.428 67.5048C155.125 67.2876 155.87 67.2587 156.664 67.4181C157.37 67.5598 157.969 67.8279 158.461 68.2224C158.964 68.6091 159.313 69.1074 159.506 69.7174L158.293 70.193C158.115 69.7595 157.858 69.4172 157.521 69.1659C157.196 68.9068 156.822 68.735 156.401 68.6504C155.891 68.548 155.412 68.5693 154.965 68.714C154.517 68.8588 154.134 69.1135 153.816 69.478C153.5 69.8327 153.285 70.2894 153.173 70.8482C153.06 71.4069 153.08 71.9158 153.233 72.3748C153.385 72.8337 153.639 73.2163 153.996 73.5224C154.353 73.8286 154.786 74.0328 155.296 74.1352C155.717 74.2198 156.127 74.2103 156.525 74.1067C156.936 73.9952 157.307 73.7739 157.638 73.4427L158.576 74.3346C158.163 74.8128 157.648 75.1428 157.03 75.3247C156.423 75.4988 155.767 75.515 155.061 75.3733ZM163.289 77.0249C162.505 76.8674 161.844 76.5561 161.305 76.091C160.766 75.6259 160.38 75.0589 160.148 74.3901C159.917 73.7115 159.879 72.9898 160.033 72.2252C160.189 71.4507 160.504 70.8 160.977 70.2728C161.451 69.7457 162.025 69.3765 162.7 69.1652C163.377 68.9441 164.108 68.9122 164.892 69.0697C165.667 69.2252 166.323 69.5355 166.862 70.0006C167.413 70.4579 167.799 71.0199 168.022 71.6868C168.256 72.3458 168.295 73.0675 168.137 73.8517C167.981 74.6262 167.666 75.2769 167.192 75.8041C166.729 76.3332 166.154 76.7073 165.467 76.9264C164.79 77.1475 164.064 77.1803 163.289 77.0249ZM163.538 75.7897C164.038 75.89 164.507 75.8669 164.945 75.7201C165.392 75.5753 165.77 75.3197 166.079 74.9532C166.389 74.577 166.599 74.1143 166.71 73.5654C166.823 73.0066 166.807 72.5036 166.662 72.0564C166.52 71.5994 166.27 71.2179 165.913 70.9117C165.567 70.6075 165.143 70.4052 164.643 70.3049C164.143 70.2045 163.674 70.2277 163.237 70.3744C162.799 70.5212 162.421 70.7768 162.103 71.1413C161.787 71.496 161.572 71.9527 161.46 72.5115C161.349 73.0605 161.369 73.5694 161.519 74.0381C161.672 74.4971 161.921 74.8787 162.268 75.1828C162.615 75.487 163.038 75.6893 163.538 75.7897ZM169.304 78.1403L170.874 70.3469L172.286 70.6303L170.716 78.4237L169.304 78.1403ZM171.882 68.9887C171.608 68.9336 171.395 68.7992 171.244 68.5853C171.103 68.3734 171.059 68.1401 171.11 67.8852C171.163 67.6205 171.296 67.4176 171.508 67.2766C171.73 67.1375 171.978 67.0956 172.253 67.1507C172.527 67.2058 172.735 67.3393 172.876 67.5511C173.028 67.7552 173.079 67.9846 173.028 68.2395C172.974 68.5042 172.841 68.712 172.627 68.8628C172.415 69.0038 172.167 69.0458 171.882 68.9887ZM179.158 71.9333C179.796 72.0612 180.33 72.2959 180.761 72.6374C181.202 72.9809 181.509 73.4301 181.683 73.9852C181.857 74.5403 181.867 75.2001 181.713 75.9647L180.809 80.4496L179.397 80.1663L180.268 75.8431C180.42 75.0883 180.348 74.4823 180.053 74.0252C179.767 73.5701 179.291 73.2756 178.624 73.1418C178.124 73.0414 177.668 73.0519 177.256 73.1731C176.844 73.2944 176.497 73.5256 176.214 73.8665C175.941 74.2095 175.747 74.6653 175.632 75.2338L174.823 79.2482L173.412 78.9648L174.982 71.1714L176.335 71.443L175.911 73.5457L175.803 72.9427C176.161 72.4841 176.633 72.1658 177.22 71.9878C177.806 71.8097 178.453 71.7916 179.158 71.9333ZM188.606 84.9826C188.226 83.9784 188.002 82.8625 187.934 81.6349C187.867 80.3975 187.969 79.1024 188.242 77.7496C188.514 76.3968 188.921 75.1627 189.462 74.0473C190.005 72.9222 190.644 71.9795 191.378 71.2192L192.717 71.4878C191.919 72.4088 191.269 73.4104 190.765 74.4924C190.263 75.5647 189.883 76.7429 189.624 78.0271C189.366 79.3113 189.259 80.5495 189.304 81.7418C189.352 82.9242 189.565 84.0941 189.944 85.2513L188.606 84.9826ZM192.532 82.8027L194.606 72.5095L199.224 73.4365C200.41 73.6746 201.274 74.0978 201.814 74.706C202.357 75.3045 202.545 76.0155 202.379 76.8389C202.266 77.3977 202.044 77.8427 201.712 78.1738C201.39 78.5069 200.997 78.7341 200.534 78.8554C200.071 78.9766 199.595 78.988 199.104 78.8896L199.458 78.5016C200.046 78.6197 200.545 78.8269 200.955 79.1233C201.364 79.4197 201.661 79.7954 201.845 80.2505C202.03 80.6958 202.064 81.2125 201.945 81.8007C201.768 82.6829 201.296 83.3022 200.531 83.6586C199.777 84.0071 198.748 84.0504 197.444 83.7887L192.532 82.8027ZM194.243 81.9069L197.625 82.5858C198.439 82.7492 199.089 82.7369 199.576 82.549C200.063 82.3611 200.365 81.9731 200.484 81.3849C200.604 80.7869 200.476 80.3074 200.1 79.9463C199.724 79.5852 199.129 79.323 198.316 79.1597L194.801 78.4541L195.041 77.2631L198.188 77.8948C198.933 78.0443 199.539 78.0232 200.006 77.8314C200.473 77.6396 200.762 77.2692 200.873 76.7202C200.983 76.1712 200.86 75.7182 200.504 75.361C200.147 75.0039 199.597 74.7505 198.851 74.601L195.837 73.9958L194.243 81.9069ZM205.563 85.4184L207.379 76.4045L203.85 75.696L204.107 74.4167L212.623 76.1259L212.365 77.4052L208.835 76.6967L207.019 85.7106L205.563 85.4184ZM216.586 87.7534C215.802 87.5959 215.102 87.3229 214.487 86.9342C213.883 86.5376 213.384 86.0549 212.988 85.4859C212.605 84.9092 212.34 84.2746 212.194 83.5823C212.048 82.89 212.052 82.1615 212.206 81.3969C212.36 80.6323 212.638 79.9589 213.041 79.3768C213.444 78.7947 213.938 78.3176 214.523 77.9454C215.11 77.5635 215.757 77.311 216.466 77.188C217.186 77.0571 217.938 77.0704 218.722 77.2278C219.516 77.3873 220.219 77.6711 220.831 78.0794C221.454 78.4799 221.947 78.992 222.311 79.6159L221.169 80.3504C220.86 79.8599 220.48 79.4675 220.029 79.173C219.58 78.8688 219.076 78.6605 218.517 78.5484C217.939 78.4323 217.38 78.422 216.84 78.5177C216.311 78.6154 215.829 78.8043 215.395 79.0844C214.961 79.3645 214.592 79.7289 214.287 80.1778C213.994 80.6187 213.791 81.1235 213.676 81.6921C213.562 82.2607 213.553 82.8097 213.65 83.3392C213.76 83.8609 213.96 84.3346 214.252 84.7603C214.543 85.1861 214.914 85.5462 215.365 85.8406C215.826 86.137 216.345 86.3433 216.924 86.4594C217.483 86.5716 218.027 86.5789 218.557 86.4812C219.088 86.3737 219.593 86.1486 220.07 85.8058L220.839 86.924C220.262 87.3589 219.607 87.6457 218.875 87.7844C218.153 87.9251 217.39 87.9147 216.586 87.7534ZM222.325 91.7508L220.987 91.4822C221.794 90.5631 222.449 89.5675 222.95 88.4952C223.454 87.4132 223.835 86.2301 224.094 84.9459C224.352 83.6617 224.458 82.4283 224.411 81.2459C224.365 80.0536 224.148 78.8779 223.759 77.7187L225.098 77.9874C225.5 78.9759 225.729 80.0928 225.784 81.338C225.851 82.5754 225.749 83.8705 225.476 85.2233C225.204 86.5762 224.797 87.8102 224.256 88.9256C223.727 90.0331 223.083 90.9749 222.325 91.7508Z" fill="#CED4FF"/>
<rect x="0.391475" y="0.588551" width="14" height="14" rx="7" transform="matrix(0.980443 0.196796 -0.197493 0.980305 127.522 79.353)" fill="url(#paint2_linear_4071_99740)"/>
<rect x="0.391475" y="0.588551" width="14" height="14" rx="7" transform="matrix(0.980443 0.196796 -0.197493 0.980305 127.522 79.353)" stroke="url(#paint3_linear_4071_99740)"/>
<path d="M136.651 87.9885C136.989 87.0506 136.363 86.3852 135.436 85.8392L136.023 84.5961L135.272 84.2389L134.699 85.4482C134.502 85.3556 134.298 85.2633 134.097 85.1712L134.672 83.9535L133.921 83.5964L133.335 84.8386L131.821 84.1216L131.439 84.9297C131.439 84.9297 131.998 85.1821 131.984 85.1883C132.289 85.3337 132.303 85.5593 132.259 85.7256L130.649 89.1304C130.592 89.2219 130.462 89.348 130.249 89.2476C130.255 89.2605 129.705 88.9865 129.705 88.9865L129.128 89.8206L130.638 90.5453L130.045 91.8035L130.794 92.1589L131.381 90.9158C131.587 91.0174 131.784 91.1147 131.979 91.2067L131.393 92.4444L132.144 92.8015L132.738 91.5462C134.034 92.0748 135.068 92.1748 135.741 91.0328C136.285 90.1126 136.038 89.4703 135.404 88.9553C135.945 88.9385 136.403 88.6753 136.649 87.9884L136.651 87.9885ZM134.329 90.1771C133.885 91.116 132.339 90.2496 131.83 90.0089L132.618 88.3429C133.127 88.5851 134.792 89.1963 134.329 90.1771ZM135.091 87.661C134.687 88.5163 133.403 87.7824 132.98 87.5808L133.693 86.0693C134.116 86.2709 135.512 86.7693 135.091 87.661Z" fill="white"/>
<path d="M145.98 95.8974L147.915 86.2904L152.225 87.1556C153.333 87.3778 154.138 87.7728 154.643 88.3405C155.149 88.8991 155.325 89.5626 155.17 90.3312C155.065 90.8527 154.858 91.268 154.548 91.5771C154.247 91.888 153.881 92.1 153.449 92.2132C153.016 92.3264 152.571 92.337 152.114 92.2452L152.444 91.883C152.993 91.9932 153.459 92.1867 153.841 92.4633C154.223 92.7399 154.5 93.0906 154.671 93.5153C154.845 93.9309 154.876 94.4132 154.766 94.9621C154.6 95.7856 154.16 96.3636 153.445 96.6962C152.742 97.0215 151.781 97.0619 150.564 96.8177L145.98 95.8974ZM147.576 95.0613L150.733 95.695C151.493 95.8474 152.1 95.836 152.554 95.6606C153.008 95.4852 153.291 95.123 153.401 94.5741C153.514 94.016 153.394 93.5684 153.043 93.2314C152.692 92.8944 152.137 92.6497 151.378 92.4972L148.097 91.8387L148.321 90.7271L151.258 91.3167C151.954 91.4563 152.52 91.4365 152.956 91.2575C153.392 91.0784 153.661 90.7327 153.764 90.2204C153.868 89.708 153.753 89.2851 153.42 88.9518C153.087 88.6185 152.573 88.382 151.878 88.2424L149.064 87.6776L147.576 95.0613ZM156.176 97.9441L157.642 90.6702L158.959 90.9347L157.494 98.2085L156.176 97.9441ZM158.582 89.4026C158.326 89.3511 158.128 89.2256 157.987 89.026C157.856 88.8283 157.814 88.6105 157.862 88.3726C157.911 88.1255 158.035 87.9362 158.233 87.8046C158.44 87.6748 158.672 87.6356 158.928 87.687C159.184 87.7384 159.378 87.863 159.51 88.0608C159.652 88.2512 159.7 88.4654 159.652 88.7033C159.602 88.9503 159.477 89.1442 159.277 89.285C159.079 89.4166 158.848 89.4558 158.582 89.4026ZM162.491 99.2973C161.759 99.1504 161.232 98.8398 160.908 98.3656C160.585 97.8913 160.497 97.2882 160.644 96.5562L161.988 89.8862L163.306 90.1507L161.973 96.7658C161.894 97.1593 161.929 97.4805 162.079 97.7295C162.238 97.9803 162.5 98.1425 162.866 98.216C163.278 98.2986 163.644 98.2531 163.965 98.0795L164.186 99.1091C163.95 99.2426 163.681 99.322 163.381 99.3474C163.09 99.3746 162.793 99.3579 162.491 99.2973ZM160.214 92.3145L160.432 91.2303L165.072 92.1615L164.853 93.2458L160.214 92.3145ZM168.606 100.525C167.865 100.376 167.234 100.083 166.713 99.6449C166.201 99.2089 165.836 98.6788 165.619 98.0546C165.402 97.4303 165.367 96.7568 165.512 96.034C165.658 95.3112 165.952 94.7038 166.393 94.2118C166.835 93.7198 167.376 93.3761 168.015 93.1807C168.665 92.978 169.361 92.9511 170.102 93.0999C170.761 93.2321 171.32 93.4823 171.779 93.8505C172.249 94.2114 172.574 94.6765 172.754 95.2458L171.623 95.6897C171.456 95.2852 171.216 94.9656 170.902 94.7311C170.598 94.4893 170.25 94.3289 169.856 94.25C169.38 94.1544 168.934 94.1743 168.516 94.3094C168.098 94.4445 167.741 94.6822 167.444 95.0224C167.149 95.3534 166.949 95.7797 166.844 96.3012C166.739 96.8228 166.757 97.2977 166.899 97.7261C167.042 98.1544 167.279 98.5115 167.612 98.7972C167.945 99.083 168.349 99.2736 168.825 99.3691C169.218 99.4481 169.601 99.4392 169.973 99.3425C170.355 99.2384 170.702 99.0319 171.011 98.7228L171.886 99.5552C171.501 100.002 171.02 100.31 170.443 100.479C169.877 100.642 169.265 100.657 168.606 100.525ZM176.286 102.066C175.554 101.919 174.936 101.629 174.433 101.195C173.931 100.76 173.571 100.231 173.354 99.607C173.138 98.9736 173.103 98.3001 173.247 97.5864C173.392 96.8636 173.686 96.2562 174.128 95.7642C174.57 95.2722 175.106 94.9276 175.736 94.7304C176.368 94.5241 177.049 94.4944 177.782 94.6413C178.504 94.7864 179.117 95.076 179.62 95.5101C180.134 95.9369 180.495 96.4615 180.703 97.0839C180.921 97.699 180.957 98.3726 180.81 99.1045C180.664 99.8273 180.37 100.435 179.928 100.927C179.496 101.421 178.959 101.77 178.318 101.974C177.686 102.181 177.009 102.211 176.286 102.066ZM176.518 100.913C176.985 101.007 177.422 100.985 177.831 100.848C178.248 100.713 178.601 100.475 178.889 100.133C179.179 99.7814 179.375 99.3496 179.478 98.8373C179.583 98.3158 179.568 97.8463 179.434 97.4289C179.3 97.0024 179.068 96.6463 178.735 96.3605C178.411 96.0766 178.016 95.8878 177.549 95.7941C177.083 95.7005 176.645 95.7221 176.237 95.8591C175.828 95.9961 175.475 96.2346 175.178 96.5748C174.883 96.9059 174.683 97.3322 174.578 97.8537C174.475 98.3661 174.493 98.841 174.634 99.2785C174.776 99.7069 175.009 100.063 175.332 100.347C175.656 100.631 176.051 100.82 176.518 100.913ZM181.899 103.107L183.365 95.8334L184.682 96.0979L183.217 103.372L181.899 103.107ZM184.306 94.5657C184.049 94.5143 183.851 94.3888 183.71 94.1892C183.579 93.9915 183.537 93.7736 183.585 93.5358C183.635 93.2887 183.758 93.0994 183.956 92.9678C184.163 92.838 184.395 92.7988 184.651 92.8502C184.907 92.9016 185.101 93.0262 185.233 93.224C185.375 93.4144 185.423 93.6286 185.375 93.8665C185.325 94.1135 185.2 94.3074 185.001 94.4482C184.803 94.5798 184.571 94.619 184.306 94.5657ZM191.097 97.314C191.692 97.4334 192.19 97.6524 192.592 97.9712C193.004 98.2917 193.291 98.711 193.453 99.2291C193.615 99.7472 193.624 100.363 193.481 101.077L192.637 105.263L191.32 104.998L192.133 100.963C192.274 100.259 192.207 99.6931 191.932 99.2664C191.665 98.8416 191.22 98.5668 190.598 98.4419C190.132 98.3482 189.706 98.358 189.321 98.4712C188.937 98.5844 188.612 98.8001 188.348 99.1184C188.093 99.4385 187.913 99.8638 187.806 100.395L187.051 104.141L185.733 103.877L187.198 96.6029L188.461 96.8564L188.066 98.8189L187.965 98.2561C188.299 97.8281 188.74 97.531 189.287 97.3648C189.835 97.1987 190.438 97.1817 191.097 97.314Z" fill="#586281"/>
<rect width="81.5177" height="24.9544" rx="9.08937" transform="matrix(0.980443 0.196796 -0.197493 0.980306 112.592 153.622)" fill="#CED4FF"/>
<g clip-path="url(#clip0_4071_99740)">
<path d="M131.504 170.742C131.565 170.564 131.616 170.377 131.656 170.175C131.696 169.979 131.723 169.781 131.729 169.591L133.166 168.874C133.293 168.811 133.357 168.652 133.314 168.516L132.549 166.25C132.503 166.101 132.358 166.027 132.215 166.043L130.635 166.337C130.376 166.043 130.091 165.782 129.76 165.563L129.853 163.965C129.858 163.814 129.756 163.685 129.61 163.656L127.261 163.184C127.114 163.155 126.977 163.235 126.923 163.377L126.39 164.886C125.999 164.961 125.628 165.096 125.283 165.262L123.939 164.382C123.815 164.306 123.652 164.324 123.552 164.444L121.974 166.24C121.875 166.354 121.867 166.518 121.972 166.628L123.019 167.843C122.952 168.021 122.887 168.217 122.849 168.407C122.81 168.597 122.782 168.801 122.776 168.991L121.339 169.708C121.212 169.771 121.148 169.93 121.191 170.066L121.956 172.332C122.002 172.481 122.147 172.555 122.29 172.539L123.87 172.245C124.129 172.539 124.414 172.8 124.745 173.019L124.652 174.617C124.653 174.77 124.749 174.897 124.895 174.926L127.244 175.398C127.391 175.427 127.534 175.348 127.582 175.205L128.115 173.696C128.506 173.621 128.875 173.492 129.222 173.32L130.566 174.2C130.69 174.276 130.853 174.258 130.954 174.138L132.537 172.343C132.637 172.224 132.638 172.064 132.539 171.956L131.504 170.742ZM126.809 171.493C125.598 171.25 124.807 170.06 125.051 168.849C125.294 167.638 126.485 166.846 127.696 167.089C128.907 167.332 129.698 168.522 129.454 169.733C129.211 170.944 128.02 171.736 126.809 171.493Z" fill="#141117"/>
</g>
<path d="M139.705 176.36L140.985 170.008L138.487 169.507L138.726 168.323L145.121 169.607L144.883 170.791L142.385 170.289L141.105 176.641L139.705 176.36ZM146.504 177.803C145.916 177.685 145.417 177.454 145.008 177.111C144.601 176.76 144.309 176.336 144.133 175.838C143.958 175.339 143.927 174.807 144.041 174.24C144.157 173.665 144.391 173.186 144.745 172.802C145.1 172.41 145.533 172.135 146.043 171.976C146.553 171.817 147.102 171.796 147.691 171.914C148.287 172.034 148.789 172.266 149.198 172.609C149.614 172.954 149.907 173.371 150.077 173.861C150.254 174.352 150.284 174.888 150.167 175.469C150.053 176.036 149.818 176.516 149.463 176.907C149.115 177.3 148.682 177.579 148.163 177.744C147.653 177.903 147.1 177.923 146.504 177.803ZM146.737 176.651C147.067 176.718 147.375 176.705 147.663 176.613C147.95 176.521 148.193 176.354 148.392 176.11C148.597 175.867 148.737 175.563 148.811 175.197C148.886 174.824 148.875 174.489 148.778 174.194C148.689 173.892 148.53 173.644 148.3 173.448C148.071 173.253 147.795 173.123 147.472 173.058C147.142 172.991 146.833 173.004 146.545 173.096C146.265 173.189 146.022 173.357 145.817 173.599C145.612 173.834 145.473 174.139 145.398 174.512C145.324 174.878 145.335 175.212 145.431 175.515C145.526 175.818 145.685 176.067 145.908 176.261C146.137 176.456 146.414 176.586 146.737 176.651ZM153.444 179.196C152.856 179.078 152.357 178.847 151.948 178.504C151.541 178.153 151.249 177.729 151.073 177.23C150.897 176.732 150.866 176.2 150.981 175.633C151.096 175.058 151.331 174.579 151.685 174.195C152.04 173.803 152.473 173.528 152.983 173.369C153.493 173.21 154.042 173.189 154.63 173.307C155.226 173.427 155.729 173.658 156.137 174.002C156.553 174.347 156.846 174.764 157.017 175.254C157.194 175.745 157.224 176.281 157.107 176.862C156.993 177.429 156.758 177.909 156.403 178.3C156.055 178.693 155.621 178.972 155.103 179.137C154.593 179.296 154.04 179.316 153.444 179.196ZM153.676 178.044C154.006 178.11 154.315 178.098 154.602 178.006C154.89 177.914 155.133 177.747 155.331 177.503C155.537 177.26 155.677 176.956 155.75 176.59C155.826 176.217 155.815 175.882 155.717 175.586C155.629 175.285 155.47 175.036 155.24 174.841C155.011 174.646 154.734 174.516 154.411 174.451C154.081 174.384 153.772 174.397 153.485 174.489C153.205 174.582 152.962 174.75 152.756 174.992C152.552 175.227 152.412 175.532 152.337 175.905C152.263 176.271 152.275 176.605 152.37 176.908C152.466 177.211 152.625 177.46 152.847 177.654C153.077 177.849 153.353 177.979 153.676 178.044ZM157.815 179.995L159.424 172.007L160.77 172.277L159.161 180.265L157.815 179.995ZM162.689 181.052C162.208 180.955 161.757 180.801 161.337 180.59C160.925 180.373 160.608 180.149 160.385 179.917L161.108 178.998C161.333 179.215 161.615 179.414 161.952 179.593C162.289 179.773 162.637 179.899 162.996 179.971C163.419 180.056 163.736 180.06 163.946 179.982C164.163 179.906 164.291 179.772 164.33 179.578C164.362 179.42 164.321 179.288 164.208 179.184C164.096 179.072 163.94 178.973 163.741 178.888C163.541 178.803 163.316 178.717 163.065 178.629C162.821 178.543 162.575 178.445 162.328 178.336C162.09 178.221 161.878 178.085 161.693 177.928C161.51 177.765 161.374 177.569 161.285 177.342C161.196 177.116 161.185 176.837 161.252 176.507C161.325 176.141 161.493 175.846 161.755 175.622C162.018 175.391 162.351 175.242 162.753 175.173C163.164 175.099 163.627 175.113 164.144 175.217C164.532 175.295 164.914 175.416 165.292 175.582C165.669 175.747 165.971 175.935 166.198 176.144L165.475 177.063C165.235 176.844 164.981 176.677 164.713 176.563C164.453 176.444 164.187 176.357 163.914 176.302C163.505 176.22 163.188 176.22 162.962 176.301C162.744 176.385 162.616 176.519 162.578 176.706C162.544 176.878 162.582 177.02 162.694 177.132C162.806 177.245 162.961 177.347 163.159 177.439C163.357 177.531 163.578 177.62 163.822 177.706C164.075 177.787 164.32 177.884 164.558 177.999C164.796 178.114 165.008 178.25 165.193 178.407C165.387 178.558 165.528 178.747 165.617 178.974C165.705 179.2 165.717 179.475 165.652 179.798C165.58 180.157 165.409 180.448 165.14 180.67C164.879 180.894 164.539 181.042 164.121 181.115C163.704 181.181 163.227 181.16 162.689 181.052Z" fill="#141117"/>
<path d="M175.509 177.871C175.316 177.575 174.92 177.511 174.642 177.725C174.381 177.927 174.314 178.305 174.496 178.583L176.745 182.027C176.929 182.31 177.302 182.384 177.582 182.195L180.99 179.886C181.265 179.7 181.35 179.325 181.187 179.039C181.013 178.734 180.624 178.641 180.331 178.839L177.426 180.807L175.509 177.871Z" fill="#141117"/>
<path d="M298.58 100.913L298.794 99.851L305.624 93.995L307.262 94.3238L300.478 100.189L299.753 99.791L308.232 101.493L307.969 102.797L298.58 100.913ZM303.955 104.705L304.481 102.097L304.789 100.802L305.253 98.4966L306.679 98.7828L305.427 105.001L303.955 104.705ZM309.632 105.94C309.349 105.883 309.126 105.738 308.962 105.505C308.801 105.262 308.75 104.989 308.812 104.686C308.873 104.383 309.024 104.155 309.265 104.004C309.506 103.852 309.768 103.805 310.051 103.862C310.324 103.917 310.537 104.059 310.69 104.29C310.854 104.523 310.905 104.791 310.844 105.094C310.783 105.397 310.631 105.63 310.388 105.791C310.157 105.945 309.905 105.994 309.632 105.94ZM316.222 107.294C315.393 107.127 314.692 106.766 314.12 106.209C313.559 105.655 313.167 104.935 312.946 104.049C312.735 103.165 312.745 102.146 312.978 100.994C313.21 99.8411 313.594 98.8979 314.131 98.1642C314.679 97.4325 315.319 96.9192 316.051 96.6245C316.794 96.3318 317.58 96.2686 318.409 96.4351C319.228 96.5995 319.924 96.96 320.496 97.5165C321.067 98.0731 321.459 98.7934 321.67 99.6773C321.881 100.561 321.871 101.58 321.638 102.732C321.406 103.885 321.022 104.828 320.484 105.562C319.947 106.295 319.307 106.809 318.565 107.101C317.822 107.394 317.041 107.458 316.222 107.294ZM316.494 105.944C317.05 106.056 317.566 106.001 318.041 105.781C318.527 105.563 318.948 105.174 319.302 104.614C319.667 104.056 319.94 103.328 320.122 102.428C320.303 101.528 320.333 100.75 320.213 100.095C320.102 99.4416 319.866 98.9206 319.502 98.5321C319.148 98.1455 318.694 97.8965 318.137 97.7848C317.581 97.6732 317.06 97.7264 316.574 97.9445C316.089 98.1626 315.663 98.5506 315.298 99.1085C314.944 99.6684 314.676 100.398 314.494 101.298C314.313 102.198 314.278 102.975 314.388 103.628C314.508 104.283 314.75 104.805 315.114 105.194C315.478 105.582 315.938 105.832 316.494 105.944ZM323.815 108.692L325.831 98.6822L326.34 99.5259L323.291 98.914L323.557 97.5946L327.455 98.377L325.317 108.993L323.815 108.692ZM330.861 110.232C330.112 110.082 329.408 109.82 328.747 109.445C328.096 109.072 327.588 108.644 327.222 108.161L328.161 107.103C328.448 107.507 328.853 107.873 329.376 108.199C329.9 108.525 330.485 108.752 331.132 108.882C331.921 109.041 332.567 108.997 333.069 108.75C333.583 108.496 333.898 108.08 334.014 107.504C334.126 106.948 334.003 106.461 333.646 106.042C333.3 105.615 332.673 105.31 331.763 105.127L330.913 104.957L331.127 103.895L335.064 100.646L335.154 101.295L329.345 100.129L329.611 98.8097L336.618 100.216L336.411 101.248L332.492 104.485L331.798 103.856L332.298 103.957C333.583 104.214 334.485 104.695 335.006 105.4C335.537 106.106 335.713 106.904 335.534 107.793C335.414 108.39 335.157 108.906 334.764 109.343C334.371 109.78 333.847 110.085 333.191 110.258C332.547 110.423 331.771 110.415 330.861 110.232Z" fill="#CED4FF"/>
<path d="M341.446 113.082C341.142 112.276 340.963 111.381 340.907 110.396C340.854 109.404 340.936 108.365 341.155 107.28C341.373 106.194 341.7 105.204 342.133 104.31C342.569 103.407 343.081 102.651 343.671 102.041L344.744 102.257C344.104 102.995 343.582 103.799 343.179 104.667C342.776 105.527 342.471 106.472 342.264 107.502C342.056 108.532 341.971 109.526 342.007 110.482C342.045 111.431 342.216 112.369 342.52 113.297L341.446 113.082ZM346.423 113.172L348.657 102.085L349.412 102.236L347.178 113.324L346.423 113.172ZM346.984 111.911C346.355 111.784 345.772 111.569 345.236 111.265C344.701 110.953 344.3 110.611 344.031 110.238L344.653 109.405C344.912 109.744 345.267 110.052 345.719 110.331C346.17 110.61 346.659 110.802 347.186 110.908C347.666 111.004 348.066 111.027 348.387 110.977C348.708 110.927 348.958 110.822 349.138 110.662C349.319 110.493 349.434 110.287 349.483 110.044C349.54 109.761 349.492 109.514 349.338 109.303C349.192 109.093 348.98 108.908 348.702 108.745C348.433 108.577 348.129 108.418 347.791 108.268C347.453 108.118 347.114 107.956 346.772 107.781C346.441 107.6 346.142 107.397 345.876 107.172C345.619 106.948 345.427 106.681 345.302 106.369C345.178 106.05 345.16 105.67 345.249 105.23C345.334 104.805 345.523 104.438 345.814 104.128C346.115 103.812 346.519 103.595 347.026 103.475C347.542 103.35 348.162 103.36 348.886 103.505C349.366 103.601 349.829 103.76 350.275 103.98C350.722 104.201 351.094 104.464 351.393 104.769L350.813 105.635C350.507 105.328 350.168 105.084 349.795 104.903C349.424 104.714 349.054 104.582 348.684 104.508C348.22 104.415 347.827 104.397 347.504 104.455C347.181 104.513 346.929 104.626 346.748 104.794C346.575 104.964 346.464 105.171 346.415 105.415C346.356 105.705 346.4 105.956 346.546 106.165C346.7 106.376 346.912 106.562 347.182 106.722C347.46 106.884 347.768 107.044 348.104 107.202C348.442 107.352 348.778 107.513 349.111 107.686C349.453 107.861 349.752 108.06 350.01 108.284C350.275 108.509 350.471 108.777 350.596 109.089C350.722 109.4 350.741 109.772 350.654 110.205C350.57 110.622 350.377 110.988 350.076 111.304C349.777 111.612 349.365 111.828 348.841 111.952C348.327 112.07 347.707 112.056 346.984 111.911ZM354.7 113.459C353.969 113.313 353.376 113.026 352.922 112.599C352.468 112.173 352.164 111.629 352.011 110.968C351.867 110.301 351.884 109.527 352.061 108.647C352.25 107.711 352.574 106.954 353.034 106.375C353.495 105.797 354.053 105.401 354.709 105.189C355.366 104.978 356.075 104.948 356.838 105.101C357.232 105.18 357.597 105.295 357.935 105.444C358.281 105.596 358.567 105.78 358.794 105.997L358.16 106.827C357.978 106.635 357.755 106.484 357.49 106.374C357.234 106.265 356.956 106.181 356.658 106.121C355.816 105.952 355.094 106.081 354.493 106.508C353.893 106.928 353.489 107.653 353.281 108.683C353.248 108.848 353.216 109.046 353.186 109.277C353.156 109.509 353.15 109.741 353.169 109.973L352.848 109.492C353.039 109.154 353.285 108.888 353.586 108.695C353.896 108.495 354.24 108.372 354.618 108.325C355.005 108.272 355.407 108.287 355.824 108.371C356.374 108.481 356.841 108.681 357.225 108.971C357.608 109.261 357.884 109.619 358.052 110.045C358.221 110.464 358.254 110.929 358.151 111.44C358.045 111.967 357.823 112.401 357.484 112.742C357.145 113.083 356.734 113.315 356.251 113.439C355.768 113.563 355.251 113.57 354.7 113.459ZM354.846 112.495C355.207 112.567 355.536 112.563 355.83 112.483C356.132 112.405 356.386 112.264 356.59 112.059C356.797 111.847 356.932 111.58 356.997 111.257C357.096 110.77 357.004 110.351 356.723 110C356.443 109.641 356.013 109.403 355.431 109.286C355.053 109.21 354.709 109.215 354.397 109.299C354.085 109.384 353.822 109.532 353.608 109.742C353.403 109.947 353.27 110.202 353.208 110.509C353.151 110.792 353.173 111.071 353.273 111.344C353.375 111.61 353.556 111.847 353.817 112.055C354.078 112.263 354.421 112.409 354.846 112.495ZM361.982 114.921C361.25 114.774 360.657 114.487 360.203 114.061C359.749 113.634 359.445 113.091 359.292 112.43C359.148 111.763 359.165 110.989 359.342 110.108C359.531 109.172 359.855 108.415 360.316 107.837C360.776 107.258 361.334 106.863 361.991 106.651C362.647 106.439 363.357 106.41 364.12 106.563C364.513 106.642 364.878 106.756 365.216 106.906C365.562 107.057 365.849 107.241 366.075 107.458L365.441 108.289C365.259 108.097 365.036 107.945 364.772 107.835C364.515 107.726 364.238 107.642 363.939 107.582C363.097 107.413 362.376 107.542 361.774 107.97C361.174 108.389 360.77 109.114 360.563 110.144C360.529 110.309 360.498 110.508 360.467 110.739C360.437 110.97 360.431 111.202 360.45 111.435L360.13 110.953C360.32 110.615 360.566 110.35 360.867 110.156C361.177 109.957 361.521 109.834 361.899 109.787C362.286 109.733 362.688 109.749 363.105 109.832C363.655 109.943 364.122 110.143 364.506 110.433C364.889 110.722 365.165 111.08 365.333 111.507C365.502 111.925 365.535 112.39 365.432 112.901C365.326 113.428 365.104 113.862 364.765 114.203C364.426 114.544 364.015 114.777 363.532 114.901C363.049 115.025 362.532 115.031 361.982 114.921ZM362.127 113.956C362.489 114.029 362.817 114.025 363.111 113.945C363.413 113.866 363.667 113.725 363.872 113.521C364.078 113.309 364.214 113.041 364.279 112.719C364.377 112.231 364.285 111.812 364.004 111.461C363.725 111.102 363.294 110.864 362.712 110.748C362.334 110.672 361.99 110.676 361.678 110.761C361.366 110.846 361.103 110.993 360.889 111.204C360.684 111.408 360.551 111.664 360.489 111.971C360.432 112.254 360.454 112.532 360.554 112.806C360.656 113.072 360.838 113.309 361.098 113.516C361.359 113.724 361.702 113.871 362.127 113.956ZM365.636 117.373L366.706 115.108L366.721 115.823C366.493 115.777 366.315 115.668 366.186 115.495C366.065 115.323 366.029 115.116 366.078 114.872C366.126 114.636 366.239 114.458 366.419 114.339C366.606 114.221 366.81 114.184 367.03 114.228C367.258 114.274 367.427 114.39 367.537 114.576C367.649 114.753 367.681 114.956 367.635 115.184C367.62 115.263 367.596 115.34 367.564 115.416C367.542 115.485 367.505 115.567 367.453 115.663C367.41 115.753 367.347 115.863 367.264 115.993L366.379 117.522L365.636 117.373ZM371.912 116.914C371.181 116.767 370.588 116.481 370.134 116.054C369.68 115.628 369.376 115.084 369.223 114.423C369.079 113.756 369.096 112.982 369.273 112.101C369.462 111.166 369.786 110.408 370.247 109.83C370.707 109.251 371.265 108.856 371.922 108.644C372.578 108.432 373.288 108.403 374.05 108.556C374.444 108.635 374.809 108.749 375.147 108.899C375.493 109.05 375.779 109.235 376.006 109.452L375.372 110.282C375.19 110.09 374.967 109.939 374.702 109.828C374.446 109.72 374.169 109.635 373.87 109.575C373.028 109.406 372.307 109.536 371.705 109.963C371.105 110.383 370.701 111.108 370.494 112.138C370.46 112.303 370.429 112.501 370.398 112.732C370.368 112.963 370.362 113.195 370.381 113.428L370.061 112.947C370.251 112.609 370.497 112.343 370.798 112.15C371.108 111.95 371.452 111.827 371.83 111.78C372.217 111.727 372.619 111.742 373.036 111.826C373.586 111.936 374.053 112.136 374.437 112.426C374.82 112.716 375.096 113.074 375.264 113.5C375.433 113.919 375.466 114.384 375.363 114.895C375.257 115.422 375.035 115.856 374.696 116.197C374.357 116.538 373.946 116.77 373.463 116.894C372.98 117.018 372.463 117.025 371.912 116.914ZM372.058 115.949C372.42 116.022 372.748 116.018 373.042 115.938C373.344 115.86 373.598 115.718 373.802 115.514C374.009 115.302 374.145 115.035 374.21 114.712C374.308 114.225 374.216 113.805 373.935 113.454C373.656 113.096 373.225 112.858 372.643 112.741C372.265 112.665 371.921 112.67 371.609 112.754C371.297 112.839 371.034 112.987 370.82 113.197C370.615 113.402 370.482 113.657 370.42 113.964C370.363 114.247 370.385 114.525 370.485 114.799C370.587 115.065 370.768 115.302 371.029 115.51C371.29 115.718 371.633 115.864 372.058 115.949ZM380.105 109.771C380.852 109.921 381.449 110.209 381.895 110.634C382.349 111.061 382.648 111.607 382.792 112.274C382.937 112.934 382.921 113.704 382.744 114.584C382.555 115.52 382.231 116.277 381.771 116.856C381.31 117.434 380.756 117.83 380.107 118.044C379.459 118.257 378.745 118.286 377.967 118.129C377.581 118.052 377.216 117.938 376.87 117.787C376.532 117.637 376.246 117.453 376.011 117.234L376.645 116.404C376.837 116.59 377.06 116.741 377.315 116.857C377.579 116.968 377.86 117.053 378.159 117.113C378.993 117.28 379.71 117.154 380.31 116.734C380.911 116.307 381.316 115.578 381.524 114.548C381.557 114.383 381.589 114.185 381.619 113.953C381.649 113.722 381.659 113.491 381.648 113.26L381.957 113.739C381.774 114.079 381.527 114.348 381.217 114.548C380.916 114.741 380.572 114.864 380.185 114.917C379.807 114.964 379.406 114.945 378.981 114.86C378.439 114.751 377.976 114.552 377.592 114.262C377.209 113.972 376.932 113.618 376.763 113.2C376.595 112.773 376.563 112.305 376.666 111.793C376.773 111.259 376.992 110.824 377.321 110.489C377.66 110.148 378.071 109.915 378.554 109.792C379.045 109.669 379.562 109.662 380.105 109.771ZM379.959 110.736C379.605 110.665 379.277 110.669 378.975 110.747C378.673 110.826 378.419 110.967 378.215 111.172C378.018 111.377 377.886 111.646 377.819 111.976C377.721 112.463 377.812 112.887 378.091 113.245C378.373 113.596 378.8 113.83 379.374 113.945C379.752 114.021 380.096 114.016 380.408 113.931C380.728 113.848 380.991 113.701 381.197 113.488C381.411 113.278 381.549 113.023 381.609 112.724C381.667 112.433 381.646 112.155 381.544 111.889C381.442 111.623 381.26 111.386 381 111.178C380.739 110.97 380.392 110.823 379.959 110.736ZM383.316 116.994L383.482 116.168L388.794 111.614L390.068 111.87L384.792 116.431L384.228 116.122L390.823 117.445L390.619 118.46L383.316 116.994ZM387.497 119.944L387.905 117.915L388.145 116.908L388.506 115.115L389.615 115.338L388.641 120.174L387.497 119.944ZM391.912 120.904C391.692 120.86 391.518 120.747 391.391 120.566C391.265 120.377 391.226 120.165 391.274 119.929C391.321 119.693 391.439 119.516 391.626 119.398C391.813 119.281 392.017 119.244 392.237 119.288C392.45 119.331 392.616 119.442 392.735 119.621C392.862 119.802 392.902 120.011 392.855 120.246C392.807 120.482 392.689 120.663 392.5 120.789C392.32 120.908 392.124 120.947 391.912 120.904ZM398.181 113.4C398.928 113.55 399.525 113.837 399.971 114.262C400.425 114.689 400.724 115.236 400.868 115.903C401.013 116.562 400.997 117.332 400.82 118.213C400.631 119.148 400.307 119.905 399.847 120.484C399.387 121.063 398.832 121.459 398.184 121.672C397.535 121.885 396.821 121.914 396.043 121.758C395.657 121.68 395.292 121.566 394.946 121.415C394.608 121.265 394.322 121.081 394.088 120.862L394.721 120.032C394.913 120.218 395.136 120.369 395.391 120.486C395.655 120.596 395.937 120.681 396.235 120.741C397.069 120.908 397.786 120.782 398.386 120.363C398.988 119.935 399.392 119.206 399.6 118.176C399.633 118.011 399.665 117.813 399.695 117.582C399.725 117.351 399.735 117.119 399.724 116.888L400.033 117.367C399.85 117.707 399.603 117.977 399.293 118.176C398.992 118.369 398.648 118.493 398.261 118.546C397.883 118.593 397.482 118.573 397.057 118.488C396.515 118.379 396.052 118.18 395.668 117.89C395.285 117.601 395.008 117.246 394.839 116.828C394.671 116.402 394.639 115.933 394.742 115.422C394.849 114.887 395.068 114.452 395.397 114.117C395.736 113.776 396.147 113.544 396.63 113.42C397.121 113.297 397.638 113.291 398.181 113.4ZM398.036 114.365C397.682 114.294 397.354 114.297 397.051 114.376C396.749 114.454 396.496 114.595 396.291 114.8C396.094 115.006 395.962 115.274 395.896 115.604C395.797 116.092 395.888 116.515 396.168 116.874C396.449 117.225 396.876 117.458 397.451 117.573C397.828 117.649 398.173 117.644 398.484 117.56C398.804 117.477 399.067 117.329 399.273 117.117C399.487 116.906 399.625 116.651 399.685 116.352C399.744 116.061 399.722 115.783 399.62 115.517C399.518 115.251 399.337 115.014 399.076 114.807C398.815 114.599 398.468 114.451 398.036 114.365ZM403.749 123.304C403.167 123.188 402.619 122.984 402.105 122.692C401.598 122.402 401.203 122.069 400.919 121.693L401.649 120.87C401.872 121.185 402.187 121.469 402.594 121.723C403.002 121.976 403.453 122.153 403.948 122.252C404.578 122.379 405.088 122.342 405.48 122.143C405.872 121.943 406.114 121.619 406.204 121.171C406.266 120.864 406.245 120.582 406.141 120.324C406.038 120.066 405.813 119.841 405.467 119.649C405.131 119.45 404.644 119.287 404.007 119.159L402.131 118.783L403.437 114.553L408.097 115.488L407.891 116.515L403.667 115.667L404.397 115.212L403.368 118.552L402.869 117.863L404.461 118.183C405.287 118.348 405.93 118.588 406.391 118.901C406.852 119.215 407.158 119.583 407.31 120.006C407.464 120.422 407.491 120.873 407.393 121.361C407.298 121.832 407.097 122.242 406.79 122.589C406.484 122.929 406.075 123.17 405.564 123.313C405.062 123.449 404.457 123.447 403.749 123.304ZM408.3 126.501L407.226 126.285C407.874 125.548 408.399 124.749 408.801 123.889C409.205 123.021 409.511 122.072 409.718 121.042C409.926 120.012 410.011 119.022 409.973 118.074C409.936 117.117 409.762 116.174 409.45 115.244L410.524 115.46C410.847 116.253 411.031 117.149 411.075 118.148C411.128 119.14 411.046 120.179 410.827 121.264C410.609 122.35 410.282 123.34 409.849 124.234C409.424 125.123 408.908 125.878 408.3 126.501Z" fill="#586281"/>
<path d="M312.052 126.165L313.396 119.492L313.735 120.055L311.703 119.647L311.88 118.767L314.479 119.289L313.053 126.366L312.052 126.165ZM315.257 126.872C315.068 126.834 314.919 126.737 314.81 126.582C314.702 126.42 314.669 126.238 314.71 126.036C314.75 125.834 314.851 125.682 315.012 125.581C315.172 125.48 315.347 125.449 315.536 125.486C315.718 125.523 315.86 125.618 315.962 125.772C316.071 125.927 316.105 126.106 316.065 126.308C316.024 126.51 315.922 126.665 315.76 126.773C315.607 126.875 315.439 126.908 315.257 126.872ZM319.65 127.774C319.097 127.663 318.63 127.422 318.249 127.051C317.874 126.682 317.613 126.201 317.466 125.611C317.325 125.022 317.332 124.343 317.487 123.574C317.642 122.806 317.898 122.177 318.256 121.688C318.621 121.2 319.048 120.858 319.536 120.661C320.031 120.466 320.555 120.424 321.108 120.535C321.654 120.645 322.118 120.885 322.499 121.256C322.88 121.627 323.141 122.107 323.282 122.697C323.423 123.286 323.416 123.965 323.261 124.733C323.106 125.502 322.85 126.13 322.492 126.62C322.133 127.109 321.707 127.451 321.212 127.646C320.716 127.841 320.196 127.884 319.65 127.774ZM319.831 126.875C320.202 126.949 320.546 126.913 320.863 126.766C321.187 126.621 321.467 126.361 321.703 125.988C321.947 125.616 322.129 125.13 322.25 124.53C322.37 123.93 322.391 123.412 322.31 122.975C322.237 122.54 322.079 122.192 321.836 121.933C321.601 121.676 321.298 121.509 320.927 121.435C320.556 121.361 320.209 121.396 319.885 121.541C319.561 121.687 319.277 121.946 319.034 122.317C318.798 122.691 318.619 123.177 318.498 123.777C318.377 124.377 318.354 124.895 318.427 125.33C318.507 125.767 318.669 126.115 318.911 126.374C319.154 126.633 319.46 126.8 319.831 126.875ZM325.788 129.006C325.289 128.906 324.819 128.731 324.378 128.482C323.944 128.233 323.606 127.948 323.362 127.625L323.988 126.92C324.179 127.19 324.449 127.433 324.798 127.651C325.147 127.868 325.534 128.019 325.959 128.105C326.498 128.213 326.936 128.181 327.272 128.01C327.608 127.839 327.815 127.562 327.892 127.178C327.945 126.915 327.927 126.673 327.838 126.452C327.75 126.23 327.557 126.037 327.261 125.873C326.972 125.703 326.555 125.563 326.009 125.453L324.401 125.13L325.521 121.505L329.515 122.307L329.338 123.186L325.718 122.46L326.343 122.07L325.461 124.933L325.033 124.342L326.399 124.616C327.106 124.758 327.658 124.964 328.052 125.232C328.447 125.501 328.71 125.816 328.84 126.179C328.972 126.535 328.995 126.922 328.911 127.34C328.83 127.745 328.657 128.096 328.394 128.393C328.132 128.684 327.782 128.891 327.343 129.014C326.913 129.131 326.394 129.128 325.788 129.006ZM333.324 132.476C333.063 131.785 332.909 131.018 332.862 130.174C332.816 129.323 332.887 128.433 333.074 127.502C333.261 126.572 333.541 125.724 333.913 124.957C334.286 124.183 334.726 123.535 335.231 123.012L336.151 123.197C335.602 123.83 335.155 124.519 334.809 125.263C334.464 126 334.202 126.81 334.025 127.693C333.847 128.576 333.773 129.428 333.805 130.247C333.837 131.06 333.984 131.865 334.244 132.66L333.324 132.476ZM337.59 132.553L339.504 123.05L340.151 123.179L338.237 132.683L337.59 132.553ZM338.07 131.472C337.531 131.364 337.032 131.179 336.572 130.919C336.114 130.651 335.77 130.358 335.54 130.038L336.073 129.325C336.295 129.615 336.599 129.879 336.986 130.118C337.373 130.357 337.792 130.522 338.244 130.612C338.655 130.695 338.998 130.715 339.273 130.672C339.548 130.629 339.763 130.539 339.917 130.401C340.072 130.257 340.171 130.081 340.213 129.872C340.262 129.629 340.22 129.417 340.088 129.236C339.963 129.057 339.781 128.898 339.543 128.759C339.312 128.614 339.052 128.478 338.763 128.35C338.473 128.221 338.182 128.082 337.889 127.932C337.605 127.777 337.349 127.603 337.121 127.41C336.9 127.219 336.736 126.989 336.629 126.722C336.522 126.448 336.507 126.123 336.583 125.745C336.657 125.381 336.818 125.067 337.068 124.801C337.326 124.53 337.672 124.344 338.107 124.242C338.549 124.134 339.081 124.143 339.701 124.267C340.112 124.35 340.509 124.485 340.892 124.675C341.275 124.864 341.594 125.089 341.85 125.351L341.353 126.093C341.09 125.829 340.799 125.62 340.48 125.465C340.162 125.303 339.845 125.19 339.528 125.127C339.13 125.047 338.793 125.032 338.516 125.081C338.24 125.131 338.024 125.228 337.869 125.372C337.72 125.518 337.625 125.695 337.583 125.904C337.532 126.153 337.57 126.368 337.695 126.547C337.827 126.728 338.009 126.887 338.24 127.025C338.479 127.164 338.742 127.301 339.031 127.436C339.321 127.564 339.608 127.702 339.894 127.851C340.187 128.001 340.443 128.172 340.664 128.363C340.892 128.556 341.059 128.786 341.167 129.053C341.274 129.32 341.291 129.639 341.216 130.01C341.144 130.367 340.979 130.681 340.721 130.952C340.465 131.216 340.112 131.401 339.663 131.507C339.221 131.608 338.691 131.596 338.07 131.472ZM342.823 132.341L344.167 125.669L344.506 126.231L342.473 125.823L342.651 124.943L345.249 125.465L343.824 132.542L342.823 132.341ZM346.595 133.099L350.939 127.049L351.11 127.557L346.904 126.712L347.509 126.318L347.155 128.078L346.184 127.883L346.616 125.739L351.955 126.811L351.816 127.498L347.667 133.314L346.595 133.099ZM350.641 135.468L351.558 133.527L351.571 134.14C351.376 134.1 351.223 134.007 351.113 133.858C351.009 133.711 350.978 133.533 351.02 133.324C351.061 133.122 351.158 132.97 351.312 132.867C351.473 132.766 351.648 132.735 351.836 132.773C352.032 132.812 352.177 132.911 352.271 133.07C352.366 133.223 352.395 133.397 352.355 133.592C352.342 133.66 352.321 133.726 352.294 133.79C352.275 133.85 352.243 133.92 352.199 134.003C352.162 134.079 352.108 134.174 352.037 134.286L351.278 135.596L350.641 135.468ZM353.343 132.644L353.486 131.936L358.039 128.032L359.131 128.251L354.608 132.161L354.125 131.896L359.778 133.031L359.603 133.9L353.343 132.644ZM356.927 135.172L357.277 133.433L357.482 132.57L357.792 131.033L358.743 131.224L357.907 135.369L356.927 135.172ZM362.118 136.299C361.619 136.198 361.149 136.024 360.708 135.774C360.274 135.525 359.936 135.24 359.692 134.918L360.318 134.212C360.509 134.482 360.779 134.726 361.128 134.943C361.477 135.16 361.864 135.311 362.289 135.397C362.828 135.505 363.266 135.474 363.602 135.303C363.938 135.132 364.145 134.854 364.222 134.47C364.275 134.207 364.257 133.965 364.168 133.744C364.08 133.523 363.887 133.33 363.591 133.165C363.302 132.995 362.885 132.855 362.339 132.745L360.731 132.423L361.851 128.797L365.845 129.599L365.668 130.479L362.048 129.752L362.673 129.362L361.792 132.225L361.363 131.634L362.729 131.908C363.436 132.05 363.988 132.256 364.382 132.524C364.777 132.793 365.04 133.109 365.17 133.471C365.302 133.827 365.326 134.214 365.241 134.632C365.16 135.037 364.987 135.388 364.724 135.686C364.462 135.977 364.112 136.183 363.673 136.306C363.243 136.423 362.724 136.42 362.118 136.299ZM368.531 137.586C367.978 137.475 367.511 137.234 367.13 136.863C366.756 136.493 366.495 136.013 366.347 135.422C366.206 134.833 366.213 134.154 366.368 133.386C366.523 132.617 366.779 131.989 367.137 131.499C367.502 131.012 367.929 130.669 368.417 130.473C368.912 130.278 369.436 130.236 369.989 130.347C370.535 130.456 370.999 130.697 371.38 131.068C371.761 131.439 372.022 131.919 372.163 132.508C372.304 133.097 372.297 133.776 372.142 134.545C371.987 135.313 371.731 135.942 371.373 136.431C371.015 136.92 370.588 137.262 370.093 137.458C369.598 137.653 369.077 137.695 368.531 137.586ZM368.712 136.686C369.083 136.76 369.427 136.724 369.744 136.578C370.068 136.432 370.348 136.173 370.585 135.8C370.828 135.428 371.01 134.942 371.131 134.342C371.252 133.742 371.272 133.223 371.192 132.787C371.118 132.351 370.96 132.004 370.718 131.745C370.482 131.487 370.179 131.321 369.808 131.247C369.437 131.172 369.09 131.208 368.766 131.353C368.442 131.498 368.159 131.757 367.915 132.129C367.679 132.502 367.5 132.989 367.379 133.589C367.258 134.189 367.235 134.706 367.308 135.142C367.389 135.579 367.55 135.927 367.792 136.186C368.035 136.445 368.341 136.612 368.712 136.686ZM372.936 138.449C372.748 138.411 372.599 138.315 372.49 138.16C372.382 137.998 372.349 137.816 372.389 137.613C372.43 137.411 372.531 137.26 372.691 137.159C372.852 137.058 373.027 137.026 373.215 137.064C373.397 137.1 373.54 137.196 373.642 137.349C373.751 137.505 373.785 137.683 373.744 137.885C373.704 138.088 373.602 138.243 373.44 138.35C373.286 138.453 373.118 138.486 372.936 138.449ZM375.667 138.934L380.011 132.884L380.182 133.392L375.976 132.548L376.581 132.154L376.227 133.913L375.256 133.718L375.688 131.575L381.027 132.646L380.888 133.334L376.739 139.149L375.667 138.934ZM381.779 140.161L383.124 133.488L383.463 134.05L381.43 133.642L381.607 132.763L384.206 133.284L382.78 140.362L381.779 140.161ZM384.692 142.786L383.772 142.602C384.327 141.97 384.777 141.285 385.122 140.548C385.468 139.804 385.73 138.99 385.908 138.107C386.086 137.224 386.159 136.376 386.126 135.563C386.095 134.744 385.946 133.935 385.678 133.138L386.598 133.323C386.875 134.003 387.033 134.771 387.071 135.627C387.117 136.477 387.046 137.368 386.859 138.298C386.671 139.228 386.392 140.077 386.02 140.844C385.656 141.605 385.213 142.253 384.692 142.786Z" fill="#586281"/>
<path d="M396.629 134.328C396.248 134.252 395.876 134.499 395.799 134.88C395.723 135.262 395.969 135.633 396.351 135.71L402.403 136.924L394.545 142.151C394.221 142.366 394.133 142.804 394.348 143.128C394.564 143.451 395.001 143.539 395.325 143.324L403.183 138.097L401.964 144.148C401.887 144.529 402.134 144.901 402.515 144.977C402.897 145.054 403.268 144.807 403.345 144.425L404.9 136.707C404.937 136.524 404.9 136.334 404.796 136.178C404.693 136.023 404.532 135.915 404.349 135.878L396.629 134.328Z" fill="#EE3232"/>
<rect x="0.696895" y="1.04391" width="336.958" height="177.179" rx="27.5232" transform="matrix(0.980774 0.195148 -0.195845 0.980635 110.974 25.4018)" stroke="url(#paint4_linear_4071_99740)" stroke-width="1.77569" shape-rendering="crispEdges"/>
</g>
<rect x="0.435727" y="0.360729" width="191.2" height="61.5925" rx="18.7963" transform="matrix(0.995612 -0.0935779 0.0939225 0.995579 260.954 198.799)" fill="url(#paint5_linear_4071_99740)"/>
<g clip-path="url(#clip1_4071_99740)">
<path opacity="0.3" d="M311.221 223.087C310.992 222.024 310.143 221.307 309.057 221.253C307.428 221.172 304.441 221.185 299.307 221.667C294.667 222.103 291.812 222.494 290.128 222.771C288.794 222.991 287.856 224.045 287.848 225.396C287.84 226.66 287.901 228.529 288.148 231.153C288.396 233.777 288.685 235.625 288.93 236.865C289.191 238.191 290.309 239.051 291.661 239.019C293.367 238.978 296.244 238.829 300.884 238.393C305.525 237.957 308.379 237.567 310.063 237.289C311.397 237.069 312.335 236.016 312.343 234.664C312.351 233.4 312.29 231.531 312.043 228.907C311.776 226.074 311.467 224.233 311.221 223.087Z" fill="#02C076"/>
<path d="M294.365 229.301C293.522 228.471 293.913 227.31 295.088 227.134C295.738 227.036 296.56 226.927 297.591 226.81C297.161 221.696 296.906 217.705 296.795 215.837C296.756 215.187 297.244 214.629 297.897 214.568L299.237 214.442C299.88 214.382 300.457 214.824 300.551 215.459C300.822 217.301 301.381 221.276 301.943 226.401C302.983 226.323 303.815 226.277 304.474 226.251C305.661 226.206 306.263 227.273 305.59 228.246C305.188 228.826 304.664 229.544 303.984 230.412C302.846 231.868 301.967 232.725 301.372 233.218C300.814 233.681 300.074 233.751 299.439 233.4C298.762 233.026 297.739 232.348 296.348 231.13C295.518 230.403 294.868 229.796 294.365 229.301Z" fill="#02C076"/>
</g>
<path d="M327.619 228.849L326.672 218.816L328.106 218.681L329.052 228.715L327.619 228.849ZM335.189 220.402C335.81 220.343 336.366 220.411 336.857 220.606C337.357 220.8 337.764 221.128 338.077 221.591C338.391 222.053 338.583 222.657 338.653 223.402L339.066 227.774L337.69 227.903L337.292 223.689C337.223 222.953 336.989 222.416 336.591 222.077C336.202 221.738 335.683 221.599 335.033 221.66C334.545 221.706 334.129 221.841 333.784 222.066C333.439 222.292 333.184 222.6 333.018 222.992C332.862 223.382 332.81 223.855 332.863 224.409L333.232 228.322L331.856 228.451L331.139 220.855L332.458 220.731L332.651 222.78L332.385 222.256C332.586 221.736 332.932 221.313 333.422 220.987C333.912 220.661 334.501 220.466 335.189 220.402ZM344.229 227.375C343.465 227.447 342.853 227.297 342.394 226.926C341.934 226.554 341.669 225.986 341.597 225.222L340.939 218.256L342.316 218.127L342.967 225.035C343.006 225.446 343.136 225.752 343.358 225.953C343.588 226.153 343.895 226.235 344.277 226.199C344.707 226.159 345.054 226.006 345.319 225.74L345.842 226.688C345.649 226.89 345.408 227.047 345.12 227.161C344.841 227.274 344.545 227.345 344.229 227.375ZM339.913 221.172L339.806 220.04L344.651 219.585L344.758 220.717L339.913 221.172ZM350.686 226.768C349.874 226.844 349.142 226.745 348.489 226.469C347.846 226.192 347.325 225.778 346.926 225.227C346.536 224.676 346.306 224.023 346.235 223.268C346.164 222.513 346.263 221.829 346.533 221.215C346.812 220.601 347.223 220.104 347.766 219.726C348.317 219.336 348.956 219.108 349.683 219.039C350.418 218.97 351.083 219.072 351.678 219.343C352.272 219.615 352.755 220.033 353.126 220.595C353.506 221.148 353.733 221.816 353.807 222.599C353.813 222.657 353.814 222.724 353.812 222.801C353.819 222.878 353.821 222.95 353.818 223.018L347.353 223.625L347.26 222.636L353.008 222.096L352.481 222.493C352.445 222.004 352.303 221.579 352.057 221.217C351.811 220.854 351.491 220.585 351.099 220.41C350.715 220.224 350.279 220.155 349.792 220.2C349.314 220.245 348.899 220.395 348.547 220.65C348.195 220.895 347.932 221.224 347.758 221.635C347.584 222.037 347.52 222.487 347.567 222.983L347.589 223.213C347.637 223.719 347.794 224.162 348.061 224.542C348.337 224.911 348.696 225.186 349.137 225.366C349.578 225.547 350.071 225.611 350.616 225.56C351.065 225.518 351.464 225.403 351.813 225.216C352.171 225.028 352.474 224.768 352.722 224.437L353.566 225.254C353.26 225.688 352.859 226.034 352.362 226.292C351.876 226.55 351.317 226.709 350.686 226.768ZM356.072 226.175L355.356 218.578L356.674 218.454L356.869 220.518L356.691 220.015C356.852 219.469 357.168 219.035 357.638 218.711C358.109 218.387 358.708 218.191 359.434 218.123L359.56 219.456C359.502 219.452 359.444 219.452 359.386 219.458C359.339 219.462 359.291 219.467 359.243 219.471C358.507 219.54 357.945 219.815 357.557 220.295C357.168 220.775 357.013 221.43 357.091 222.262L357.448 226.046L356.072 226.175ZM365.187 217.582C365.808 217.524 366.364 217.592 366.854 217.787C367.355 217.981 367.762 218.309 368.075 218.771C368.389 219.233 368.581 219.837 368.651 220.582L369.063 224.954L367.687 225.083L367.29 220.869C367.22 220.134 366.987 219.596 366.588 219.258C366.2 218.918 365.68 218.779 365.03 218.84C364.543 218.886 364.127 219.022 363.782 219.247C363.437 219.472 363.181 219.781 363.016 220.172C362.86 220.563 362.808 221.035 362.86 221.589L363.229 225.502L361.853 225.632L361.137 218.035L362.455 217.911L362.649 219.961L362.382 219.436C362.584 218.916 362.93 218.493 363.42 218.168C363.91 217.842 364.498 217.647 365.187 217.582ZM376.326 224.272L376.174 222.666L376.074 222.372L375.816 219.634C375.761 219.051 375.547 218.618 375.173 218.335C374.808 218.042 374.286 217.927 373.608 217.991C373.159 218.033 372.726 218.151 372.311 218.344C371.894 218.528 371.549 218.758 371.277 219.034L370.606 218.056C370.968 217.704 371.414 217.421 371.943 217.207C372.481 216.983 373.051 216.843 373.653 216.786C374.695 216.688 375.521 216.866 376.133 217.32C376.744 217.773 377.099 218.521 377.198 219.562L377.63 224.149L376.326 224.272ZM373.84 224.592C373.276 224.645 372.77 224.596 372.322 224.445C371.884 224.294 371.534 224.062 371.273 223.749C371.011 223.426 370.86 223.05 370.82 222.62C370.781 222.209 370.841 221.827 371.001 221.475C371.17 221.122 371.465 220.824 371.885 220.582C372.316 220.339 372.908 220.182 373.663 220.111L376.071 219.885L376.164 220.874L373.814 221.095C373.126 221.16 372.673 221.318 372.456 221.57C372.239 221.821 372.145 222.11 372.176 222.435C372.211 222.807 372.388 223.094 372.705 223.296C373.022 223.488 373.444 223.559 373.969 223.51C374.485 223.461 374.924 223.304 375.284 223.039C375.654 222.773 375.905 222.412 376.035 221.956L376.397 222.877C376.258 223.343 375.971 223.731 375.538 224.042C375.103 224.343 374.538 224.526 373.84 224.592ZM380.177 223.91L379.173 213.274L380.55 213.145L381.553 223.78L380.177 223.91ZM389.635 223.021L386.095 215.689L387.399 215.567L390.557 222.211L389.94 222.269L391.9 215.144L393.061 215.034L396.261 221.675L395.659 221.731L397.576 214.61L398.809 214.494L396.687 222.358L395.369 222.482L392.383 216.429L392.784 216.391L390.954 222.897L389.635 223.021ZM405.4 221.539L405.248 219.933L405.148 219.639L404.89 216.902C404.835 216.319 404.621 215.886 404.247 215.603C403.882 215.309 403.36 215.194 402.682 215.258C402.232 215.3 401.8 215.418 401.384 215.611C400.968 215.795 400.623 216.025 400.35 216.301L399.68 215.323C400.042 214.971 400.488 214.688 401.017 214.475C401.555 214.251 402.125 214.11 402.727 214.054C403.769 213.956 404.595 214.134 405.207 214.587C405.818 215.04 406.173 215.788 406.272 216.83L406.704 221.416L405.4 221.539ZM402.914 221.859C402.35 221.912 401.844 221.863 401.396 221.713C400.958 221.561 400.608 221.329 400.347 221.016C400.085 220.694 399.934 220.317 399.893 219.887C399.855 219.476 399.915 219.095 400.075 218.742C400.244 218.389 400.539 218.091 400.959 217.849C401.389 217.607 401.982 217.45 402.737 217.379L405.145 217.152L405.238 218.141L402.888 218.362C402.2 218.427 401.747 218.585 401.53 218.837C401.312 219.089 401.219 219.377 401.25 219.702C401.285 220.075 401.461 220.362 401.779 220.563C402.096 220.755 402.518 220.826 403.043 220.777C403.559 220.729 403.997 220.572 404.358 220.306C404.728 220.04 404.979 219.679 405.109 219.224L405.471 220.144C405.331 220.61 405.045 220.999 404.612 221.309C404.177 221.61 403.611 221.794 402.914 221.859ZM409.251 221.177L408.247 210.541L409.623 210.412L410.627 221.048L409.251 221.177ZM413.254 220.801L412.251 210.165L413.627 210.036L414.63 220.671L413.254 220.801ZM420.649 220.192C419.836 220.269 419.104 220.169 418.451 219.893C417.808 219.616 417.287 219.202 416.888 218.651C416.498 218.1 416.268 217.447 416.197 216.692C416.126 215.937 416.225 215.253 416.495 214.639C416.774 214.025 417.185 213.529 417.728 213.15C418.28 212.761 418.918 212.532 419.645 212.464C420.38 212.394 421.046 212.496 421.64 212.768C422.234 213.04 422.717 213.457 423.089 214.02C423.468 214.572 423.695 215.24 423.769 216.024C423.775 216.081 423.776 216.148 423.774 216.226C423.781 216.302 423.783 216.374 423.78 216.442L417.315 217.05L417.222 216.061L422.97 215.52L422.443 215.917C422.407 215.429 422.265 215.003 422.019 214.641C421.773 214.278 421.454 214.01 421.061 213.834C420.677 213.649 420.242 213.579 419.754 213.625C419.276 213.669 418.861 213.819 418.51 214.074C418.157 214.319 417.894 214.648 417.72 215.059C417.546 215.461 417.483 215.911 417.529 216.408L417.551 216.637C417.599 217.143 417.756 217.587 418.024 217.966C418.299 218.336 418.658 218.61 419.099 218.791C419.54 218.971 420.033 219.036 420.578 218.984C421.027 218.942 421.426 218.827 421.775 218.64C422.133 218.453 422.436 218.193 422.684 217.861L423.528 218.678C423.222 219.112 422.821 219.458 422.325 219.717C421.838 219.975 421.279 220.133 420.649 220.192ZM428.651 219.44C427.887 219.512 427.275 219.362 426.816 218.991C426.356 218.62 426.091 218.052 426.019 217.287L425.362 210.321L426.738 210.192L427.389 217.1C427.428 217.511 427.558 217.817 427.78 218.018C428.011 218.218 428.317 218.3 428.699 218.264C429.129 218.224 429.476 218.071 429.741 217.805L430.264 218.754C430.071 218.955 429.83 219.112 429.542 219.226C429.264 219.339 428.967 219.411 428.651 219.44ZM424.335 213.237L424.228 212.105L429.073 211.65L429.18 212.782L424.335 213.237Z" fill="white"/>
<rect x="0.435727" y="0.360729" width="191.2" height="61.5925" rx="18.7963" transform="matrix(0.995612 -0.0935779 0.0939225 0.995579 260.954 198.799)" stroke="#193D33" stroke-width="0.799841"/>
<circle r="30.6585" transform="matrix(0.976398 -0.215981 0.217233 0.97612 37.7112 85.8093)" fill="url(#paint6_linear_4071_99740)" fill-opacity="0.2" stroke="url(#paint7_linear_4071_99740)" stroke-width="1.87038"/>
<path d="M37.4432 92.9642L37.657 86.8741L40.9032 84.768L41.0306 81.1885L40.9819 81.1112L37.7864 83.1843L38.1454 72.9585L31.0237 74.5338L30.5483 87.8803L28.0344 89.5113L27.9049 93.2011L30.4169 91.5715L30.1367 99.4372L49.0904 95.2446L49.2753 90.3469L37.4432 92.9642Z" fill="#16AABE"/>
<circle r="33.9592" transform="matrix(0.982558 -0.185958 0.186625 0.982431 152.723 274.316)" fill="url(#paint8_linear_4071_99740)" fill-opacity="0.2" stroke="url(#paint9_linear_4071_99740)" stroke-width="2.07174"/>
<path d="M140.689 275.202L140.692 275.203L140.69 275.204L153.286 279.889L163.291 270.927L163.288 270.926L163.29 270.925L148.351 253.911L140.689 275.202Z" fill="#A8B3FF"/>
<path d="M155.495 291.515L163.709 273.108L153.7 282.07L141.104 277.386L155.495 291.515Z" fill="#A8B3FF"/>
<circle cx="425.145" cy="31.5937" r="30.6585" fill="url(#paint10_linear_4071_99740)" fill-opacity="0.2" stroke="url(#paint11_linear_4071_99740)" stroke-width="1.87038"/>
<g opacity="0.7">
<path d="M426.907 23.0043L419.889 27.3193L417.377 23.2345L428.481 16.4095L435.309 27.5169L431.224 30.027L426.907 23.0043Z" fill="#F3BA2F"/>
<path d="M414.493 25.0066L410.41 27.518L412.919 31.6015L417.005 29.0912L414.493 25.0066Z" fill="#F3BA2F"/>
<path d="M423.09 38.9951L418.778 31.9765L414.692 34.4865L421.517 45.59L432.626 38.7618L430.113 34.679L423.09 38.9951Z" fill="#F3BA2F"/>
<path d="M437.078 30.3986L432.995 32.9095L435.504 36.9935L439.59 34.4832L437.078 30.3986Z" fill="#F3BA2F"/>
<path d="M425.763 27.8089L421.618 30.3565L424.166 34.5013L428.31 31.9537L425.763 27.8089Z" fill="#F3BA2F"/>
</g>
<defs>
<filter id="filter0_d_4071_99740" x="72.5086" y="25.5176" width="373.668" height="247.991" filterUnits="userSpaceOnUse" color-interpolation-filters="sRGB">
<feFlood flood-opacity="0" result="BackgroundImageFix"/>
<feColorMatrix in="SourceAlpha" type="matrix" values="0 0 0 0 0 0 0 0 0 0 0 0 0 0 0 0 0 0 127 0" result="hardAlpha"/>
<feOffset dy="3.19937"/>
<feGaussianBlur stdDeviation="1.59968"/>
<feComposite in2="hardAlpha" operator="out"/>
<feColorMatrix type="matrix" values="0 0 0 0 0 0 0 0 0 0 0 0 0 0 0 0 0 0 0.25 0"/>
<feBlend mode="normal" in2="BackgroundImageFix" result="effect1_dropShadow_4071_99740"/>
<feBlend mode="normal" in="SourceGraphic" in2="effect1_dropShadow_4071_99740" result="shape"/>
</filter>
<linearGradient id="paint0_linear_4071_99740" x1="-77.9359" y1="281.357" x2="377.231" y2="-41.6929" gradientUnits="userSpaceOnUse">
<stop stop-color="#EEEEEE"/>
<stop offset="0.447479" stop-color="#EEEEEE" stop-opacity="0.35"/>
<stop offset="1" stop-color="#EEEEEE"/>
</linearGradient>
<radialGradient id="paint1_radial_4071_99740" cx="0" cy="0" r="1" gradientUnits="userSpaceOnUse" gradientTransform="translate(-16.2318 230.776) rotate(-33.9759) scale(412.949 113201)">
<stop offset="0.157662" stop-color="#008CFF"/>
<stop offset="0.681859" stop-color="#008CFF" stop-opacity="0"/>
<stop offset="1" stop-color="#9700FF"/>
</radialGradient>
<linearGradient id="paint2_linear_4071_99740" x1="7.5" y1="0" x2="7.5" y2="15" gradientUnits="userSpaceOnUse">
<stop stop-color="#F7931A"/>
<stop offset="1" stop-color="#F7841A"/>
</linearGradient>
<linearGradient id="paint3_linear_4071_99740" x1="0" y1="0" x2="15.2143" y2="15" gradientUnits="userSpaceOnUse">
<stop stop-color="white" stop-opacity="0.24"/>
<stop offset="1" stop-color="white" stop-opacity="0"/>
</linearGradient>
<linearGradient id="paint4_linear_4071_99740" x1="350.134" y1="-48.2719" x2="18.0491" y2="331.95" gradientUnits="userSpaceOnUse">
<stop stop-color="#8EA1E4" stop-opacity="0.4"/>
<stop offset="0.468313" stop-color="#E5E2F3" stop-opacity="0"/>
<stop offset="1" stop-color="#E5E2F3" stop-opacity="0.16"/>
</linearGradient>
<linearGradient id="paint5_linear_4071_99740" x1="0" y1="0" x2="196.252" y2="19.4153" gradientUnits="userSpaceOnUse">
<stop stop-color="#193D33"/>
<stop offset="1" stop-color="#211C25"/>
</linearGradient>
<linearGradient id="paint6_linear_4071_99740" x1="31.5937" y1="0" x2="31.5937" y2="63.1875" gradientUnits="userSpaceOnUse">
<stop stop-color="#00C2FF"/>
<stop offset="1"/>
</linearGradient>
<linearGradient id="paint7_linear_4071_99740" x1="0" y1="0" x2="64.0902" y2="63.1875" gradientUnits="userSpaceOnUse">
<stop stop-color="white" stop-opacity="0.24"/>
<stop offset="1" stop-color="white" stop-opacity="0"/>
</linearGradient>
<linearGradient id="paint8_linear_4071_99740" x1="34.9951" y1="0" x2="34.9951" y2="69.9901" gradientUnits="userSpaceOnUse">
<stop stop-color="#AD00FF"/>
<stop offset="1" stop-color="#162323"/>
</linearGradient>
<linearGradient id="paint9_linear_4071_99740" x1="0" y1="0" x2="70.99" y2="69.9901" gradientUnits="userSpaceOnUse">
<stop stop-color="white" stop-opacity="0.24"/>
<stop offset="1" stop-color="white" stop-opacity="0"/>
</linearGradient>
<linearGradient id="paint10_linear_4071_99740" x1="425.145" y1="0" x2="425.145" y2="63.1875" gradientUnits="userSpaceOnUse">
<stop stop-color="#FF8A00"/>
<stop offset="1"/>
</linearGradient>
<linearGradient id="paint11_linear_4071_99740" x1="393.551" y1="0" x2="457.641" y2="63.1875" gradientUnits="userSpaceOnUse">
<stop stop-color="white" stop-opacity="0.24"/>
<stop offset="1" stop-color="white" stop-opacity="0"/>
</linearGradient>
<clipPath id="clip0_4071_99740">
<rect width="14.9726" height="14.9726" fill="white" transform="matrix(0.980443 0.196796 -0.197493 0.980306 121.393 160.479)"/>
</clipPath>
<clipPath id="clip1_4071_99740">
<rect width="24" height="24" fill="white" transform="matrix(0.995612 -0.0935779 0.0939225 0.995579 286.684 215.622)"/>
</clipPath>
</defs>
</svg>
