<svg width="1082" height="1043" viewBox="0 0 1082 1043" fill="none" xmlns="http://www.w3.org/2000/svg">
<g opacity="0.1">
<path fill-rule="evenodd" clip-rule="evenodd" d="M749.66 38.1136C782.746 76.0202 785.762 131.589 756.972 172.853L586.831 416.714L825.365 280.792C869.326 255.741 924.723 264.052 959.399 300.899C994.075 337.746 999.009 393.545 971.339 435.905L765.527 750.978L943.356 702.078C1001.7 686.034 1062.01 720.326 1078.05 778.672C1094.09 837.017 1059.8 897.322 1001.46 913.365L544.576 1039C500.66 1051.08 453.853 1034.72 427.011 997.928C400.168 961.132 398.889 911.568 423.797 873.437L539.932 695.648L273.27 847.598C228.766 872.958 172.63 864.098 138.099 826.264C103.569 788.43 99.8603 731.72 129.17 689.711L325.463 408.365L100.874 523.463L0.934239 328.45L617.146 12.6547C661.923 -10.2927 716.574 0.20694 749.66 38.1136Z" fill="#000212"/>
<path fill-rule="evenodd" clip-rule="evenodd" d="M749.66 38.1136C782.746 76.0202 785.762 131.589 756.972 172.853L586.831 416.714L825.365 280.792C869.326 255.741 924.723 264.052 959.399 300.899C994.075 337.746 999.009 393.545 971.339 435.905L765.527 750.978L943.356 702.078C1001.7 686.034 1062.01 720.326 1078.05 778.672C1094.09 837.017 1059.8 897.322 1001.46 913.365L544.576 1039C500.66 1051.08 453.853 1034.72 427.011 997.928C400.168 961.132 398.889 911.568 423.797 873.437L539.932 695.648L273.27 847.598C228.766 872.958 172.63 864.098 138.099 826.264C103.569 788.43 99.8603 731.72 129.17 689.711L325.463 408.365L100.874 523.463L0.934239 328.45L617.146 12.6547C661.923 -10.2927 716.574 0.20694 749.66 38.1136Z" fill="url(#paint0_linear_4269_100320)"/>
</g>
<defs>
<linearGradient id="paint0_linear_4269_100320" x1="934" y1="273" x2="25.5" y2="1043" gradientUnits="userSpaceOnUse">
<stop offset="0.12671" stop-color="#EBF0FD" stop-opacity="0"/>
<stop offset="0.486236" stop-color="#EBF0FD" stop-opacity="0.49"/>
<stop offset="0.922593" stop-color="#EBF0FD" stop-opacity="0"/>
</linearGradient>
</defs>
</svg>
