<svg width="385" height="551" viewBox="0 0 385 551" fill="none" xmlns="http://www.w3.org/2000/svg">
<g clip-path="url(#clip0_4469_103241)">
<path fill-rule="evenodd" clip-rule="evenodd" d="M297.885 -181.026C319.805 -155.912 321.802 -119.097 302.729 -91.7584L190.008 69.8033L348.04 -20.2477C377.165 -36.8438 413.867 -31.338 436.84 -6.92637C459.813 17.4853 463.082 54.453 444.75 82.5176L308.397 291.258L426.211 258.861C464.866 248.232 504.819 270.951 515.448 309.606C526.077 348.26 503.358 388.213 464.703 398.842L162.013 482.077C132.918 490.077 101.908 479.244 84.124 454.866C66.3404 430.489 65.4927 397.652 81.9947 372.389L158.936 254.601L-17.7314 355.271C-47.2163 372.072 -84.4073 366.202 -107.284 341.136C-130.161 316.071 -132.618 278.5 -113.2 250.668L16.8475 64.2719L-131.947 140.526L-198.158 11.3267L210.092 -197.893C239.757 -213.096 275.965 -206.139 297.885 -181.026Z" fill="#000212"/>
<path d="M257.292 -96C238.949 -96 224.078 -81.2137 224.078 -62.9739L224.078 97.4007C212.273 98.1581 200.478 99.1061 188.696 100.245L178.559 101.224C162.077 102.817 152.207 120.221 159.363 135.07C188.459 195.439 228.275 250.09 276.895 296.395L277.934 297.384C287.196 306.205 301.804 306.205 311.066 297.384L312.105 296.395C360.725 250.09 400.541 195.439 429.637 135.07C436.793 120.221 426.923 102.817 410.441 101.224L400.304 100.245C388.522 99.1061 376.726 98.1581 364.921 97.4007L364.921 -62.9738C364.921 -81.2137 350.051 -96 331.708 -96L257.292 -96Z" fill="#111427"/>
<g opacity="0.9">
<rect x="84.1156" y="201.573" width="62.1296" height="62.1296" rx="21.5094" transform="rotate(-12.5098 84.1156 201.573)" fill="url(#paint0_linear_4469_103241)"/>
<path fill-rule="evenodd" clip-rule="evenodd" d="M126.139 222.727L125.832 222.727C125.223 222.727 123.392 223.029 123.392 224.834C123.392 227.238 126.139 227.238 126.139 227.238C129.188 227.238 131.629 229.94 131.629 232.945C131.629 235.954 129.188 238.656 125.832 238.656C122.783 238.656 120.036 235.954 120.036 232.945C120.036 231.744 120.645 230.541 121.258 229.643C121.258 229.038 121.56 227.839 120.644 226.634C119.733 225.736 117.902 226.634 117.292 227.536C116.986 227.536 116.986 227.838 116.986 228.14L116.68 228.14C115.769 229.643 113.937 230.541 112.105 230.541C108.749 230.541 106.309 228.14 106.309 225.131C106.309 221.825 108.749 219.425 112.105 219.425C113.936 219.425 116.071 220.626 116.986 222.127C116.986 222.127 117.902 223.629 119.12 223.629C120.036 223.629 121.259 223.029 121.259 221.225C121.259 220.927 121.259 220.323 120.953 220.024C120.953 219.722 120.953 219.722 120.646 219.424C120.344 218.522 120.037 217.917 120.037 217.019C120.037 213.713 122.784 211.309 125.834 211.309C129.19 211.309 131.63 213.713 131.63 217.019C131.63 220.024 129.19 222.429 126.14 222.726L126.139 222.727Z" fill="#16AABE"/>
<rect x="84.1156" y="201.573" width="62.1296" height="62.1296" rx="21.5094" transform="rotate(-12.5098 84.1156 201.573)" stroke="url(#paint1_linear_4469_103241)" stroke-width="1.87038"/>
</g>
<g opacity="0.9">
<rect x="25.9124" y="406.282" width="100.739" height="100.739" rx="34.5461" transform="rotate(-30 25.9124 406.282)" fill="url(#paint2_linear_4469_103241)"/>
<path d="M107.5 410.304C105.452 405.12 100.365 404.639 94.4518 405.775L92.3188 398.391L87.8471 399.665L89.9135 406.856C88.7462 407.193 87.5485 407.56 86.3641 407.916L84.2739 400.684L79.8022 401.958L81.9374 409.334L72.9299 411.92L74.313 416.724C74.313 416.724 77.5954 415.715 77.558 415.794C79.3742 415.279 80.2694 416.172 80.6998 417.032L86.5332 437.265C86.6289 437.862 86.5513 438.87 85.288 439.234C85.361 439.266 82.0357 440.151 82.0357 440.151L82.7 445.781L91.717 443.244L93.8802 450.714L98.3406 449.436L96.2077 442.052C97.4445 441.72 98.6313 441.401 99.7904 441.066L101.908 448.424L106.379 447.149L104.231 439.688C111.625 437.118 116.335 433.718 114.939 426.438C113.82 420.567 110.408 418.784 105.842 418.966C108.05 416.898 109.002 414.1 107.491 410.312L107.5 410.304ZM105.849 428.063C107.457 433.643 97.7654 435.718 94.738 436.589L91.8851 426.687C94.9167 425.824 104.164 422.239 105.849 428.063ZM99.7422 414.692C101.211 419.771 93.1071 421.436 90.5845 422.154L87.9881 413.178C90.5107 412.46 98.2119 409.395 99.7422 414.692Z" fill="#B08525"/>
<rect x="25.9124" y="406.282" width="100.739" height="100.739" rx="34.5461" transform="rotate(-30 25.9124 406.282)" stroke="url(#paint3_linear_4469_103241)" stroke-width="2.8"/>
</g>
<g opacity="0.9">
<rect x="196.407" y="298.225" width="74.1169" height="74.1169" rx="26.4558" transform="rotate(15 196.407 298.225)" fill="url(#paint4_linear_4469_103241)" fill-opacity="0.2"/>
<path opacity="0.8" fill-rule="evenodd" clip-rule="evenodd" d="M213.66 324.957L239.993 332.013L238.354 338.129L228.367 335.452L227.282 339.499C234.985 341.9 240.482 344.953 240.007 346.724C239.533 348.496 233.245 348.391 225.373 346.619L221.917 359.517L215.56 357.814L219.017 344.911C211.377 342.515 205.938 339.484 206.41 337.722C206.882 335.96 213.108 336.055 220.924 337.8L222.009 333.749L212.021 331.073L213.66 324.957ZM220.832 338.144C214.051 336.625 208.733 336.403 208.374 337.746C207.958 339.298 214.319 342.351 222.582 344.564C230.844 346.778 237.879 347.315 238.295 345.764C238.657 344.413 233.883 341.924 227.19 339.842L225.958 344.441L219.601 342.737L220.832 338.144Z" fill="#269876"/>
<rect x="196.407" y="298.225" width="74.1169" height="74.1169" rx="26.4558" transform="rotate(15 196.407 298.225)" stroke="url(#paint5_linear_4469_103241)" stroke-width="2"/>
</g>
</g>
<defs>
<linearGradient id="paint0_linear_4469_103241" x1="115" y1="200.863" x2="115" y2="264.863" gradientUnits="userSpaceOnUse">
<stop stop-color="#012137"/>
<stop offset="1" stop-color="#010C1C"/>
</linearGradient>
<linearGradient id="paint1_linear_4469_103241" x1="83" y1="200.863" x2="147.914" y2="264.863" gradientUnits="userSpaceOnUse">
<stop stop-color="white" stop-opacity="0.24"/>
<stop offset="1" stop-color="white" stop-opacity="0"/>
</linearGradient>
<linearGradient id="paint2_linear_4469_103241" x1="75.7696" y1="405.77" x2="75.7696" y2="509.309" gradientUnits="userSpaceOnUse">
<stop stop-color="#382418"/>
<stop offset="1" stop-color="#0E0B0F"/>
</linearGradient>
<linearGradient id="paint3_linear_4469_103241" x1="24" y1="405.77" x2="129.018" y2="509.309" gradientUnits="userSpaceOnUse">
<stop stop-color="white" stop-opacity="0.24"/>
<stop offset="1" stop-color="white" stop-opacity="0"/>
</linearGradient>
<linearGradient id="paint4_linear_4469_103241" x1="233.759" y1="297" x2="233.759" y2="373.117" gradientUnits="userSpaceOnUse">
<stop stop-color="#05FF00"/>
<stop offset="1" stop-color="#162323"/>
</linearGradient>
<linearGradient id="paint5_linear_4469_103241" x1="195.7" y1="297" x2="272.904" y2="373.117" gradientUnits="userSpaceOnUse">
<stop stop-color="white" stop-opacity="0.24"/>
<stop offset="1" stop-color="white" stop-opacity="0"/>
</linearGradient>
<clipPath id="clip0_4469_103241">
<rect width="385" height="551" rx="32" fill="white"/>
</clipPath>
</defs>
</svg>
