<svg width="48" height="48" viewBox="0 0 48 48" fill="none" xmlns="http://www.w3.org/2000/svg">
<rect width="48" height="48" rx="16" fill="#472C76"/>
<g clip-path="url(#clip0_2926_57158)">
<path d="M14.4 21.4883H19.2V29.9536H21.6V21.4883H26.4V29.9536H28.8V21.4883H33.6V29.9536C34.9255 29.9536 36 31.0365 36 32.3722V33.5816C36 34.9174 34.9255 36.0002 33.6 36.0002H14.4C13.0745 36.0002 12 34.9174 12 33.5816V32.3722C12 31.0365 13.0745 29.9536 14.4 29.9536V21.4883Z" fill="white"/>
<path d="M12 18.2885C12 17.2995 12.5975 16.4102 13.5087 16.0428L23.1087 12.173C23.6808 11.9423 24.3192 11.9423 24.8913 12.173L34.4913 16.0428C35.4025 16.4102 36 17.2995 36 18.2885V19.0697C36 20.4055 34.9255 21.4883 33.6 21.4883H14.4C13.0745 21.4883 12 20.4055 12 19.0697V18.2885Z" fill="#B78DFF"/>
</g>
<defs>
<clipPath id="clip0_2926_57158">
<rect width="24" height="24" fill="white" transform="translate(12 12)"/>
</clipPath>
</defs>
</svg>
