<svg width="48" height="48" viewBox="0 0 48 48" fill="none" xmlns="http://www.w3.org/2000/svg">
<rect width="48" height="48" rx="16" fill="#472C76"/>
<path d="M34.097 25.072L25.9487 20.572C25.5503 20.352 25.1016 20.7495 25.2097 21.2268L25.9194 24.3625C25.9563 24.5256 26.0559 24.6628 26.1921 24.7379L32.637 28.2972C33.5254 28.7879 34.6014 28.2957 34.9155 27.2548C35.1724 26.4036 34.8235 25.4733 34.097 25.072Z" fill="white"/>
<path d="M21.7291 19.2133C21.8281 18.7289 22.2364 18.3828 22.709 18.3828H25.0972C25.5697 18.3828 25.9781 18.7289 26.0771 19.2133L28.7839 32.4568C28.8634 32.846 28.7264 33.2488 28.43 33.4974L24.5291 36.7693C24.1631 37.0762 23.6431 37.0762 23.2771 36.7693L19.3761 33.4974C19.0797 33.2488 18.9427 32.846 19.0223 32.4568L21.7291 19.2133Z" fill="#B78DFF"/>
<path d="M20.6351 12.5881C20.804 12.2277 21.1493 12 21.527 12H26.2773C26.6549 12 27.0002 12.2277 27.1691 12.5881L27.6677 13.6519C27.8081 13.9514 27.8081 14.3039 27.6677 14.6034L26.172 17.7948C26.0031 18.1552 25.6578 18.3829 25.2801 18.3829H22.5241C22.1464 18.3829 21.8011 18.1552 21.6322 17.7948L20.1365 14.6034C19.9962 14.3039 19.9962 13.9514 20.1365 13.6519L20.6351 12.5881Z" fill="white"/>
</svg>
