<svg width="48" height="48" viewBox="0 0 48 48" fill="none" xmlns="http://www.w3.org/2000/svg">
<rect width="48" height="48" rx="16" fill="#472C76"/>
<path d="M12 21.6C12 19.6118 13.6118 18 15.6 18H32.4C34.3882 18 36 19.6118 36 21.6V32.4C36 34.3882 34.3882 36 32.4 36H15.6C13.6118 36 12 34.3882 12 32.4V21.6Z" fill="white"/>
<path fill-rule="evenodd" clip-rule="evenodd" d="M20.5711 14.449C19.94 14.449 19.4283 14.9972 19.4283 15.6735V19.3469C19.4283 20.0232 18.9166 20.5714 18.2854 20.5714C17.6543 20.5714 17.1426 20.0232 17.1426 19.3469V15.6735C17.1426 13.6447 18.6776 12 20.5711 12H27.4283C29.3218 12 30.8569 13.6447 30.8569 15.6735V19.3469C30.8569 20.0232 30.3452 20.5714 29.714 20.5714C29.0828 20.5714 28.5711 20.0232 28.5711 19.3469V15.6735C28.5711 14.9972 28.0595 14.449 27.4283 14.449H20.5711Z" fill="#B78DFF"/>
</svg>
