<svg width="48" height="48" viewBox="0 0 48 48" fill="none" xmlns="http://www.w3.org/2000/svg">
<rect width="48" height="48" rx="16" fill="#472C76"/>
<path d="M17.1286 31.482L16.3633 26.7188H20.727V31.267C20.727 32.2243 19.9184 33.0004 18.9208 33.0004C18.0099 33.0004 17.2416 32.3495 17.1286 31.482Z" fill="#B78DFF"/>
<path d="M34.9082 20.4375C35.5107 20.4375 35.9991 20.9062 35.9991 21.4844V23.5783C35.9991 24.1565 35.5107 24.6253 34.9082 24.6253V20.4375Z" fill="#B78DFF"/>
<path d="M12 22.5323C12 20.2195 13.9537 18.3446 16.3637 18.3446H19.243C20.9367 18.3446 22.607 17.9661 24.1218 17.2393L30.1731 14.3356C32.3492 13.2915 34.9096 14.81 34.9096 17.1449V27.9198C34.9096 30.2546 32.3492 31.7732 30.1731 30.729L24.1218 27.8254C22.607 27.0985 20.9367 26.7201 19.243 26.7201H16.3637C13.9537 26.7201 12 24.8452 12 22.5323Z" fill="white"/>
<path d="M22.9084 26.63C22.9084 26.973 22.5706 27.2145 22.2398 27.1238C21.8844 27.0263 21.524 26.9462 21.16 26.8838C20.9127 26.8414 20.7266 26.6306 20.7266 26.3797V18.6863C20.7266 18.4354 20.9127 18.2246 21.16 18.1822C21.524 18.1198 21.8844 18.0397 22.2398 17.9423C22.5706 17.8515 22.9084 18.093 22.9084 18.436V26.63Z" fill="#B78DFF"/>
</svg>
