<svg width="39" height="34" viewBox="0 0 39 34" fill="none" xmlns="http://www.w3.org/2000/svg">
<path d="M9.24619 0.205177C7.21424 0.256294 5.16951 0.371311 4.72223 0.447989C2.65194 0.805817 1.01616 2.22435 0.441076 4.15406C0.096028 5.317 -0.0573267 8.92083 0.0193506 14.2499C0.0576893 16.9592 0.159926 19.6045 0.236603 20.1285C0.530533 22.0454 1.56568 23.4767 3.2398 24.2819C3.7382 24.5119 4.33884 24.7419 4.58165 24.7803L5.02894 24.8569L4.9906 21.1125C4.93948 16.9847 5.13117 12.5758 5.4251 11.3234C5.97462 8.89527 8.03213 6.63329 10.4091 5.82818C11.9555 5.317 12.5689 5.27866 21.2462 5.21476L29.6551 5.15086L29.5785 4.61412C29.3612 3.22115 28.0194 1.52147 26.6392 0.882494C25.5785 0.39687 24.8245 0.320192 19.8532 0.192398C14.7797 0.0646019 14.5497 0.0646019 9.24619 0.205177Z" fill="#7B88FF"/>
<path d="M17.636 8.38651C15.8469 8.4504 14.0066 8.55264 13.5465 8.61654C11.2462 8.97437 9.41875 10.8018 9.0737 13.1022C9.0127 13.503 8.9621 14.1631 8.92183 14.9914C8.93415 14.8632 8.94703 14.7845 8.96037 14.7597C9.04037 14.6077 9.12037 14.5997 13.4244 14.5757C18.0964 14.5437 38.5044 14.5917 38.5444 14.6317C38.5524 14.6411 38.5626 14.7335 38.5738 14.8865C38.5407 14.0828 38.5066 13.5002 38.4795 13.2939C38.1088 10.8657 36.3964 9.06382 34.0577 8.6421C33.112 8.47596 26.4539 8.24593 23.259 8.27149C21.9555 8.27149 19.4251 8.33539 17.636 8.38651Z" fill="#AD00FF"/>
<path fill-rule="evenodd" clip-rule="evenodd" d="M9.06092 28.5399C8.8752 27.5631 8.78945 23.8467 8.80564 20.2562L11.9684 20.3037C16.0964 20.3757 31.2644 20.3757 35.4644 20.3037L38.6983 20.256C38.7339 24.848 38.5787 28.1495 38.2622 29.2044C37.7382 31.0191 36.1791 32.476 34.3133 32.8977C32.7414 33.2427 23.144 33.3961 16.997 33.1661C13.0354 33.0127 12.3708 32.8721 11.1568 31.952C10.0322 31.1085 9.35485 29.9967 9.06092 28.5399ZM26.9281 27.8558C26.3521 26.9278 26.8241 25.7358 27.9041 25.3998C28.0241 25.3598 29.0241 25.3358 30.1281 25.3438L32.1361 25.3598L32.5201 25.5998C33.5841 26.2558 33.5681 27.7838 32.4961 28.4158L32.1201 28.6398L28.0401 28.6878L27.6001 28.4638C27.2801 28.2958 27.0961 28.1278 26.9281 27.8558Z" fill="#AD00FF"/>
</svg>
