<svg width="40" height="40" viewBox="0 0 40 40" fill="none" xmlns="http://www.w3.org/2000/svg">
<g clip-path="url(#clip0_3991_95258)">
<path fill-rule="evenodd" clip-rule="evenodd" d="M4.99958 20.0152C4.99958 14.9289 6.42347 11.2579 8.82504 8.85628C11.2266 6.45471 14.8977 5.03083 19.984 5.03083C21.1674 5.03083 22.1268 4.07145 22.1268 2.88797C22.1268 1.70451 21.1674 0.745117 19.984 0.745117C14.1088 0.745117 9.21627 2.40414 5.79458 5.82583C2.37289 9.24754 0.713867 14.1401 0.713867 20.0152C0.713867 25.8904 2.37289 30.783 5.79458 34.2047C9.21627 37.6264 14.1088 39.2853 19.984 39.2853C25.8592 39.2853 30.7516 37.6264 34.1733 34.2047C37.595 30.783 39.2542 25.8904 39.2542 20.0152C39.2542 18.8318 38.2947 17.8724 37.1113 17.8724C35.9279 17.8724 34.9684 18.8318 34.9684 20.0152C34.9684 25.1015 33.5444 28.7727 31.143 31.1741C28.7413 33.5759 25.0703 34.9996 19.984 34.9996C14.8977 34.9996 11.2266 33.5759 8.82504 31.1741C6.42347 28.7727 4.99958 25.1015 4.99958 20.0152ZM17.7181 13.4835C18.8722 13.2216 19.5954 12.0737 19.3335 10.9196C19.0716 9.76546 17.9236 9.0422 16.7695 9.30411C14.3399 9.85554 12.3181 11.093 10.9295 13.0254C9.55841 14.9335 8.93512 17.3356 8.93512 20.0136C8.93512 23.258 9.85424 26.0953 11.8784 28.1194C13.9025 30.1436 16.7398 31.0627 19.9842 31.0627C22.7939 31.0627 25.3002 30.3759 27.2474 28.8627C29.2164 27.3325 30.3973 25.1245 30.835 22.5092C31.0304 21.342 30.2427 20.2374 29.0753 20.042C27.9082 19.8466 26.8036 20.6344 26.6082 21.8017C26.317 23.5412 25.5998 24.7154 24.6176 25.4787C23.6136 26.2589 22.1157 26.7769 19.9842 26.7769C17.5286 26.7769 15.9128 26.093 14.9088 25.089C13.9048 24.085 13.2208 22.4692 13.2208 20.0136C13.2208 17.9816 13.6922 16.5251 14.4099 15.5264C15.11 14.552 16.1712 13.8346 17.7181 13.4835Z" fill="#AD00FF"/>
<path fill-rule="evenodd" clip-rule="evenodd" d="M32.6946 2.43632C32.5471 1.95769 32.1594 1.59133 31.6734 1.47075C31.1874 1.35018 30.6734 1.49301 30.3194 1.84718L25.9717 6.19499C24.2116 7.95513 23.5026 10.4949 24.0726 12.895L18.4694 18.4982C17.6326 19.335 17.6326 20.6918 18.4694 21.5287C19.3062 22.3655 20.663 22.3655 21.4999 21.5287L27.1018 15.9268C29.5028 16.4983 32.0443 15.7894 33.8054 14.0283L38.1528 9.68062C38.5071 9.32648 38.6497 8.81271 38.5291 8.32656C38.4086 7.84045 38.0423 7.45296 37.5637 7.30536L33.8423 6.15773L32.6946 2.43632Z" fill="#7B88FF"/>
</g>
<defs>
<clipPath id="clip0_3991_95258">
<rect width="40" height="40" fill="white"/>
</clipPath>
</defs>
</svg>
