<svg width="40" height="40" viewBox="0 0 40 40" fill="none" xmlns="http://www.w3.org/2000/svg">
<path d="M1.93652 18.3673C1.93652 9.12498 9.42887 1.63257 18.6712 1.63257C27.6457 1.63257 35.2558 8.11019 35.6727 16.9815C33.6841 15.68 31.0212 15.5101 28.4672 15.5101C22.4669 15.5101 15.3561 21.5062 15.3561 28.4943C15.3561 31.0484 16.0016 33.5319 17.3031 35.5204C14.4446 35.3861 12.342 34.097 10.0341 32.7036C8.33467 33.3875 6.38396 34.0983 4.59918 34.5938C3.24656 34.9694 2.02763 33.8067 2.37021 32.4347C2.83269 30.5825 3.54443 28.5806 4.25158 26.865C2.78053 24.374 1.93652 21.4686 1.93652 18.3673Z" fill="#AD00FF"/>
<path d="M29.7959 19.5918C35.4314 19.5918 40 24.1603 40 29.7959C40 31.674 39.4921 33.4347 38.6062 34.9469C38.9336 35.6579 39.2552 36.4634 39.5144 37.3238C39.928 38.6964 38.6791 39.8817 37.3308 39.4409C36.5134 39.1736 35.7386 38.8588 35.0435 38.5489C33.5099 39.4702 31.7142 40 29.7959 40C24.1603 40 19.5918 35.4315 19.5918 29.7959C19.5918 24.1603 24.1603 19.5918 29.7959 19.5918Z" fill="#7B88FF"/>
</svg>
