<svg width="40" height="40" viewBox="0 0 40 40" fill="none" xmlns="http://www.w3.org/2000/svg">
<g clip-path="url(#clip0_4450_102869)">
<path d="M12.6556 -0.167997C12.5596 -0.103998 12.4236 0.064003 12.3516 0.200003C12.2236 0.448002 12.2316 0.487999 12.9676 2.68C13.4956 4.256 13.6956 4.936 13.6396 5.016C13.5916 5.08 13.2396 5.512 12.8396 5.984C11.3996 7.696 9.93561 9.832 8.58361 12.192C7.76761 13.616 7.59961 14.072 7.59961 14.816C7.59961 15.672 7.82361 16.184 8.47161 16.824C9.11961 17.464 10.2076 18.2 10.7836 18.384C11.3756 18.576 12.1436 18.52 12.7116 18.232C13.2876 17.936 16.2236 16.032 17.7276 14.968C18.3836 14.504 19.0396 14.064 19.1836 13.992C19.4956 13.832 19.8956 13.832 20.4636 13.992C20.7676 14.08 21.1036 14.112 21.5516 14.088C22.2716 14.048 22.6876 13.88 23.2396 13.408C23.4076 13.264 23.6876 13.096 23.8556 13.048C24.7196 12.792 25.5996 13.688 25.3596 14.576C25.1836 15.232 23.8636 16.16 22.6796 16.464C22.2556 16.576 21.1196 16.624 20.3036 16.56C20.1276 16.544 19.8076 16.816 18.3676 18.208C17.4156 19.128 16.3516 20.224 15.9916 20.648C14.2396 22.744 13.0956 25.032 12.5276 27.56C12.3036 28.56 12.0796 30.272 12.0796 31L27.1516 30.904C27.2476 29.856 27.8076 28.6 28.5356 27.776C29.2956 26.936 29.7356 26.584 30.8076 25.944C31.4556 25.56 31.8796 25.104 32.0076 24.648C32.0716 24.4 32.0876 23.656 32.0476 21.936C31.9116 15.64 31.2716 11.848 29.8716 9.008C28.0796 5.384 24.9996 3.25599 20.2236 2.352C19.4636 2.208 19.2876 2.136 18.6236 1.736C17.0876 0.792002 15.5596 0.160004 14.1036 -0.127996C13.1356 -0.327997 12.8876 -0.335997 12.6556 -0.167997Z" fill="#AD00FF"/>
<path d="M12.0796 34.312L11.7036 34.36C9.78363 34.616 8.35163 35.808 8.00763 37.424C7.80763 38.368 7.98363 39.2 8.47963 39.696L8.78363 40H19.9916H31.1996L31.4796 39.744C32.2556 39.024 32.2556 37.408 31.4796 36.2C30.7756 35.096 29.4876 34.424 27.9276 34.344L27.0956 34.296C27.0956 34.296 14.7248 34.36 12.0796 34.312Z" fill="#7B88FF"/>
</g>
<defs>
<clipPath id="clip0_4450_102869">
<rect width="40" height="40" fill="white"/>
</clipPath>
</defs>
</svg>
