<svg width="40" height="40" viewBox="0 0 40 40" fill="none" xmlns="http://www.w3.org/2000/svg">
<path fill-rule="evenodd" clip-rule="evenodd" d="M17.8137 34.8127C18.1075 33.08 18.2527 31.8595 18.3246 31.076C18.3815 30.4556 18.8895 29.9457 19.5122 29.9259L31.8415 29.5349C33.1705 29.4927 34.4775 28.8723 34.8058 27.5839C34.9322 27.0884 35.0078 26.5447 34.9993 25.9884C34.9922 25.5116 34.9172 25.0139 34.8015 24.5435C34.4699 23.1935 33.1286 22.5461 31.7384 22.5506C29.2511 22.5588 24.8997 22.5667 19.9992 22.5466C18.5032 22.5404 16.9657 22.5226 15.4313 22.5049C12.4328 22.4703 9.44623 22.4358 6.80508 22.4885C5.79604 22.5086 5 23.3387 5 24.348C5 24.9071 5.16488 25.4557 5.48358 25.9151C8.12577 29.7233 10.8585 32.5455 15.1605 35.8526C16.1597 36.6207 17.6031 36.0551 17.8137 34.8127Z" fill="#AD00FF"/>
<path fill-rule="evenodd" clip-rule="evenodd" d="M21.6753 8.9238C21.7472 8.14034 21.8925 6.9198 22.1863 5.18719C22.3968 3.94479 23.8403 3.37918 24.8394 4.14722C29.1414 7.45438 31.8742 10.2766 34.5164 14.0847C34.8351 14.5442 35 15.0927 35 15.652C35 16.6612 34.2039 17.4912 33.1949 17.5114C30.5537 17.5642 27.567 17.5296 24.5685 17.4949C23.0343 17.4773 21.4965 17.4595 20.0008 17.4534C15.1003 17.4333 10.7489 17.441 8.26154 17.4492C6.87127 17.4538 5.53004 16.8063 5.19842 15.4563C5.08281 14.986 5.00781 14.4882 5.00065 14.0115C4.99212 13.4552 5.06781 12.9116 5.19415 12.416C5.52242 11.1275 6.8295 10.5071 8.15838 10.465L20.4878 10.074C21.1104 10.0542 21.6185 9.54423 21.6753 8.9238Z" fill="#7B88FF"/>
</svg>
