<svg width="40" height="40" viewBox="0 0 40 40" fill="none" xmlns="http://www.w3.org/2000/svg">
<path d="M27.4997 31.6667C24.8734 31.6667 23.413 31.7249 22.6101 31.7817C21.6857 31.847 20.9298 32.521 20.8645 33.5068C20.8458 33.7905 20.833 34.1444 20.833 34.5834C20.833 35.0224 20.8458 35.3763 20.8645 35.66C20.9298 36.6458 21.6857 37.3198 22.6101 37.3852C23.413 37.4419 24.8734 37.5001 27.4997 37.5001C30.1259 37.5001 31.5863 37.4419 32.3893 37.3852C33.3137 37.3198 34.0695 36.6458 34.1348 35.66C34.1536 35.3763 34.1663 35.0224 34.1663 34.5834C34.1663 34.1444 34.1536 33.7905 34.1348 33.5068C34.0695 32.521 33.3137 31.847 32.3893 31.7817C31.5863 31.7249 30.1259 31.6667 27.4997 31.6667Z" fill="#7B88FF"/>
<path d="M29.9997 22.5C25.7283 22.5 23.6342 22.5756 22.6333 22.6372C21.7865 22.6893 20.9867 23.2668 20.8854 24.2532C20.8543 24.5562 20.833 24.9381 20.833 25.4167C20.833 25.8953 20.8543 26.2771 20.8854 26.5802C20.9867 27.5665 21.7865 28.144 22.6333 28.1962C23.6342 28.2578 25.7283 28.3333 29.9997 28.3333C34.271 28.3333 36.3652 28.2578 37.366 28.1962C38.2128 28.144 39.0127 27.5665 39.1139 26.5802C39.1451 26.2771 39.1663 25.8953 39.1663 25.4167C39.1663 24.9381 39.1451 24.5562 39.1139 24.2532C39.0127 23.2668 38.2128 22.6893 37.366 22.6372C36.3652 22.5756 34.271 22.5 29.9997 22.5Z" fill="#7B88FF"/>
<path d="M27.4997 11.6667C24.8734 11.6667 23.413 11.7249 22.6101 11.7817C21.6857 11.847 20.9298 12.521 20.8645 13.5068C20.8458 13.7905 20.833 14.1444 20.833 14.5834C20.833 15.0224 20.8458 15.3763 20.8645 15.66C20.9298 16.6458 21.6857 17.3198 22.6101 17.3852C23.413 17.4419 24.8734 17.5001 27.4997 17.5001C30.1259 17.5001 31.5863 17.4419 32.3893 17.3852C33.3137 17.3198 34.0695 16.6458 34.1348 15.66C34.1536 15.3763 34.1663 15.0224 34.1663 14.5834C34.1663 14.1444 34.1536 13.7905 34.1348 13.5068C34.0695 12.521 33.3137 11.847 32.3893 11.7817C31.5863 11.7249 30.1259 11.6667 27.4997 11.6667Z" fill="#7B88FF"/>
<path d="M29.9997 2.5C25.7283 2.5 23.6342 2.57555 22.6333 2.63719C21.7865 2.68936 20.9867 3.2668 20.8854 4.2532C20.8543 4.55624 20.833 4.9381 20.833 5.41667C20.833 5.89523 20.8543 6.27708 20.8854 6.58013C20.9867 7.56653 21.7865 8.14397 22.6333 8.19613C23.6342 8.25777 25.7283 8.33333 29.9997 8.33333C34.271 8.33333 36.3652 8.25778 37.366 8.19613C38.2128 8.14397 39.0127 7.56653 39.1139 6.58013C39.1451 6.27709 39.1663 5.89523 39.1663 5.41667C39.1663 4.9381 39.1451 4.55624 39.1139 4.2532C39.0127 3.2668 38.2128 2.68936 37.366 2.6372C36.3652 2.57556 34.271 2.5 29.9997 2.5Z" fill="#7B88FF"/>
<path d="M9.16634 21.6667C11.2423 21.6667 12.8344 21.7278 13.9927 21.8002C15.8335 21.9153 17.2511 23.3329 17.3662 25.1737C17.4386 26.332 17.4997 27.9242 17.4997 30.0001C17.4997 32.076 17.4386 33.6682 17.3662 34.8264C17.2511 36.6672 15.8335 38.0848 13.9927 38.1999C12.8344 38.2723 11.2423 38.3334 9.16634 38.3334C7.09041 38.3334 5.49822 38.2723 4.33997 38.1999C2.49917 38.0848 1.08161 36.6672 0.966508 34.8264C0.894091 33.6682 0.833008 32.076 0.833008 30.0001C0.833008 27.9242 0.894091 26.332 0.966508 25.1737C1.08161 23.3329 2.49917 21.9153 4.33997 21.8002C5.49822 21.7278 7.09041 21.6667 9.16634 21.6667Z" fill="#AD00FF"/>
<path d="M9.16634 1.66675C11.2423 1.66675 12.8344 1.72783 13.9927 1.80025C15.8335 1.91535 17.2511 3.33292 17.3662 5.17371C17.4386 6.33196 17.4997 7.92416 17.4997 10.0001C17.4997 12.076 17.4386 13.6682 17.3662 14.8265C17.2511 16.6672 15.8335 18.0848 13.9927 18.1999C12.8344 18.2723 11.2423 18.3334 9.16634 18.3334C7.09041 18.3334 5.49822 18.2723 4.33997 18.1999C2.49917 18.0848 1.08161 16.6672 0.966508 14.8264C0.894091 13.6682 0.833008 12.076 0.833008 10.0001C0.833008 7.92415 0.894091 6.33196 0.966508 5.17371C1.08161 3.33291 2.49917 1.91534 4.33997 1.80025C5.49822 1.72782 7.09041 1.66675 9.16634 1.66675Z" fill="#AD00FF"/>
</svg>
