<svg width="40" height="40" viewBox="0 0 40 40" fill="none" xmlns="http://www.w3.org/2000/svg">
<path d="M29.615 2.09763C27.4064 2.59361 25.6995 3.9087 24.7337 5.84752C24.2096 6.89207 24 7.80888 24 9.00373C24 9.86041 24.0824 10.424 24.3144 11.1454C25.0406 13.4074 26.8898 15.1809 29.2032 15.8196C30.0717 16.0601 31.9283 16.0601 32.7968 15.8196C35.8813 14.963 38 12.19 38 9.00373C38 5.81746 35.8588 3.02195 32.7968 2.19533C32.0182 1.98491 30.3412 1.93231 29.615 2.09763Z" fill="#7B88FF"/>
<path d="M14.3067 3.90836C10.9458 3.97663 7.36501 4.1663 6.68222 4.31044C5.55183 4.55321 4.7249 5.01599 3.90556 5.8505C3.29105 6.48018 2.79793 7.44367 2.62344 8.33887C2.17584 10.7135 2.06204 21.8049 2.43378 26.8879C2.5324 28.1928 2.63861 28.868 2.83586 29.3838C3.26829 30.5597 4.23178 31.6446 5.31665 32.1757C6.28014 32.6536 6.67464 32.7219 9.2237 32.8585C10.4755 32.9191 11.5376 32.9874 11.5831 32.995C11.6362 33.0102 11.6666 33.693 11.6741 35.013C11.6893 36.9855 11.6969 37.0234 11.8866 37.4104C12.3114 38.298 13.3356 38.7001 14.2915 38.3738C14.5722 38.2828 15.3157 37.6835 17.6523 35.6806L20.6566 33.1088H21.7263C22.8491 33.1012 23.7898 33.0785 27.2037 32.9495C31.2928 32.8054 31.9073 32.7219 32.9846 32.1908C34.153 31.6143 35.124 30.4991 35.5337 29.2625C35.7385 28.6328 35.8296 27.9196 35.9661 25.8258C36.0572 24.3919 36.2241 17.3365 36.171 17.2834C36.1482 17.2606 35.8827 17.4123 35.5716 17.6172C33.9633 18.702 32.2487 19.2255 30.3066 19.2255C28.63 19.2255 27.4996 18.9752 26.0657 18.2848C22.8111 16.722 20.7931 13.4749 20.7779 9.78031C20.7628 7.80782 21.2787 6.10844 22.3939 4.46217L22.758 3.92353L21.9083 3.87801C20.8993 3.81732 18.153 3.82491 14.3067 3.90836Z" fill="#AD00FF"/>
</svg>
