<svg width="40" height="40" viewBox="0 0 40 40" fill="none" xmlns="http://www.w3.org/2000/svg">
<path d="M27.0885 1.57398C26.5198 1.15175 25.8695 1.16232 25.3698 1.48931C24.8869 1.80522 24.583 2.38792 24.583 3.04776V35.8954C24.583 38.1041 26.8386 39.4321 28.8554 38.8773C29.9326 38.5808 30.7046 37.9285 31.1596 37.0662C31.6101 36.2123 31.7375 35.1783 31.5861 34.1185L30.2796 24.9728C31.7568 24.6336 32.9049 24.1967 33.7238 23.8164C34.8522 23.2925 35.4319 22.1274 35.3791 20.9381C34.9247 10.714 30.4049 4.03632 27.0885 1.57398Z" fill="#AD00FF"/>
<path d="M7.42005 1.37598C6.05657 1.37598 4.8646 2.32389 4.63374 3.68909C4.24855 5.96694 3.70907 9.95017 3.75246 14.2098C3.77658 16.5764 5.36075 18.7037 7.84725 19.261C8.20956 19.3422 8.59067 19.4173 8.98634 19.482L7.45135 34.1026C7.22146 36.2923 8.58509 38.493 10.8548 38.8088C11.148 38.8497 11.4283 38.8763 11.667 38.8763C11.9058 38.8763 12.1861 38.8497 12.4793 38.8088C14.749 38.493 16.1126 36.2923 15.8828 34.1026L14.3478 19.4821C14.7435 19.4174 15.1247 19.3423 15.4871 19.261C17.9734 18.7037 19.5575 16.5765 19.5816 14.21C19.625 9.94984 19.0847 5.96608 18.6989 3.68829C18.4678 2.32346 17.276 1.37598 15.9128 1.37598H15.6701C15.5563 1.37598 15.4475 1.42251 15.3688 1.50478C15.2903 1.58705 15.2488 1.69788 15.2539 1.81156L15.6239 9.9525C15.6501 10.5273 15.2053 11.0143 14.6307 11.0404C14.0559 11.0666 13.5688 10.6218 13.5428 10.0472L13.1667 1.77372C13.1566 1.55119 12.9732 1.37598 12.7504 1.37598H10.5829C10.3602 1.37598 10.1768 1.55119 10.1667 1.77372L9.79059 10.0472C9.7645 10.6218 9.27742 11.0666 8.70267 11.0404C8.128 11.0143 7.68329 10.5273 7.70941 9.9525L8.07945 1.81156C8.08462 1.69788 8.04308 1.58705 7.96446 1.50478C7.88585 1.42251 7.77701 1.37598 7.66322 1.37598H7.42005Z" fill="#7B88FF"/>
</svg>
