<svg width="40" height="40" viewBox="0 0 40 40" fill="none" xmlns="http://www.w3.org/2000/svg">
<path d="M14.8304 32.1998C13.8604 32.3998 12.8804 33.1598 12.4304 34.0898C12.1804 34.5798 12.1504 34.7698 12.1504 35.5998C12.1504 36.4498 12.1804 36.6098 12.4404 37.1298C12.8004 37.8398 13.4304 38.4298 14.1804 38.7798C15.0104 39.1698 16.1104 39.1598 16.9504 38.7698C18.0604 38.2498 18.8004 37.2898 18.9804 36.1598C19.2804 34.2498 18.0804 32.5598 16.1804 32.1998C15.6004 32.0898 15.4204 32.0898 14.8304 32.1998Z" fill="#AD00FF"/>
<path d="M32.4308 32.1998C31.4508 32.3998 30.4808 33.1698 30.0308 34.0798C29.6508 34.8598 29.5908 36.0198 29.9008 36.8198C30.1908 37.6098 30.8608 38.3198 31.6808 38.7198C32.2708 39.0098 32.4408 39.0498 33.1508 39.0498C33.8208 39.0498 34.0508 38.9998 34.5708 38.7598C36.7308 37.7698 37.2908 35.0098 35.7008 33.2698C34.9008 32.3898 33.5708 31.9598 32.4308 32.1998Z" fill="#AD00FF"/>
<path d="M33.7598 11.7704H13.5359C13.5359 11.7704 13.025 9.05271 12.0146 6.24901C11.0043 3.44532 7.94858 2.00565 5.37221 1.77832C4.56343 1.77833 1.91129 1.85569 1.91113 3.77352C1.91098 5.64265 3.01272 5.94575 4.10862 5.94575C5.14422 5.94575 6.56069 6.04258 7.61629 7.16416C8.6719 8.28574 9.4303 12.9645 9.67755 15.1637C10.3098 18.5174 11.0736 24.5459 13.5309 28.0607C14.9455 30.0842 17.1575 30.1456 19.3931 30.5029C21.1554 30.7846 27.6967 30.6751 27.6967 30.6751C30.9825 30.6751 33.621 29.9268 35.1482 28.0607C36.3361 26.6092 38.1359 21.9409 38.5126 18.467C38.7713 16.0815 38.7892 15.3357 37.882 13.8442C36.9406 12.2963 34.997 11.8096 33.7598 11.7704Z" fill="#7B88FF"/>
</svg>
