<svg width="40" height="41" viewBox="0 0 40 41" fill="none" xmlns="http://www.w3.org/2000/svg">
<path d="M16.0938 2.06367C13.8978 2.57185 11.2673 3.68202 10.4758 4.42475C9.95593 4.91729 9.7309 5.94147 9.99473 6.59038C10.3129 7.34874 11.0966 7.88037 11.8958 7.88037C12.2761 7.88037 12.4778 7.81001 13.6107 7.25492C14.9764 6.59819 15.892 6.26201 17.0793 6.00401C17.9018 5.8242 18.282 5.6522 18.5924 5.32384C19.1123 4.77657 19.2907 3.78366 18.9881 3.10348C18.7708 2.61876 18.2199 2.13403 17.7155 1.98549C17.1956 1.82912 17.0793 1.82912 16.0938 2.06367Z" fill="#AD00FF"/>
<path d="M22.3437 1.97204C21.6637 2.19604 21.1997 2.62004 20.9597 3.26004C20.7997 3.66804 20.8397 4.44404 21.0317 4.84404C21.2637 5.31604 21.8237 5.82804 22.2157 5.92404C22.3837 5.96404 22.9197 6.09204 23.3997 6.21204C25.0957 6.61204 26.5757 7.26804 28.1197 8.29204C29.4237 9.15604 31.1517 10.876 31.9917 12.132C33.8317 14.9 34.6557 17.812 34.5357 21.092C34.3677 25.684 31.9437 30.02 28.0957 32.604C26.7997 33.476 24.8077 34.348 23.3037 34.7C21.7597 35.068 19.7677 35.156 18.1037 34.94C17.0877 34.804 15.4717 34.396 14.6397 34.052C13.2557 33.492 11.6077 32.492 10.5597 31.58C9.83973 30.956 9.37573 30.74 8.71973 30.74C8.07173 30.74 7.66373 30.924 7.25573 31.38C6.85573 31.82 6.69573 32.196 6.68773 32.74C6.67973 33.428 6.87973 33.844 7.54373 34.476C8.70373 35.572 10.1277 36.524 11.8797 37.38C16.2077 39.492 21.2397 39.812 25.9037 38.268C31.8157 36.316 36.5037 31.348 38.0877 25.348C38.5757 23.476 38.6717 22.724 38.6717 20.58C38.6797 18.388 38.5837 17.564 38.1277 15.748C36.4477 9.11604 31.2557 3.92404 24.5917 2.22004C23.2797 1.88404 22.7837 1.82804 22.3437 1.97204Z" fill="#AD00FF"/>
<path d="M6.36138 7.82154C5.63959 8.18607 4.32939 9.98546 3.35654 11.9245C2.65045 13.3283 2.21894 14.4839 2.16403 15.0734C2.08557 15.8878 2.46215 16.5936 3.18394 17.0046C3.52915 17.1985 3.67821 17.2373 4.14894 17.2373C5.11394 17.2373 5.77296 16.7719 6.11032 15.8567C6.81642 13.91 7.39699 12.8086 8.39337 11.4901C8.76211 11.0015 9.11516 10.4818 9.17792 10.3345C9.33483 9.98546 9.33483 9.20986 9.17792 8.85309C8.73857 7.80603 7.3656 7.30189 6.36138 7.82154Z" fill="#AD00FF"/>
<path d="M18.9819 9.55153C16.4736 9.79962 14.0892 10.916 12.31 12.6745C10.4944 14.4622 9.43715 16.5709 9.10174 19.0591C8.31425 24.8161 12.1788 30.1938 17.9027 31.332C18.96 31.5364 20.8558 31.5582 21.8621 31.3758C23.8016 31.011 25.3547 30.3178 26.8568 29.1285C30.6193 26.166 32.012 20.9416 30.2328 16.4688C29.8682 15.5567 29.7078 15.2429 29.1245 14.3819C26.9006 11.0473 22.9266 9.15751 18.9819 9.55153Z" fill="#7B88FF"/>
<path d="M2.49607 18.9277C2.09568 19.0734 1.65751 19.4949 1.46109 19.9242C1.31 20.2461 1.27979 20.4378 1.27979 21.005C1.27979 21.8099 1.44599 23.2279 1.66507 24.2244C2.10323 26.2711 3.08533 28.6856 3.76524 29.4215C4.05231 29.7281 4.67934 30.0117 5.08728 30.0117C5.9334 30.0117 6.75684 29.3985 6.99103 28.5936C7.16479 27.9728 7.0968 27.6125 6.57553 26.4857C5.72942 24.6537 5.37436 23.2893 5.20816 21.1736C5.12506 20.1158 4.98908 19.7556 4.49803 19.2956C4.31672 19.127 4.0372 18.9507 3.87855 18.9047C3.49327 18.7974 2.82092 18.8051 2.49607 18.9277Z" fill="#AD00FF"/>
</svg>
