<svg width="40" height="40" viewBox="0 0 40 40" fill="none" xmlns="http://www.w3.org/2000/svg">
<path fill-rule="evenodd" clip-rule="evenodd" d="M24.4956 6.15445C25.1846 4.05951 28.1481 4.05953 28.8371 6.15445L30.9014 12.4315L37.1785 14.4958C39.2734 15.1848 39.2734 18.1483 37.1785 18.8373L30.9014 20.9017L28.8371 27.1788C28.1481 29.2737 25.1846 29.2737 24.4956 27.1788L22.4313 20.9017L16.1542 18.8373C14.0593 18.1483 14.0593 15.1848 16.1542 14.4958L22.4313 12.4315L24.4956 6.15445Z" fill="#7B88FF"/>
<path d="M15.3286 22.2774C14.6953 20.3519 11.9713 20.3519 11.3381 22.2774L9.8175 26.9008L5.1942 28.4214C3.2686 29.0546 3.2686 31.7786 5.1942 32.4119L9.8175 33.9324L11.3381 38.5558C11.9713 40.4814 14.6953 40.4814 15.3286 38.5558L16.8492 33.9324L21.4725 32.4119C23.3981 31.7786 23.3981 29.0546 21.4725 28.4214L16.8492 26.9008L15.3286 22.2774Z" fill="#AD00FF"/>
<path d="M11.9145 1.38573C11.3068 -0.461909 8.69317 -0.461913 8.08551 1.38573L6.73676 5.48676L2.63573 6.83551C0.788091 7.44317 0.788087 10.0568 2.63573 10.6645L6.73676 12.0132L8.08551 16.1142C8.69317 17.9619 11.3068 17.9619 11.9145 16.1142L13.2632 12.0132L17.3642 10.6645C19.2119 10.0568 19.2119 7.44317 17.3642 6.83551L13.2632 5.48676L11.9145 1.38573Z" fill="#AD00FF"/>
</svg>
