<svg width="26" height="26" viewBox="0 0 26 26" fill="none" xmlns="http://www.w3.org/2000/svg">
<path d="M0.928571 18.5714H2.78571V20.6394C2.78571 21.5466 3.52393 22.2857 4.43207 22.2857H7.45271C6.83836 23.0847 6.50362 24.0635 6.5 25.0714C6.5 25.3177 6.59783 25.5539 6.77197 25.728C6.94611 25.9022 7.1823 26 7.42857 26H18.5714C18.8177 26 19.0539 25.9022 19.228 25.728C19.4022 25.5539 19.5 25.3177 19.5 25.0714C19.5 24.0221 19.1369 23.0639 18.5473 22.2857H21.567C22.4751 22.2857 23.2143 21.5466 23.2143 20.6394V18.5714H25.0714C25.3177 18.5714 25.5539 18.4736 25.728 18.2995C25.9022 18.1253 26 17.8891 26 17.6429V12.0714C26 11.8252 25.9022 11.589 25.728 11.4148C25.5539 11.2407 25.3177 11.1429 25.0714 11.1429H23.2143V9.07493C23.2143 8.16679 22.4751 7.42857 21.567 7.42857H13.9286V5.40057C14.4702 5.20979 14.9395 4.85602 15.272 4.38782C15.6046 3.91963 15.784 3.35997 15.7857 2.78571C15.7857 1.24986 14.5359 0 13 0C11.4641 0 10.2143 1.24986 10.2143 2.78571C10.2143 3.99471 10.9924 5.01614 12.0714 5.40057V7.42857H4.43207C3.52393 7.42857 2.78571 8.16679 2.78571 9.07493V11.1429H0.928571C0.682299 11.1429 0.446113 11.2407 0.271972 11.4148C0.0978313 11.589 0 11.8252 0 12.0714V17.6429C0 17.8891 0.0978313 18.1253 0.271972 18.2995C0.446113 18.4736 0.682299 18.5714 0.928571 18.5714ZM13 1.85714C13.5116 1.85714 13.9286 2.27407 13.9286 2.78571C13.9286 3.29736 13.5116 3.71429 13 3.71429C12.4884 3.71429 12.0714 3.29736 12.0714 2.78571C12.0714 2.27407 12.4884 1.85714 13 1.85714ZM1.85714 13H2.78571V16.7143H1.85714V13ZM4.64286 9.28571H21.3571V20.4286H4.64286V9.28571ZM24.1429 16.7143H23.2143V13H24.1429V16.7143ZM17.4841 24.1429H8.515C8.70769 23.5999 9.06374 23.1299 9.53426 22.7973C10.0048 22.4648 10.5667 22.2861 11.1429 22.2857H14.8571C16.068 22.2857 17.1006 23.062 17.4841 24.1429Z" fill="#8A55E9"/>
<path d="M17.6429 14.8571C18.1557 14.8571 18.5714 14.4414 18.5714 13.9286C18.5714 13.4157 18.1557 13 17.6429 13C17.13 13 16.7143 13.4157 16.7143 13.9286C16.7143 14.4414 17.13 14.8571 17.6429 14.8571Z" fill="#8A55E9"/>
<path d="M8.35715 14.8571C8.86998 14.8571 9.28572 14.4414 9.28572 13.9286C9.28572 13.4157 8.86998 13 8.35715 13C7.84431 13 7.42857 13.4157 7.42857 13.9286C7.42857 14.4414 7.84431 14.8571 8.35715 14.8571Z" fill="#8A55E9"/>
<path d="M8.35715 17.6429C8.35715 17.8892 8.45498 18.1254 8.62912 18.2995C8.80326 18.4737 9.03945 18.5715 9.28572 18.5715H16.7143C16.9606 18.5715 17.1967 18.4737 17.3709 18.2995C17.545 18.1254 17.6429 17.8892 17.6429 17.6429C17.6429 17.3967 17.545 17.1605 17.3709 16.9863C17.1967 16.8122 16.9606 16.7144 16.7143 16.7144H9.28572C9.03945 16.7144 8.80326 16.8122 8.62912 16.9863C8.45498 17.1605 8.35715 17.3967 8.35715 17.6429Z" fill="#8A55E9"/>
</svg>
