<svg width="150" height="32" viewBox="0 0 150 32" fill="none" xmlns="http://www.w3.org/2000/svg">
<path d="M9.30998 12.9971L14.9985 7.4528L20.69 13L24 9.77383L14.9985 1L6 9.7709L9.30998 12.9971Z" fill="#F3BA2F"/>
<path d="M6.78014 16.0282L3.39014 12.6318L-3.12719e-05 16.0283L3.38997 19.4247L6.78014 16.0282Z" fill="#F3BA2F"/>
<path d="M9.31364 19.0027L15.0001 24.5471L20.6894 19L24 22.2244L23.9984 22.2262L15.0001 31L6.00463 22.2292L6 22.2247L9.31364 19.0027Z" fill="#F3BA2F"/>
<path d="M26.6111 19.4263L30.0012 16.0298L26.6112 12.6334L23.2211 16.03L26.6111 19.4263Z" fill="#F3BA2F"/>
<path d="M18.9964 15.9979H18.9981L15 12L12.0454 14.9545H12.0451L11.7058 15.2941L11.0055 15.9944L11 15.9999L11.0055 16.0056L15 20L18.9981 16.0021L19 15.9999L18.9964 15.9979Z" fill="#F3BA2F"/>
<path d="M36 9H43.1002C44.8624 9 46.195 9.44281 47.0981 10.3284C47.797 11.0143 48.1464 11.8644 48.1464 12.8785V12.9214C48.1464 13.3499 48.0923 13.7286 47.9835 14.057C47.8749 14.3859 47.7297 14.6819 47.5483 14.9462C47.3674 15.2108 47.157 15.4429 46.9179 15.6426C46.6785 15.8428 46.4214 16.0144 46.1459 16.1569C47.0317 16.4858 47.729 16.932 48.2374 17.4963C48.7456 18.0609 49 18.8431 49 19.8429V19.8856C49 20.5714 48.8654 21.1713 48.5959 21.6858C48.3264 22.1999 47.9403 22.6287 47.4377 22.9716C46.935 23.3146 46.3305 23.5715 45.6241 23.7431C44.9177 23.9144 44.1348 24 43.2757 24H36V9ZM42.3904 15.0642C43.1347 15.0642 43.7257 14.9395 44.1631 14.6893C44.6007 14.4393 44.8195 14.0356 44.8195 13.4786V13.4357C44.8195 12.9359 44.6297 12.5539 44.2505 12.2894C43.871 12.0251 43.3238 11.8928 42.6092 11.8928H39.2826V15.0642H42.3904ZM43.2878 21.1074C44.0319 21.1074 44.6151 20.9756 45.0386 20.7111C45.4616 20.4468 45.6734 20.0359 45.6734 19.4787V19.436C45.6734 18.936 45.4762 18.5397 45.0824 18.2466C44.6883 17.9541 44.0538 17.8075 43.1783 17.8075H39.2826V21.1076H43.2878V21.1074Z" fill="#F3BA2F"/>
<path d="M53 9H56V24H53V9Z" fill="#F3BA2F"/>
<path d="M62 9H65.1958L72.5787 18.2358V9H76V24H73.0516L65.421 14.4644V24H62V9Z" fill="#F3BA2F"/>
<path d="M86.8736 9H90.1266L97 24H93.3113L91.845 20.6597H85.0636L83.5974 24H80L86.8736 9ZM90.585 17.7658L88.4541 12.9361L86.324 17.7658H90.585Z" fill="#F3BA2F"/>
<path d="M100 9H103.196L110.579 18.2358V9H114V24H111.052L103.421 14.4644V24H100V9Z" fill="#F3BA2F"/>
<path d="M127.336 24C126.144 24 125.037 23.7936 124.015 23.3814C122.994 22.9692 122.111 22.4053 121.368 21.6906C120.625 20.9761 120.044 20.1326 119.627 19.1603C119.209 18.1877 119 17.149 119 16.044V16C119 14.895 119.209 13.8602 119.627 12.895C120.045 11.9301 120.625 11.0829 121.368 10.3536C122.111 9.62438 123.002 9.04951 124.038 8.62971C125.075 8.2099 126.222 8 127.475 8C128.233 8 128.926 8.05921 129.553 8.17672C130.18 8.29492 130.749 8.45667 131.26 8.66288C131.771 8.86933 132.243 9.11978 132.677 9.41425C133.109 9.70917 133.512 10.0331 133.884 10.3868L131.609 12.884C130.973 12.339 130.327 11.9114 129.669 11.6022C129.011 11.293 128.272 11.1382 127.452 11.1382C126.771 11.1382 126.14 11.2635 125.56 11.514C124.979 11.7644 124.48 12.1105 124.062 12.5524C123.644 12.9943 123.319 13.5065 123.086 14.0883C122.855 14.6705 122.739 15.2929 122.739 15.9558V15.9998C122.739 16.6627 122.855 17.2891 123.086 17.8781C123.319 18.4677 123.639 18.9831 124.05 19.425C124.46 19.8669 124.956 20.2172 125.536 20.475C126.117 20.733 126.755 20.8616 127.452 20.8616C128.381 20.8616 129.166 20.6996 129.808 20.3754C130.451 20.0517 131.09 19.6096 131.724 19.0495L134 21.2374C133.582 21.6648 133.148 22.048 132.7 22.3865C132.251 22.7256 131.759 23.0164 131.225 23.2597C130.691 23.5025 130.106 23.6871 129.472 23.812C128.837 23.9371 128.125 24 127.336 24Z" fill="#F3BA2F"/>
<path d="M138 9H149.887V11.9358H141.429V14.9787H148.872V17.9143H141.429V21.0644H150V24H138V9Z" fill="#F3BA2F"/>
</svg>
