<svg width="150" height="32" viewBox="0 0 150 32" fill="none" xmlns="http://www.w3.org/2000/svg">
<path d="M54.4408 12.0893H50.1557V26.8789H54.4408V12.0893Z" fill="white"/>
<path d="M50.3753 9.34015C50.8698 9.79846 51.5108 10.0275 52.2981 10.0275C53.0856 10.0275 53.7265 9.79846 54.221 9.34015C54.7154 8.86365 54.9626 8.26808 54.9626 7.55333C54.9626 6.89356 54.7154 6.34377 54.221 5.90391C53.7265 5.46406 53.0856 5.24414 52.2981 5.24414C51.5108 5.24414 50.8698 5.47323 50.3753 5.9314C49.8808 6.38957 49.6336 6.95771 49.6336 7.63581C49.6336 8.31388 49.8808 8.88207 50.3753 9.34015Z" fill="white"/>
<path d="M37.6323 16.2952V11.2095H47.7135V7.6358H33.1821V26.8789H37.6323V19.8689H46.5324V16.2952H37.6323Z" fill="white"/>
<path d="M67.4003 11.8693C69.2315 11.8693 70.7057 12.4192 71.8229 13.5188C72.9582 14.6182 73.5259 16.2494 73.5259 18.412V26.8789H69.2407V19.0717C69.2407 17.8989 68.9843 17.0283 68.4717 16.4602C67.9588 15.8737 67.2171 15.5804 66.2466 15.5804C65.166 15.5804 64.3053 15.9195 63.6645 16.5976C63.0236 17.2574 62.7029 18.247 62.7029 19.5666V26.8789H58.4178V12.0893H62.5107V13.8211C63.0784 13.1979 63.7835 12.7214 64.6258 12.3916C65.4683 12.0435 66.393 11.8693 67.4003 11.8693Z" fill="white"/>
<path fill-rule="evenodd" clip-rule="evenodd" d="M91.9651 20.6937C92.0199 19.9789 92.0475 19.594 92.0475 19.539C92.0475 17.9997 91.7086 16.6527 91.031 15.498C90.3719 14.3252 89.4562 13.427 88.284 12.8041C87.1121 12.1809 85.8027 11.8693 84.356 11.8693C82.8728 11.8693 81.5266 12.1991 80.3181 12.8589C79.1277 13.5004 78.1846 14.4076 77.4887 15.5804C76.8113 16.7351 76.4724 18.0363 76.4724 19.484C76.4724 20.9503 76.8202 22.2606 77.5161 23.4152C78.212 24.5699 79.2009 25.4771 80.4829 26.1368C81.7649 26.7781 83.239 27.099 84.9054 27.099C87.5792 27.099 89.6118 26.3016 91.0036 24.7073L88.7237 22.2332C88.2108 22.7279 87.6524 23.0946 87.0481 23.3328C86.462 23.5527 85.7845 23.6627 85.0152 23.6627C83.8983 23.6627 82.9642 23.3968 82.2135 22.8653C81.4626 22.334 80.9866 21.6101 80.7851 20.6937H91.9651ZM81.9387 15.9379C82.5979 15.388 83.4128 15.1131 84.3836 15.1131C85.3357 15.1131 86.1416 15.3972 86.8009 15.9653C87.4601 16.5152 87.863 17.2574 88.0094 18.1922H80.7301C80.8765 17.239 81.2796 16.4876 81.9387 15.9379Z" fill="white"/>
<path d="M102.042 27.099C100.467 27.099 99.0481 26.7781 97.7845 26.1368C96.5394 25.4771 95.5597 24.5699 94.8454 23.4152C94.1495 22.2606 93.8014 20.9503 93.8014 19.484C93.8014 18.0179 94.1495 16.7077 94.8454 15.553C95.5597 14.3984 96.5394 13.5004 97.7845 12.8589C99.0481 12.1991 100.467 11.8693 102.042 11.8693C103.599 11.8693 104.954 12.1991 106.108 12.8589C107.28 13.5004 108.131 14.426 108.662 15.6354L105.339 17.4224C104.57 16.0661 103.462 15.388 102.015 15.388C100.898 15.388 99.973 15.7547 99.2405 16.4876C98.508 17.2208 98.1418 18.2196 98.1418 19.484C98.1418 20.7487 98.508 21.7475 99.2405 22.4806C99.973 23.2136 100.898 23.58 102.015 23.58C103.48 23.58 104.588 22.9021 105.339 21.5458L108.662 23.3602C108.131 24.533 107.28 25.4494 106.108 26.1092C104.954 26.7691 103.599 27.099 102.042 27.099Z" fill="white"/>
<path d="M119.31 26.8789C119.933 26.7141 120.455 26.4758 120.876 26.1642L119.722 23.1404C119.246 23.5068 118.669 23.6901 117.992 23.6901C117.406 23.6901 116.948 23.5252 116.618 23.1954C116.307 22.8471 116.151 22.3614 116.151 21.7383V15.7178H119.832V12.4192H116.151V8.81782H111.866V12.4192H109.586V15.7178H111.866V21.7933C111.866 23.5342 112.342 24.8539 113.294 25.7519C114.265 26.6499 115.629 27.099 117.388 27.099C118.065 27.099 118.706 27.0255 119.31 26.8789Z" fill="white"/>
<path fill-rule="evenodd" clip-rule="evenodd" d="M129.858 27.099C128.301 27.099 126.9 26.7781 125.655 26.1368C124.428 25.4771 123.466 24.5699 122.771 23.4152C122.075 22.2606 121.727 20.9503 121.727 19.484C121.727 18.0179 122.075 16.7077 122.771 15.553C123.466 14.3984 124.428 13.5004 125.655 12.8589C126.9 12.1991 128.301 11.8693 129.858 11.8693C131.414 11.8693 132.806 12.1991 134.033 12.8589C135.26 13.5004 136.221 14.3984 136.917 15.553C137.613 16.7077 137.961 18.0179 137.961 19.484C137.961 20.9503 137.613 22.2606 136.917 23.4152C136.221 24.5699 135.26 25.4771 134.033 26.1368C132.806 26.7781 131.414 27.099 129.858 27.099ZM129.858 23.58C130.956 23.58 131.854 23.2136 132.549 22.4806C133.264 21.7291 133.621 20.7303 133.621 19.484C133.621 18.238 133.264 17.2482 132.549 16.5152C131.854 15.7637 130.956 15.388 129.858 15.388C128.759 15.388 127.852 15.7637 127.138 16.5152C126.424 17.2482 126.067 18.238 126.067 19.484C126.067 20.7303 126.424 21.7291 127.138 22.4806C127.852 23.2136 128.759 23.58 129.858 23.58Z" fill="white"/>
<path d="M146.978 12.4192C146.118 12.7857 145.431 13.3264 144.918 14.0411V12.0893H140.825V26.8789H145.11V19.8965C145.11 18.522 145.458 17.4956 146.154 16.8175C146.85 16.1211 147.812 15.7729 149.039 15.7729C149.204 15.7729 149.524 15.7913 150 15.8279V11.8693C148.865 11.8693 147.857 12.0525 146.978 12.4192Z" fill="white"/>
<path d="M0 6.57764H19.4573V8.69232H0V6.57764Z" fill="url(#paint0_linear_11426_20959)"/>
<path d="M0 11.2032H19.4573V13.3178H0V11.2032Z" fill="url(#paint1_linear_11426_20959)"/>
<path d="M0 15.8292H19.4573V17.9438H0V15.8292Z" fill="url(#paint2_linear_11426_20959)"/>
<path d="M0 20.4554H19.4573V22.57H0V20.4554Z" fill="url(#paint3_linear_11426_20959)"/>
<path d="M0 25.0807H19.4573V27.1953H0V25.0807Z" fill="url(#paint4_linear_11426_20959)"/>
<defs>
<linearGradient id="paint0_linear_11426_20959" x1="9.72867" y1="6.57764" x2="9.72867" y2="27.1953" gradientUnits="userSpaceOnUse">
<stop stop-color="#3686B8"/>
<stop offset="1" stop-color="#1AD5BB"/>
</linearGradient>
<linearGradient id="paint1_linear_11426_20959" x1="9.72867" y1="6.57763" x2="9.72867" y2="27.1953" gradientUnits="userSpaceOnUse">
<stop stop-color="#3686B8"/>
<stop offset="1" stop-color="#1AD5BB"/>
</linearGradient>
<linearGradient id="paint2_linear_11426_20959" x1="9.72867" y1="6.57764" x2="9.72867" y2="27.1953" gradientUnits="userSpaceOnUse">
<stop stop-color="#3686B8"/>
<stop offset="1" stop-color="#1AD5BB"/>
</linearGradient>
<linearGradient id="paint3_linear_11426_20959" x1="9.72867" y1="6.57765" x2="9.72867" y2="27.1953" gradientUnits="userSpaceOnUse">
<stop stop-color="#3686B8"/>
<stop offset="1" stop-color="#1AD5BB"/>
</linearGradient>
<linearGradient id="paint4_linear_11426_20959" x1="9.72867" y1="6.57759" x2="9.72867" y2="27.1953" gradientUnits="userSpaceOnUse">
<stop stop-color="#3686B8"/>
<stop offset="1" stop-color="#1AD5BB"/>
</linearGradient>
</defs>
</svg>
